<?xml version="1.0" encoding="utf-8"?>
<!-- Generator: Adobe Illustrator 24.3.0, SVG Export Plug-In . SVG Version: 6.00 Build 0)  -->
<svg version="1.1" id="Layer_1" xmlns="http://www.w3.org/2000/svg" xmlns:xlink="http://www.w3.org/1999/xlink" x="0px" y="0px"
	 viewBox="0 0 559.9 120" style="enable-background:new 0 0 559.9 120;" xml:space="preserve">
<style type="text/css">
	.st0{fill:#0083B0;}
</style>
<g>
	<g>
		<path class="st0" d="M175.6,46.1c0,0,0,0.2,0,0.5s-0.2,0.6-0.4,0.9c-0.2,0.3-0.6,0.6-1.1,0.9c-0.5,0.3-1.3,0.4-2.3,0.4
			c-1.3,0-2.4-0.1-3.2-0.2c-0.8-0.1-1.3-0.4-1.7-0.6c-0.4-0.3-0.6-0.6-0.7-0.9c-0.1-0.3-0.1-0.7-0.1-1c0-3.5,0.9-6.5,2.6-9
			c1.8-2.5,4.2-4.6,7.4-6.2c3.2-1.6,7-2.8,11.4-3.5c4.4-0.8,9.4-1.1,14.7-1.1c3.6,0,7.3,0.2,11.3,0.5c3.9,0.3,8,0.7,12.2,1.1
			c1.2,0.3,2,0.8,2.5,1.4s0.7,1.3,0.7,1.9c0,0.4-0.1,0.9-0.2,1.4c-0.1,0.5-0.3,1-0.6,1.4s-0.6,0.8-1,1c-0.4,0.3-0.9,0.4-1.5,0.4
			c-0.1,0-0.1,0-0.2,0c-0.1,0-0.2,0-0.3,0c-1.6-0.1-3.2-0.3-5-0.4c-1.8-0.1-3.7-0.3-5.7-0.4c-2-0.2-4-0.3-6.1-0.3
			c-2.1-0.1-4.2-0.1-6.4-0.1c-0.6,0-1.4,0-2.3,0.1c-0.9,0.1-1.7,0.1-2.6,0.2c-0.9,0.1-1.9,0.2-3,0.3c0,0.2,0,0.5-0.1,0.7
			s-0.1,0.7-0.2,1.3s-0.2,1.4-0.4,2.3c-0.2,1-0.3,2.1-0.5,3.5c-0.1,1.4-0.3,3.1-0.6,5.2c-0.3,2.1-0.5,4.7-0.8,7.8h19.5
			c0.6,0,1,0.1,1.3,0.3s0.5,0.5,0.7,0.8s0.2,0.7,0.2,1c0,0.4,0,0.7,0,1c0,1.1-0.2,1.9-0.7,2.4s-1,0.8-1.5,0.8c-0.2,0-0.7,0-1.6,0.1
			c-0.9,0-2,0.1-3.4,0.1c-1.3,0-2.8,0.1-4.3,0.1c-1.6,0.1-3.1,0.1-4.6,0.2c-1.5,0-2.8,0.1-4,0.1s-2,0.1-2.5,0.1
			c-0.5,2.8-1,5.6-1.5,8.2s-1.1,5.1-2,7.4c-0.8,2.3-1.8,4.4-2.9,6.3c-1.1,1.9-2.4,3.5-4,4.8s-3.3,2.4-5.3,3.1s-4.3,1.1-6.9,1.1
			c-0.5,0-1.2,0-1.9-0.1c-0.8-0.1-1.5-0.2-2.4-0.4c-0.8-0.2-1.6-0.4-2.5-0.7c-0.8-0.3-1.5-0.6-2.2-1c-0.6-0.4-1.2-0.9-1.6-1.4
			c-0.4-0.5-0.6-1.1-0.6-1.8c0-0.4,0.1-0.8,0.2-1.4c0.2-0.6,0.4-1.1,0.7-1.7s0.7-1,1.2-1.4s1.1-0.6,1.7-0.6c0.8,0,1.6,0.1,2.5,0.4
			s1.7,0.5,2.7,0.9s1.9,0.6,2.8,0.9c1,0.3,1.9,0.4,2.9,0.4c0.8,0,1.5-0.3,2.3-0.9c0.7-0.6,1.4-1.5,2.1-2.6c0.7-1.1,1.3-2.4,1.9-3.8
			c0.6-1.5,1.2-3.1,1.7-4.8s1-3.5,1.4-5.3c0.4-1.9,0.8-3.7,1.3-5.6h-4.4c-0.4,0-0.9,0-1.5-0.1s-1.2-0.2-1.7-0.5
			c-0.5-0.2-1-0.5-1.4-0.9s-0.6-0.8-0.6-1.3c0-0.4,0.1-0.7,0.3-1.1c0.2-0.3,0.6-0.6,1.1-0.7c1.3-0.3,2.5-0.5,3.5-0.7
			s1.9-0.4,2.6-0.5c0.8-0.1,1.4-0.3,2-0.4c0.6-0.1,1.1-0.2,1.6-0.3c0.6-2.8,1-5.1,1.3-7s0.6-3.6,0.9-5.1c0.2-1.5,0.5-2.9,0.7-4.2
			s0.5-2.8,0.7-4.3c-2.1,0.6-3.9,1.3-5.4,2.1s-2.8,1.7-3.8,2.6s-1.7,1.9-2.2,2.9S175.6,45.1,175.6,46.1z"/>
		<path class="st0" d="M243.6,80.1c-0.5,0.8-1.3,1.7-2.2,2.7s-1.9,2-3.1,2.9c-1.1,0.9-2.3,1.7-3.6,2.4c-1.3,0.6-2.6,1-3.9,1
			c-1.6,0-2.9-0.5-3.9-1.5s-1.9-2.4-2.7-4.3c-0.6,0.7-1.3,1.3-2.1,2s-1.7,1.3-2.7,1.8s-2,1-3.1,1.3s-2.1,0.5-3.2,0.5
			c-1.1,0-2.2-0.2-3.3-0.7s-2-1.1-2.8-2s-1.5-1.9-2-3.2c-0.5-1.2-0.7-2.7-0.7-4.2c0-1.8,0.2-3.6,0.7-5.4c0.5-1.9,1.3-3.9,2.3-6
			c1-2.2,2.2-4,3.4-5.6s2.5-2.9,3.9-4.1c1.4-1.2,2.9-2.1,4.5-2.8s3.2-1,4.8-1c0.5,0,1,0.1,1.3,0.3s0.6,0.5,0.8,0.7
			c0.2,0.3,0.4,0.5,0.6,0.8s0.4,0.5,0.7,0.6s0.6,0.2,0.9,0.2c0.3,0,0.6,0.1,0.9,0.1c0.3,0,0.5,0,0.8,0s0.5,0,0.8,0
			c0.4,0,0.7,0,1,0.1s0.6,0.2,0.8,0.5c0.2,0.2,0.4,0.6,0.5,1s0.2,1,0.2,1.7c0,1.1-0.1,2.4-0.4,3.7c-0.2,1.4-0.5,2.8-0.8,4.2
			s-0.6,3.1-1,4.9s-0.6,3.4-0.6,4.7c0,1.1,0.1,1.9,0.3,2.5s0.6,0.9,1.3,0.9c0.5,0,1-0.1,1.6-0.4s1.1-0.6,1.6-1
			c0.6-0.4,1.1-0.8,1.7-1.3s1.1-1,1.6-1.6c1.2-1.3,2.3-2.7,3.5-4.3L243.6,80.1z M213.4,77.3c0,0.6,0,1.2,0.1,1.8
			c0.1,0.6,0.2,1.1,0.4,1.5s0.5,0.8,0.8,1.1c0.4,0.3,0.8,0.4,1.3,0.4c0.9,0,1.7-0.4,2.4-1.1s1.3-1.7,1.8-2.7
			c0.5-1.1,0.9-2.2,1.3-3.3s0.5-2.1,0.6-2.8l2.6-11.5c-1,0-1.9,0.2-2.8,0.7c-0.9,0.5-1.8,1.1-2.6,1.9c-0.8,0.8-1.6,1.7-2.2,2.8
			c-0.7,1-1.4,2.3-2,3.9s-1.1,2.9-1.4,4.1C213.5,75.2,213.4,76.3,213.4,77.3z"/>
		<path class="st0" d="M252.7,88.8c-2.2,0-4.1-0.4-5.8-1.2c-1.6-0.8-3-1.9-4.1-3.3s-1.9-3-2.5-4.8c-0.5-1.8-0.8-3.7-0.8-5.7
			c0-1.3,0.2-2.8,0.7-4.6s1-3.4,1.5-4.8s1.2-2.7,2-4s1.7-2.4,2.8-3.3s2.3-1.7,3.6-2.3s2.8-0.9,4.4-0.9c1.3,0,2.5,0.2,3.7,0.6
			s2.1,1,2.9,1.8s1.5,1.7,2,2.8s0.7,2.3,0.7,3.6c0,1.4-0.5,3-1.4,4.8c-1,1.8-2.1,3.3-3.3,4.6s-2.8,2.4-4.5,3.4
			c-1.8,1-3.7,1.8-5.7,2.3c0.4,0.6,0.7,1.1,1,1.6s0.7,0.7,1,1c0.4,0.2,0.7,0.4,1.1,0.5c0.4,0.1,0.8,0.1,1.3,0.1
			c1.4,0,2.9-0.3,4.5-0.8c1.6-0.6,3.1-1.2,4.6-2.1c1.5-0.8,2.9-1.7,4.2-2.7c1.3-1,2.4-1.9,3.4-2.8l4.5,4.6c-2.1,2.2-4.3,4.2-6.6,5.8
			c-1,0.7-2.1,1.4-3.3,2.1s-2.4,1.3-3.7,1.9s-2.6,1-4,1.3C255.5,88.7,254.1,88.8,252.7,88.8z M248,72c0.9,0,1.8-0.2,2.8-0.6
			s1.9-1,2.8-1.6c0.9-0.7,1.7-1.6,2.5-2.7c0.8-1.1,1.2-2.1,1.2-2.8c0-1-0.2-1.9-0.6-2.6c-0.4-0.7-0.9-1-1.4-1c-1,0-1.9,0.2-2.6,0.6
			c-0.7,0.4-1.3,0.8-1.8,1.4c-0.5,0.6-0.9,1.3-1.2,2s-0.6,1.7-1,2.8c-0.4,1.1-0.6,2-0.7,2.7C248,70.9,248,71.5,248,72z"/>
		<path class="st0" d="M275.3,88.8c-1.3,0-2.4-0.5-3.5-1.6s-2-2.6-2.8-4.4c-0.8-1.9-1.4-4-1.9-6.4s-0.7-5-0.7-7.7
			c0-2.3,0.3-5.4,1-9.2c0.7-3.9,1-5.8,1-5.8s0.5-1.9,1.5-5.8c1-3.8,2.1-6.9,3.1-9.3c1-2.3,2.2-4.5,3.4-6.5c1.2-2,2.5-3.8,3.8-5.3
			s2.7-2.7,4.2-3.5c1.4-0.9,2.9-1.3,4.4-1.3c1.1,0,2,0.2,2.7,0.6s1.3,1,1.7,1.6c0.4,0.7,0.7,1.5,0.9,2.3c0.2,0.9,0.2,1.7,0.2,2.6
			c0,2.2-0.3,4.5-0.8,6.8c-0.5,2.3-1.2,4.6-2.1,7s-1.9,4.7-3.1,7s-2.4,4.7-3.7,7c-1.3,2.3-2.5,4.6-3.8,6.8s-2.5,4.4-3.6,6.6
			c-0.1,0.2-0.2,0.5-0.4,0.9c-0.1,0.4-0.3,0.8-0.4,1.2s-0.2,0.9-0.4,1.4c-0.1,0.5-0.2,1-0.3,1.5v0.5c0,0.6,0.1,1.2,0.2,1.8
			c0.1,0.6,0.3,1.1,0.5,1.6s0.4,0.8,0.6,1.1c0.2,0.3,0.4,0.4,0.6,0.4c0.5,0,1-0.1,1.6-0.3c0.6-0.2,1.2-0.4,1.9-0.8
			c0.7-0.3,1.3-0.7,2-1.1s1.4-0.8,2-1.3c1.5-1,3.1-2.1,4.8-3.4l3.1,7.4c-2.2,1.4-4.3,2.7-6.4,3.8c-0.9,0.5-1.9,0.9-2.9,1.4
			s-2,0.9-3,1.2c-1,0.4-2,0.6-2.9,0.9C277,88.7,276.1,88.8,275.3,88.8z M275.3,60.9c1.1-1.9,2.2-4,3.4-6.4s2.3-4.8,3.4-7.3
			s2-5,2.8-7.5s1.3-4.8,1.5-7c0-0.7,0-1.3,0-1.8s-0.1-0.7-0.3-0.7c-0.6,0-1.3,0.4-2.1,1.3c-0.7,0.9-1.5,2.1-2.2,3.6s-1.6,4-2.7,7.4
			c-1,3.4-1.6,5.2-1.6,5.2s-0.3,1.6-0.9,4.8C275.8,55.7,275.4,58.5,275.3,60.9z"/>
		<path class="st0" d="M323.4,80.1c-0.5,0.8-1.3,1.7-2.2,2.7s-1.9,2-3.1,2.9c-1.1,0.9-2.3,1.7-3.6,2.4c-1.3,0.6-2.6,1-3.9,1
			c-1.6,0-2.9-0.5-3.9-1.5s-1.9-2.4-2.7-4.3c-0.6,0.7-1.3,1.3-2.1,2s-1.7,1.3-2.7,1.8s-2,1-3.1,1.3s-2.1,0.5-3.2,0.5
			s-2.2-0.2-3.3-0.7s-2-1.1-2.8-2s-1.5-1.9-2-3.2c-0.5-1.2-0.7-2.7-0.7-4.2c0-1.8,0.2-3.6,0.7-5.4c0.5-1.9,1.3-3.9,2.3-6
			c1-2.2,2.2-4,3.4-5.6c1.2-1.6,2.5-2.9,3.9-4.1c1.4-1.2,2.9-2.1,4.5-2.8s3.2-1,4.8-1c0.5,0,1,0.1,1.3,0.3s0.6,0.5,0.8,0.7
			c0.2,0.3,0.4,0.5,0.6,0.8s0.4,0.5,0.7,0.6c0.3,0.1,0.6,0.2,0.9,0.2s0.6,0.1,0.9,0.1s0.5,0,0.8,0s0.5,0,0.8,0c0.4,0,0.7,0,1,0.1
			s0.6,0.2,0.8,0.5c0.2,0.2,0.4,0.6,0.5,1s0.2,1,0.2,1.7c0,1.1-0.1,2.4-0.4,3.7c-0.2,1.4-0.5,2.8-0.8,4.2s-0.6,3.1-1,4.9
			s-0.6,3.4-0.6,4.7c0,1.1,0.1,1.9,0.3,2.5c0.2,0.6,0.6,0.9,1.3,0.9c0.5,0,1-0.1,1.6-0.4s1.1-0.6,1.6-1c0.6-0.4,1.1-0.8,1.7-1.3
			s1.1-1,1.6-1.6c1.2-1.3,2.3-2.7,3.5-4.3L323.4,80.1z M293.2,77.3c0,0.6,0,1.2,0.1,1.8c0.1,0.6,0.2,1.1,0.4,1.5
			c0.2,0.4,0.5,0.8,0.8,1.1c0.4,0.3,0.8,0.4,1.3,0.4c0.9,0,1.7-0.4,2.4-1.1s1.3-1.7,1.8-2.7c0.5-1.1,0.9-2.2,1.3-3.3
			s0.5-2.1,0.6-2.8l2.6-11.5c-1,0-1.9,0.2-2.8,0.7s-1.8,1.1-2.6,1.9c-0.8,0.8-1.6,1.7-2.2,2.8c-0.7,1-1.4,2.3-2,3.9
			s-1.1,2.9-1.4,4.1C293.3,75.2,293.2,76.3,293.2,77.3z"/>
		<path class="st0" d="M320.6,81.5c0-1.6,0.1-3.3,0.3-5.4s0.4-4.3,0.7-6.7s0.6-4.6,1-6.6s0.7-3.6,1-5c0.3-1.1,0.8-2,1.5-2.7
			s1.7-1.1,3-1.1s2.2,0.4,2.6,1.2c0.5,0.8,0.7,1.8,0.7,3.1c0,0.4,0,0.8-0.1,1.4c-0.1,0.6-0.2,1.3-0.3,2c-0.1,0.7-0.2,1.5-0.3,2.2
			c-0.1,0.8-0.2,1.6-0.3,2.6c-0.1,1-0.2,1.7-0.3,2.2c-0.1,0.5-0.1,0.8-0.1,1h0.7c0.1-0.3,0.4-0.7,0.7-1.3s0.7-1.4,1.1-2.5
			s0.8-2,1.3-2.9c0.5-0.8,0.9-1.6,1.3-2.4c0.4-0.8,0.8-1.4,1.1-2c0.3-0.6,0.6-1,0.7-1.3c0.8-1.3,1.6-2.1,2.6-2.6s2-0.7,3.2-0.7
			s2.1,0.5,2.8,1.5c0.7,1,1,2.4,1,4.1c0,0.3-0.1,0.7-0.2,1.3s-0.2,1.3-0.4,2.2c-0.2,0.8-0.3,1.9-0.5,3.3c-0.2,1.3-0.4,2.5-0.5,3.6
			c-0.2,1.1-0.3,2.1-0.4,3.1s-0.2,2-0.2,2.9c0,1.5,0.2,2.7,0.5,3.6c0.4,0.9,0.9,1.4,1.7,1.4c0.3,0,0.7-0.1,1.2-0.3
			c0.8-0.3,1.3-0.5,1.5-0.7c1-0.8,1.6-1.2,1.6-1.2c0.1,0,0.9-0.4,2.4-1.4c1.9-1.2,4.1-2.7,6.7-4.4v7.9l-1.8,1.3
			c-0.1,0.1-1.2,0.7-3.3,1.8c-3,1.6-4.9,2.6-5.6,2.9c-1.8,0.8-3,1.3-3.4,1.4c-1.2,0.4-2.4,0.6-3.7,0.6s-2.4-0.9-3.3-2.8
			s-1.3-4.6-1.3-8.2c0-1.4,0.1-2.9,0.3-4.6c0.2-1.6,0.4-3.4,0.7-5.3H338l-9.2,18.3c-0.5,1-1,1.6-1.6,2s-1.3,0.5-2,0.5
			c-1,0-1.7-0.2-2.3-0.6c-0.6-0.4-1-1-1.4-1.7c-0.3-0.7-0.5-1.5-0.6-2.4C320.7,83.3,320.6,82.4,320.6,81.5z"/>
		<path class="st0" d="M372.7,41.9c-1.5,2.8-2.9,4.9-4.1,6.3c-1.2,1.4-2.2,2.1-2.9,2.1c-1,0-1.6-1.2-1.6-3.6c0-2.3,0.3-4.4,1-6.2
			s1.6-3.5,2.8-4.9c1.2-1.4,2.6-2.6,4.2-3.6c1.6-1,3.4-1.8,5.4-2.5c1.9-0.6,4-1.1,6.2-1.4s4.4-0.5,6.7-0.5c2.7,0,5.3,0.2,8,0.6
			s5.3,0.9,7.7,1.6c2.5,0.7,4.8,1.6,6.9,2.6c2.1,1,4,2.1,5.6,3.3s2.8,2.5,3.7,3.9c0.9,1.4,1.4,2.9,1.4,4.4c0,1.8-0.4,3.6-1.2,5.4
			s-2,3.4-3.7,4.8c-1.7,1.4-3.8,2.6-6.5,3.5s-5.8,1.4-9.4,1.5c2.3,0,4.4,0.4,6.1,1.1c1.7,0.8,3.2,1.8,4.4,3.1s2.1,2.8,2.6,4.6
			s0.9,3.6,0.9,5.5c0,1.5-0.2,2.9-0.6,4.4s-1,3-1.8,4.3c-0.8,1.4-1.8,2.7-3,3.9s-2.6,2.3-4.2,3.2c-1.6,0.9-3.4,1.6-5.5,2.1
			c-2,0.5-4.2,0.8-6.7,0.8c-1.5,0-3.1-0.1-4.8-0.3c-1.7-0.2-3.4-0.4-5.1-0.7c-1.7-0.3-3.4-0.7-5.1-1.1s-3.2-0.9-4.7-1.4
			c-0.7-0.2-1.2-0.4-1.7-0.7c-0.5-0.3-0.8-0.8-0.8-1.6c0-4,0.1-8,0.3-12.1s0.6-8.2,1.2-12.3s1.4-7.6,2.5-10.6c1-3,2.5-5.9,4.4-8.7
			c1.7-1.2,3.2-1.7,4.5-1.7c1.7,0,3.2,1,4.3,2.9c-1.1,1.5-2,3.1-2.8,4.9c-0.8,1.8-1.3,3.4-1.7,4.8c-0.4,1.4-0.8,3.1-1.1,5.2
			s-0.6,4.1-0.8,6.1c-0.1,1.1-0.2,2.4-0.3,3.7c-0.1,1.4-0.2,2.7-0.2,4c-0.1,1.3-0.1,2.6-0.2,3.9s0,2.5,0,3.7c0,0.2,0,0.5,0,0.8
			s0,0.7,0.1,1s0.1,0.7,0.2,1s0.2,0.5,0.4,0.7c1.4,0.5,3,0.9,4.6,1.2c1.6,0.3,3.3,0.5,4.9,0.5c2,0,3.9-0.2,5.8-0.7s3.6-1.3,5-2.3
			c1.5-1.1,2.6-2.4,3.5-4.1s1.3-3.8,1.3-6.4c0-1.4-0.3-2.6-0.8-3.5s-1.2-1.7-2-2.3s-1.8-1.1-2.9-1.5s-2.2-0.7-3.3-1
			c-1.1-0.3-2.2-0.6-3.3-0.9c-1.1-0.3-2-0.7-2.9-1.1s-1.5-1-2-1.6c-0.5-0.7-0.8-1.5-0.8-2.6c0-0.5,0-0.9,0.1-1.3
			c0.1-0.4,0.2-0.7,0.4-0.9c0.2-0.2,0.6-0.4,1-0.5s1-0.2,1.8-0.2c1,0,1.9,0,2.8,0.1c0.8,0.1,1.7,0.1,2.7,0.1c2.3,0,4.3-0.3,6.1-0.8
			c1.8-0.6,3.4-1.3,4.7-2.2c1.3-0.9,2.3-2,3-3.3s1-2.6,1-4.1c0-0.9-0.3-1.8-0.8-2.6s-1.3-1.5-2.3-2.1s-2.1-1.2-3.4-1.6
			c-1.3-0.5-2.8-0.9-4.3-1.2s-3.2-0.6-4.9-0.7c-1.7-0.2-3.5-0.2-5.2-0.2c-2.8,0-5.1,0.1-6.6,0.3c-2.2,0.2-4.2,0.6-6,1.1
			c-1.9,0.5-3.5,1.2-5,2C374.6,40,373.5,40.9,372.7,41.9z"/>
		<path class="st0" d="M435.3,88.8c-2.2,0-4.1-0.4-5.8-1.2c-1.6-0.8-3-1.9-4.1-3.3s-1.9-3-2.5-4.8c-0.5-1.8-0.8-3.7-0.8-5.7
			c0-1.3,0.2-2.8,0.7-4.6s1-3.4,1.5-4.8s1.2-2.7,2-4s1.7-2.4,2.8-3.3s2.3-1.7,3.6-2.3c1.3-0.6,2.8-0.9,4.4-0.9
			c1.3,0,2.5,0.2,3.7,0.6s2.1,1,2.9,1.8s1.5,1.7,2,2.8s0.7,2.3,0.7,3.6c0,1.4-0.5,3-1.4,4.8c-1,1.8-2.1,3.3-3.3,4.6
			s-2.8,2.4-4.5,3.4c-1.8,1-3.7,1.8-5.7,2.3c0.4,0.6,0.7,1.1,1,1.6s0.7,0.7,1,1c0.4,0.2,0.7,0.4,1.1,0.5s0.8,0.1,1.3,0.1
			c1.4,0,2.9-0.3,4.5-0.8c1.6-0.6,3.1-1.2,4.6-2.1c1.5-0.8,2.9-1.7,4.2-2.7c1.3-1,2.4-1.9,3.4-2.8l4.5,4.6c-2.1,2.2-4.3,4.2-6.6,5.8
			c-1,0.7-2.1,1.4-3.3,2.1s-2.4,1.3-3.7,1.9s-2.6,1-4,1.3C438.1,88.7,436.7,88.8,435.3,88.8z M430.6,72c0.9,0,1.8-0.2,2.8-0.6
			s1.9-1,2.8-1.6c0.9-0.7,1.7-1.6,2.5-2.7s1.2-2.1,1.2-2.8c0-1-0.2-1.9-0.6-2.6c-0.4-0.7-0.9-1-1.4-1c-1,0-1.9,0.2-2.6,0.6
			c-0.7,0.4-1.3,0.8-1.8,1.4c-0.5,0.6-0.9,1.3-1.2,2s-0.6,1.7-1,2.8c-0.4,1.1-0.6,2-0.7,2.7C430.6,70.9,430.6,71.5,430.6,72z"/>
		<path class="st0" d="M487.1,80.1c-0.5,0.8-1.3,1.7-2.2,2.7s-1.9,2-3.1,2.9c-1.1,0.9-2.3,1.7-3.6,2.4c-1.3,0.6-2.6,1-3.9,1
			c-1.6,0-2.9-0.5-3.9-1.5s-1.9-2.4-2.7-4.3c-0.6,0.7-1.3,1.3-2.1,2s-1.7,1.3-2.7,1.8s-2,1-3.1,1.3s-2.1,0.5-3.2,0.5
			s-2.2-0.2-3.3-0.7s-2-1.1-2.8-2s-1.5-1.9-2-3.2c-0.5-1.2-0.7-2.7-0.7-4.2c0-1.8,0.2-3.6,0.7-5.4c0.5-1.9,1.3-3.9,2.3-6
			c1-2.2,2.2-4,3.4-5.6c1.2-1.6,2.5-2.9,3.9-4.1c1.4-1.2,2.9-2.1,4.5-2.8s3.2-1,4.8-1c0.5,0,1,0.1,1.3,0.3s0.6,0.5,0.8,0.7
			c0.2,0.3,0.4,0.5,0.6,0.8s0.4,0.5,0.7,0.6c0.3,0.1,0.6,0.2,0.9,0.2s0.6,0.1,0.9,0.1s0.5,0,0.8,0s0.5,0,0.8,0c0.4,0,0.7,0,1,0.1
			s0.6,0.2,0.8,0.5c0.2,0.2,0.4,0.6,0.5,1s0.2,1,0.2,1.7c0,1.1-0.1,2.4-0.4,3.7c-0.2,1.4-0.5,2.8-0.8,4.2s-0.6,3.1-1,4.9
			s-0.6,3.4-0.6,4.7c0,1.1,0.1,1.9,0.3,2.5c0.2,0.6,0.6,0.9,1.3,0.9c0.5,0,1-0.1,1.6-0.4s1.1-0.6,1.6-1c0.6-0.4,1.1-0.8,1.7-1.3
			s1.1-1,1.6-1.6c1.2-1.3,2.3-2.7,3.5-4.3L487.1,80.1z M456.8,77.3c0,0.6,0,1.2,0.1,1.8c0.1,0.6,0.2,1.1,0.4,1.5
			c0.2,0.4,0.5,0.8,0.8,1.1c0.4,0.3,0.8,0.4,1.3,0.4c0.9,0,1.7-0.4,2.4-1.1s1.3-1.7,1.8-2.7c0.5-1.1,0.9-2.2,1.3-3.3
			s0.5-2.1,0.6-2.8l2.6-11.5c-1,0-1.9,0.2-2.8,0.7s-1.8,1.1-2.6,1.9c-0.8,0.8-1.6,1.7-2.2,2.8c-0.7,1-1.4,2.3-2,3.9
			s-1.1,2.9-1.4,4.1C457,75.2,456.8,76.3,456.8,77.3z"/>
		<path class="st0" d="M495.3,88.8c-2.2,0-4.1-0.4-5.7-1.2c-1.6-0.8-3-1.9-4.1-3.2c-1.1-1.3-2-2.9-2.5-4.7c-0.6-1.8-0.9-3.6-0.9-5.5
			c0-1.4,0.2-3,0.7-4.9s1-3.6,1.5-5c0.6-1.4,1.2-2.8,2.1-4.1c0.8-1.3,1.8-2.4,2.8-3.4c1.1-1,2.3-1.8,3.6-2.3
			c1.3-0.6,2.8-0.9,4.4-0.9c1.4,0,2.7,0.2,4,0.6c1.2,0.4,2.3,1,3.1,1.7c0.9,0.7,1.5,1.6,2,2.6s0.7,2.1,0.7,3.2
			c0,0.8-0.1,1.6-0.3,2.4c-0.2,0.8-0.7,1.7-1.3,2.7c-0.7,1-1.3,1.8-1.9,2.1c-0.6,0.4-1.3,0.6-2.1,0.6c-1.2,0-2-0.3-2.3-0.9
			c-0.6-0.9-0.8-1.7-0.5-2.4c0.1-0.4,0.3-1.2,0.6-2.6c0-0.2,0.1-0.6,0-1.3c0-0.6-0.1-1-0.2-1.4s-0.4-0.6-0.8-0.6
			c-1,0-1.8,0.2-2.5,0.7s-1.3,1.1-1.7,1.8c-0.5,0.7-1,1.8-1.4,3.1c-0.5,1.4-0.8,2.5-1,3.4s-0.3,1.8-0.4,2.6c0,0.8-0.1,1.5-0.1,2.1
			c0,0.8,0.1,1.7,0.2,2.6c0.2,0.9,0.5,1.8,0.9,2.5c0.5,0.8,1,1.4,1.8,1.9c0.7,0.5,1.7,0.8,2.8,0.8c1.1,0,2.4-0.3,3.7-1
			c1.4-0.7,2.7-1.6,4.1-2.6c1.4-1.1,2.7-2.2,3.9-3.5c1.2-1.3,2.3-2.5,3.2-3.6l2.4,4.1c-1.8,2.5-3.7,4.8-5.7,6.7
			c-0.9,0.8-1.8,1.7-2.8,2.5s-2.1,1.5-3.2,2.1s-2.3,1.1-3.5,1.5S496.5,88.8,495.3,88.8z"/>
		<path class="st0" d="M523,67.3c1-1.3,2-2.7,3.2-4.2c1.2-1.5,2.8-3.2,4.8-5.2s3.7-3.4,4.9-4.2c1.3-0.9,2.5-1.3,3.6-1.3
			c0.3,0,0.6,0.1,1,0.2s0.7,0.3,1,0.6s0.6,0.7,0.8,1.2s0.3,1.2,0.3,2c0,1.6-0.2,3.2-0.7,4.8c-0.4,1.5-1.3,3.4-2.5,5.6
			c-1.2,2.2-2.1,4.1-2.5,5.7s-0.7,3.3-0.7,5c0,1,0.1,1.7,0.4,2.3s0.6,0.9,1.1,0.9c0.6,0,1.2-0.1,1.8-0.4c0.6-0.2,1.3-0.5,1.9-0.9
			s1.3-0.8,1.9-1.3c0.6-0.5,1.2-1,1.7-1.5c1.3-1.2,2.6-2.6,3.8-4.1l0.6,9.4c-0.4,0.3-1,0.7-1.6,1.2s-1.4,1-2.2,1.5s-1.6,1-2.6,1.6
			s-1.8,1-2.8,1.4c-0.9,0.4-1.9,0.7-2.8,1c-0.9,0.3-1.8,0.4-2.7,0.4c-1.3,0-2.5-0.3-3.4-1s-1.8-1.5-2.4-2.5s-1.1-2.1-1.4-3.3
			c-0.3-1.2-0.5-2.4-0.5-3.4c0-0.8,0.1-1.6,0.3-2.5s0.5-1.9,0.8-2.8c0.3-1,0.6-1.9,1-2.8s0.7-1.7,1.1-2.4s0.6-1.3,0.9-1.7
			c0.2-0.5,0.4-0.7,0.5-0.8l-0.7-0.1c-0.4,0.3-1.1,0.9-2,2s-2,2.4-3.2,4s-2.4,3.4-3.7,5.4s-2.4,4-3.5,6.2c-0.5,1-0.9,2-1.3,2.7
			s-0.7,1.4-1,1.9s-0.7,0.8-1,1.1c-0.4,0.2-0.9,0.4-1.4,0.4c-0.8,0-1.4-0.2-1.8-0.6c-0.4-0.4-0.8-1-1-1.7s-0.4-1.5-0.5-2.4
			s-0.1-1.8-0.1-2.7c0-1.6,0-3.7,0.1-6.3c0-2.6,0.1-5.5,0.3-8.7s0.5-6.5,1-9.9s1-6.8,1.5-10.2s1.2-6.6,2.2-9.6
			c1-3.1,2.2-5.7,3.6-8.1c1.4-2.3,3-4.2,4.9-5.5c1.9-1.4,4-2,6.5-2c1.3,0,2.3,0.2,3.1,0.6s1.5,0.9,1.9,1.6c0.5,0.7,0.8,1.5,1,2.5
			s0.3,2,0.3,3.2c0,1.8-0.2,3.7-0.7,5.8c-0.5,2.1-1.1,4.4-2,6.7c-0.8,2.3-1.7,4.6-2.8,7c-1,2.4-2.1,4.7-3.2,6.9s-2.1,4.3-3.2,6.3
			c-1,2-2,3.7-2.8,5.2L523,67.3z M526.2,45.1c1.4-3.6,2.4-6.6,3-9.1s0.9-4.3,0.9-5.5c0-1.8-0.3-2.7-0.8-2.7c-0.6,0-1.5,1-2.7,3
			s-2.6,4.9-4.2,8.7c-0.4,1.3-0.8,2.6-1.1,4s-0.6,2.8-0.8,4.2s-0.4,2.7-0.6,4.1c-0.2,1.3-0.4,2.6-0.5,3.8c-0.5,2.8-0.9,5.5-1.2,8.2
			c0.6-1.5,1.3-3.1,2.1-4.8s1.5-3.5,2.2-5.2s1.4-3.3,2.1-4.8C525.2,47.4,525.8,46.2,526.2,45.1z"/>
	</g>
	<g>
		<g>
			<g>
				<g>
					<path class="st0" d="M138,88.6c-4.8,0-7.2-0.8-9.6-1.5c-2.4-0.7-4.6-1.5-9.1-1.5c-4.6,0-6.8,0.7-9.1,1.5
						c-2.4,0.7-4.8,1.5-9.6,1.5c-4.8,0-7.2-0.8-9.6-1.5c-2.3-0.7-4.6-1.5-9.1-1.5c-4.6,0-6.8,0.7-9.1,1.5c-2.4,0.7-4.8,1.5-9.6,1.5
						s-7.2-0.8-9.6-1.5c-2.3-0.7-4.6-1.5-9.1-1.5c-4.6,0-6.8,0.7-9.1,1.5c-2.4,0.7-4.8,1.5-9.6,1.5s-7.2-0.8-9.6-1.5
						c-2.3-0.7-4.6-1.5-9.1-1.5c-0.4,0-0.7-0.3-0.7-0.7c0-0.4,0.3-0.7,0.7-0.7c4.8,0,7.2,0.8,9.6,1.5c2.3,0.7,4.6,1.5,9.1,1.5
						c4.6,0,6.8-0.7,9.1-1.5c2.4-0.7,4.8-1.5,9.6-1.5s7.2,0.8,9.6,1.5c2.3,0.7,4.6,1.5,9.1,1.5c4.6,0,6.8-0.7,9.1-1.5
						c2.4-0.7,4.8-1.5,9.6-1.5c4.8,0,7.2,0.8,9.6,1.5c2.3,0.7,4.6,1.5,9.1,1.5c4.6,0,6.8-0.7,9.1-1.5c2.4-0.7,4.8-1.5,9.6-1.5
						s7.2,0.8,9.6,1.5c2.4,0.7,4.6,1.5,9.1,1.5c0.4,0,0.7,0.3,0.7,0.7C138.7,88.3,138.4,88.6,138,88.6z"/>
				</g>
			</g>
			<g>
				<g>
					<path class="st0" d="M63.8,70.4v-2.8c8.2-1.3,17.6-2.6,25.7-3.9c-6.4-10.8-15.4-21.8-25.7-32.6v-4.9c0-0.3-0.2-0.5-0.5-0.5
						s-0.5,0.2-0.5,0.5v6C58,45.3,49.6,58.5,39.6,71.6c7.7-1.2,15.5-2.4,23.2-3.6v2.5l-21.9,2.7c-3.2,0.4-6.2,1.8-8.6,4.1
						c-0.9,0.9-0.4,2.5,0.9,2.5h38.5c4.4,0,8.8-1,12.8-2.9l25-12L63.8,70.4z M63.8,66.1c0-0.9,0-1.7,0-2.5V40c0.1-2,0.2-3.9,0-5.9
						v-1.3c2.3,11.1,1.9,22.6,0,33.7V66.1z"/>
				</g>
				<g>
					<g>
						<path class="st0" d="M31.3,79.3c-1.7,0.4-3.5,0.5-5.7,0.5c-4.6,0-6.8-0.7-9.1-1.5c-2.4-0.7-4.8-1.5-9.6-1.5
							c-0.4,0-0.7,0.3-0.7,0.7c0,0.4,0.3,0.7,0.7,0.7c4.6,0,6.8,0.7,9.1,1.5c2.4,0.7,4.8,1.5,9.6,1.5c2.4,0,4.5-0.2,6.4-0.6
							c0.3-0.1,0.6-0.1,0.8-0.2C32.2,80.3,31.6,79.9,31.3,79.3z"/>
					</g>
					<g>
						<path class="st0" d="M137.9,79.8c-4.6,0-6.8-0.7-9.1-1.5c-2.4-0.7-4.8-1.5-9.6-1.5s-7.2,0.8-9.6,1.5s-4.6,1.5-9.1,1.5
							c-3.6,0-5.8-0.4-7.9-1.1c-0.4-0.1-0.8-0.2-1.2-0.4c-1.6-0.5-3.2-1-5.6-1.3l-0.9,0.4c-0.6,0.3-1.3,0.6-1.9,0.8
							c3.8,0.1,5.8,0.7,8,1.4c0.4,0.1,0.8,0.3,1.2,0.4c2,0.6,4.4,1.1,8.4,1.1c4.8,0,7.2-0.8,9.6-1.5s4.6-1.5,9.1-1.5
							s6.8,0.7,9.1,1.5c2.4,0.7,4.8,1.5,9.6,1.5c0.4,0,0.7-0.3,0.7-0.7C138.7,80.1,138.3,79.8,137.9,79.8z"/>
					</g>
				</g>
			</g>
		</g>
		<g>
			<path class="st0" d="M38.4,48.7c-0.7-0.2-1.2-0.2-1.7-0.2l0.1-0.1c0.5-0.9-0.7-1-1.7-0.1l0,0c-0.9-0.4-2.2-0.8-3.8-0.6
				c-3.6,0.5-6.5,3.1-5.6,3.2c0.8,0.1,2.8-1.5,5.7-1.3c1.6,0.1,2.4,0.6,2.7,0.8c-0.2,0.6-0.4,1.2-0.5,1.8c-0.2,0.9-0.1,1.5-0.1,1.5
				s0.9-1.3,1.8-2.7c0.6-0.2,1.6-0.3,2.7-0.3c3,0.2,4.7,3,5.5,2.8C44.2,53.5,42.2,49.6,38.4,48.7z"/>
		</g>
		<g>
			<path class="st0" d="M97.7,27.4c-0.3,0-0.9,0.3-1.4,0.8c-1,1-2.6,2.5-3.7,3c-1,0.4-1.7,1.1-2.1,1.6c-0.5-0.5-0.8-0.6-1-0.5
				s-0.3,0.5-0.2,1.1c-0.6,0.1-1.6,0.4-2.5,1c-1.5,0.9-5.3,0.6-4.8,1.4c0.5,0.8,2.9,1.2,4.9,0.7c1.5-0.3,3.3-0.3,4-0.2
				c0.2,0.1,0.5,0.3,0.7,0.5c0.8,0.9,0.6,2,1.3,1.4c0.3-0.2,0.4-0.2,0.7-1c0.2-0.6-0.5-0.4-1.3-1.4c0.3-0.8,0.9-1.9,1.9-2.7
				c1.1-0.8,3.3-3.5,3.9-4.9C98.4,27.3,98.4,27.3,97.7,27.4z"/>
		</g>
	</g>
</g>
</svg>
