<?xml version="1.0" encoding="utf-8"?>
<!-- Generator: Adobe Illustrator 24.3.0, SVG Export Plug-In . SVG Version: 6.00 Build 0)  -->
<svg version="1.1" id="Layer_1" xmlns="http://www.w3.org/2000/svg" xmlns:xlink="http://www.w3.org/1999/xlink" x="0px" y="0px"
	 viewBox="0 0 95.57 100" style="enable-background:new 0 0 95.57 100;" xml:space="preserve">
<style type="text/css">
	.st0{fill:#0D051A;}
	.st1{fill:#7A8921;}
	.st2{fill:#778720;}
	.st3{fill:#7A8920;}
	.st4{fill:#DB7D47;}
	.st5{fill:#FE5C01;}
	.st6{fill:#FF6900;}
	.st7{fill:#798821;}
	.st8{fill:#F46B0C;}
	.st9{fill:#FF7700;}
	.st10{fill:#FC7F03;}
	.st11{fill:#E17D21;}
	.st12{fill:#F78207;}
	.st13{fill:#FE8901;}
	.st14{fill:#FF8500;}
	.st15{fill:#C77422;}
	.st16{fill:#FC8A03;}
	.st17{fill:#FE8C01;}
	.st18{fill:#7B8829;}
	.st19{fill:#181A07;}
	.st20{fill:#F58D06;}
	.st21{fill:#FFF0C9;}
	.st22{fill:#EC9027;}
	.st23{fill:#100613;}
	.st24{fill:#FD9703;}
	.st25{fill:#DA982B;}
	.st26{fill:#FE9700;}
	.st27{fill:#CE8635;}
	.st28{fill:#798820;}
	.st29{fill:#99764E;}
	.st30{fill:#FE9C01;}
	.st31{fill:#0D0719;}
	.st32{fill:#7D582C;}
	.st33{fill:#FD9B05;}
	.st34{fill:#D2993D;}
	.st35{fill:#2A1103;}
	.st36{fill:#FFA500;}
	.st37{fill:#4B4246;}
	.st38{fill:#798921;}
	.st39{fill:#FEAB01;}
	.st40{fill:#FEEFCA;}
	.st41{fill:#FEB401;}
	.st42{fill:#E7C053;}
	.st43{fill:#FEB400;}
	.st44{fill:#FCBB04;}
	.st45{fill:#F8B90E;}
	.st46{fill:#7C572C;}
	.st47{fill:#7C8542;}
	.st48{fill:#F2BD0F;}
	.st49{fill:#0167B1;}
	.st50{fill:#1397E1;}
	.st51{fill:#F9FEFE;}
	.st52{fill:#FAFEFE;}
	.st53{fill:#FCFEFD;}
	.st54{fill:#278FC9;}
	.st55{fill:#2686B8;}
	.st56{fill:#1B89C7;}
	.st57{fill:#F4FEFF;}
	.st58{fill:#2A8CBF;}
	.st59{fill:#2890CA;}
	.st60{fill:#FAFDFD;}
</style>
<g>
	<g>
		<g>
			<path class="st0" d="M59.31,7.33C61.88,4.57,65.64,3.17,69.35,3c-0.43,0.41-0.99,0.66-1.42,1.08c-2.65,2.35-3.86,5.92-4.18,9.36
				c1.04-1.52,2.35-2.88,3.96-3.8c3.19-1.86,7.05-2.36,10.68-1.94c-2.96,1.23-5.78,2.88-8.15,5.06c-1.94,1.79-3.62,3.95-4.5,6.46
				c1.05-1.19,2.16-2.37,3.49-3.27c2.6-1.84,5.88-2.76,9.05-2.34c3.49,0.41,6.74,2.46,8.61,5.43c-2.27-1.2-4.91-1.59-7.44-1.27
				c-3.17,0.39-6.17,1.66-8.86,3.35c-0.11,0.07-0.28,0.14-0.22,0.3c0.28-0.23,0.66-0.19,0.99-0.25c2.8-0.31,5.74,0.28,8.11,1.84
				c2.15,1.38,3.76,3.58,4.4,6.05c0.32,1.16,0.42,2.37,0.38,3.57c-1.43-1.81-3.44-3.13-5.66-3.78c-1.32-0.4-2.69-0.55-4.06-0.62
				c-0.93-0.37-1.87-0.71-2.85-0.89c-0.78-0.2-1.58-0.25-2.38-0.27c0.04,0.34,0.41,0.32,0.65,0.43c2.5,0.81,4.69,2.41,6.42,4.38
				c2.1,2.46,3.42,5.57,3.68,8.8c0.11,2.24-0.31,4.54-1.38,6.53c-0.29,0.54-0.62,1.05-0.96,1.57c-0.24-1.16-0.41-2.35-0.83-3.47
				c-0.84-2.36-2.27-4.51-4.09-6.22c-0.5-0.47-1.01-0.95-1.62-1.28c0.05,1.63-0.09,3.27-0.43,4.86c-0.06,0.32-0.14,0.67-0.01,0.99
				c0.41,1.2,0.87,2.39,1.35,3.57c0.85,2.08,1.8,4.12,2.79,6.14c1.56,3.17,3.23,6.3,4.97,9.38c1.03,1.83,2.08,3.63,3.15,5.44
				c0.04,0.08,0.13,0.22,0.18,0.3c0.73,0.07,1.49,0,2.2,0.25c-0.57,1.8-1.18,3.59-1.96,5.31L83.36,74
				c-0.44-0.57-0.72-1.26-1.23-1.77c-0.73,0.06-1.43,0.3-2.15,0.37c0.6-0.36,1.24-0.63,1.83-1.02c-1.07-1.57-1.99-3.24-3.08-4.79
				c-0.79-0.04-1.56,0.33-2.36,0.33c0.66-0.35,1.34-0.66,1.97-1.06c-2.92-4.78-5.73-9.64-8.16-14.68c-0.45,0.04-0.89,0.13-1.32,0.25
				c3.26,8.4,6.93,16.64,10.78,24.79c0.41,0.79,0.74,1.62,1.2,2.39c-2.89,4.59-6.76,8.56-11.26,11.58
				c-5.01,3.37-10.82,5.55-16.81,6.29c-5.94,0.75-12.05,0.13-17.7-1.84c1.36-1.57,3.48-1.99,5.4-2.47c2.61-0.61,5.21-1.46,7.45-2.98
				c1.55-1.01,2.91-2.29,4.11-3.69c1.75-2.16,3.7-4.28,6.23-5.52c2.53-1.28,5.4-1.5,8.14-2.07c0.98-0.22,2.01-0.35,2.9-0.86
				c0.48-0.27,0.93-0.59,1.37-0.92c0.91-0.71,1.89-1.35,2.72-2.16c-3.53-0.07-7.07-0.01-10.61-0.03c-4.72,0-9.44-0.01-14.17,0.01
				c0,0.13,0.01,0.39,0.01,0.52c-0.44-0.19-0.85-0.53-1.35-0.53c-5.95,0.01-11.9,0-17.86,0.01c-1.46,0.15-2.93,0.08-4.39,0.09
				c-4.15,0-8.3,0.01-12.44,0c-0.01,0.06-0.04,0.18-0.05,0.24c-0.06-0.11-0.11-0.23-0.17-0.34c5.26,0.02,10.53,0,15.79,0.01
				c0.26,0.04,0.5-0.07,0.7-0.22c1.19-0.71,2.42-1.37,3.68-1.94c1.59-0.78,3.37-1.01,5.1-1.26c0.88-0.09,1.76-0.25,2.66-0.21
				c0.06-0.16,0.07-0.35-0.09-0.46c-1.55-1.56-2.7-3.64-2.75-5.87c-0.07-2.1,0.8-4.11,2.05-5.75c-2.17-0.31-4.36,0.45-6.18,1.61
				c0.33-1.06,0.76-2.1,1.37-3.04c-2-0.67-4.15-0.79-6.23-0.54c0.34,0.24,0.66,0.5,0.96,0.79c-0.67-0.22-1.33-0.5-2.04-0.58
				c-0.72,0.05-1.38,0.34-2.06,0.57c0.28-0.29,0.59-0.54,0.89-0.8c-2.34-0.25-4.76-0.06-6.96,0.82c2.07-2.1,5.44-2.48,8.11-1.4
				c2.42-1,5.38-0.73,7.49,0.86c1.01-1.5,2.42-2.75,4.11-3.41c0.24-0.09,0.48-0.18,0.72-0.26c0.89-0.04,1.84,0.04,2.64-0.41
				c0.03-0.01,0.09-0.04,0.13-0.06c-0.08-0.15-0.16-0.3-0.24-0.45c-0.09-0.17-0.18-0.35-0.27-0.52c-0.6-1.27-1.01-2.64-1.05-4.04
				c-0.09-1.52,0.33-3,0.95-4.37c-0.19-1.66-0.13-3.37,0.38-4.98c0.66-2.17,2.01-4.12,3.77-5.55c1.71-1.44,3.76-2.44,5.9-3.08
				c0.09-0.07,0.26-0.21,0.35-0.29c-3.25,0.28-6.47,1.26-9.23,3.01c-1.78,0.84-3.44,1.99-4.75,3.47c-0.19,0.16-0.34,0.36-0.43,0.6
				c-0.05,0.01-0.14,0.03-0.19,0.04c-0.04-0.34-0.1-0.67-0.16-1c-0.07-1.88-0.19-3.79,0.31-5.63c0.49-1.95,1.52-3.74,2.93-5.17
				c1.6-1.58,3.61-2.7,5.74-3.39c0.24-0.02,0.18-0.34,0.02-0.43c-0.58-0.55-1.26-0.99-1.96-1.37c-0.08-0.05-0.25-0.13-0.34-0.18
				c-1.94-0.96-4.09-1.45-6.25-1.55c2.61-2.06,5.81-3.5,9.17-3.65c2.98-0.11,6.01,0.78,8.4,2.57C55.8,13.25,56.95,9.83,59.31,7.33z
				 M62.76,6.55c-2.39,1.97-4.19,4.67-5.02,7.66c-0.77,2.7-0.68,5.58-0.08,8.31c0.8-0.24,1.58-0.54,2.38-0.75
				c-0.74-2.91-0.99-6.07-0.01-8.96c-0.15,2.74,0.17,5.5,0.94,8.14c0.27-1.73,0.67-3.48,1.63-4.98c-0.49,0.11-0.95,0.29-1.44,0.37
				c0.25-2.2,0.78-4.44,2.05-6.29c-0.43,0.13-0.85,0.25-1.29,0.34c0.31-1.51,0.78-3.01,1.62-4.32C63.22,6.14,62.99,6.36,62.76,6.55z
				 M67.31,11.89c-1.67,1.51-2.85,3.62-3.01,5.88c0.93-1.26,1.69-2.66,2.72-3.86c1.65-2.1,3.84-3.69,6.06-5.15
				C70.96,9.35,68.95,10.41,67.31,11.89z M71.34,16.22c-2.07,0.95-3.84,2.55-4.98,4.52c0.33,0.15,0.65,0.31,0.98,0.48
				c1.43-1.19,3.08-2.12,4.82-2.77c0.57-0.22,1.17-0.31,1.73-0.57c-0.88-0.16-1.79-0.15-2.68-0.11c2.82-1.79,6.3-2.05,9.55-1.94
				c-0.55-0.27-1.17-0.33-1.77-0.46C76.44,14.97,73.72,15.12,71.34,16.22z M42.91,16.53c2.35,0.88,4.69,1.93,6.57,3.62
				c1.74,0.18,3.5,0.43,5.13,1.12c-1.39-2.15-3.77-3.38-6.12-4.19c2.21,0.05,4.38,0.6,6.5,1.2c-0.15-0.18-0.32-0.34-0.52-0.46
				C51.11,15.6,46.66,15.07,42.91,16.53z M45.8,23.89c-2.29,1.19-4.21,3.03-5.59,5.2c-0.59,0.99-1.17,2.04-1.34,3.2
				c0.74-0.29,1.5-0.55,2.21-0.89c0.39-0.57,0.65-1.22,1.08-1.77c1.18-1.58,2.66-2.99,4.44-3.84c-1.22,1.27-2.54,2.59-3.06,4.32
				c0.82-0.24,1.63-0.5,2.44-0.77c0.18-0.04,0.26-0.21,0.37-0.34c1.16-1.64,2.7-3.04,4.51-3.93c-1,1.06-2.07,2.13-2.53,3.55
				c1.03-0.25,2.06-0.51,3.07-0.83c0.91-0.88,1.8-1.91,3.03-2.34c-0.35,0.61-0.77,1.18-1.06,1.83c1,0.12,2,0.18,3,0.31
				c0.28-1.16,0.32-2.52,1.26-3.38c-1.15-0.73-2.47-1.13-3.8-1.36C51.15,22.44,48.26,22.63,45.8,23.89z M60.63,23.55
				c-1.04,0.24-1.72,1.19-2.01,2.16c-0.53,1.86-0.23,3.84,0.31,5.66c0.18,0.51,0.28,1.06,0.6,1.51c0.13-1.27,0.67-2.48,1.43-3.49
				c0.18,0.77,0.02,1.59,0.11,2.38c0.21,3.18,0.91,6.37,2.28,9.25c0.22-0.96,0.61-1.88,1.21-2.65c0.27,3.52,1.12,7.14,3.29,10
				c0.63-4.81,0.3-9.75-1.02-14.42c-0.66-2.36-1.67-4.61-2.86-6.76c1.46,0.95,2.16,2.64,2.97,4.11c-0.32-2.26-1.01-4.61-2.57-6.34
				C63.46,23.93,62.02,23.28,60.63,23.55z M70.26,23.68c1.94,0.87,3.93,1.68,5.69,2.91c-0.27-0.56-0.68-1.03-0.98-1.57
				c2.78,0.59,5.38,1.85,7.72,3.45c-1.05-1.52-2.57-2.68-4.2-3.51C75.97,23.66,73.04,23.35,70.26,23.68z M69.17,29.05
				c0.3,0.79,0.46,1.63,0.77,2.42c0.73,0.48,1.52,0.87,2.26,1.36c1.89,1.15,3.45,2.86,4.35,4.89c-1.7-1.77-3.78-3.29-6.19-3.89
				c0.09,0.6-0.01,1.22,0.11,1.81c3.2,1.74,5.98,4.51,7.12,8.03c0.19,0.47,0.19,1.01,0.47,1.43c0.63-2.52,0.64-5.21-0.05-7.72
				c-0.75-2.82-2.52-5.4-5.05-6.9C71.78,29.8,70.51,29.23,69.17,29.05z M49.93,33.34c-2.4,1.86-4.25,4.45-5.12,7.36
				c-0.06-0.21-0.1-0.43-0.06-0.64c0.14-1.56,0.54-3.11,1.32-4.48c0.22-0.39,0.52-0.73,0.71-1.14c-1.31,0.73-2.35,1.93-2.91,3.32
				c-0.9,2.14-0.75,4.56-0.27,6.78c0.03,0,0.1,0.02,0.13,0.02c1.09-2.4,2.47-4.69,4.07-6.79c0.96-1.17,1.95-2.38,3.24-3.19
				c-0.47,0.85-1.07,1.67-1.26,2.64c1.48-1.79,3.14-3.47,5.14-4.68c-0.12,0.58-0.58,1-0.79,1.54c1.14-0.5,2.29-0.97,3.45-1.41
				c-0.19-0.89-0.31-1.79-0.28-2.7C54.63,30.53,52.09,31.67,49.93,33.34z M53.47,40.01c-0.82,2.78-0.5,5.81,0.55,8.48
				c0.56,1.33,1.22,2.65,2.17,3.74c-0.32-1.85-0.34-3.76,0.13-5.59c0.74-2.98,2.42-5.65,4.58-7.81c-0.74-0.47-1.72-0.65-2.52-0.21
				c-1.24,0.72-1.99,2.02-2.59,3.27c-0.24,0.03-0.44-0.06-0.51-0.3c0.88-2.4,2.22-4.58,3.7-6.65c-0.32-0.34-0.64-0.69-0.94-1.04
				C55.86,35.32,54.19,37.52,53.47,40.01z M46.32,42.82c-0.58,0.96-1.04,1.99-1.47,3.03c0.27,0.59,0.46,1.24,0.9,1.73
				c-0.05-1.4,0.28-2.81,0.94-4.04c1.09-1.97,2.81-3.57,4.78-4.62c-0.12,0.18-0.25,0.36-0.36,0.54c-0.82,1.57-1.64,3.2-1.98,4.95
				c-0.53,1.73-0.5,3.58-0.2,5.35c0.04,0.07,0.11,0.2,0.15,0.27c0.14-0.2,0.15-0.51,0.02-0.72c0.17-0.46,0.21-0.96,0.28-1.44
				c0.24-0.64,0.39-1.32,0.73-1.91l-0.03-0.14c0.05-0.04,0.16-0.12,0.21-0.15l-0.06-0.12c0.27-0.24,0.41-0.61,0.65-0.88
				c0.03-0.06,0.08-0.18,0.11-0.24c-0.05-1.9,0.19-3.81,0.87-5.59c0.23-0.52,0.52-1,0.86-1.45C49.95,38.21,47.76,40.37,46.32,42.82z
				 M47,45.83c-0.23,1.34-0.02,2.8,0.7,3.97c-0.03-1.79-0.14-3.6,0.33-5.35c0.23-1.01,0.66-1.96,0.94-2.96
				C48.04,42.79,47.25,44.24,47,45.83z M42.23,48.2c0.28,2.64,1.72,5.03,3.68,6.78c0.41-0.38,0.66-0.9,1.05-1.31
				c-1.49-1.26-2.79-2.82-3.44-4.69c1.06,1.37,2.13,2.77,3.56,3.8c-0.45-1.03-0.92-2.07-0.99-3.21c-0.24,0.21-0.42,0.46-0.65,0.68
				c-0.46-0.85-0.88-1.73-1.1-2.67c-0.23,0.39-0.26,0.85-0.37,1.28c-0.05-0.04-0.14-0.11-0.19-0.15c-0.59-1.06-1.06-2.18-1.42-3.34
				C42.08,46.28,42.16,47.26,42.23,48.2z M49.96,50.66c0.25-0.05,0.49-0.09,0.74-0.14c0.2-0.82,0.57-1.57,0.9-2.34
				c-0.15-0.73-0.34-1.45-0.47-2.18C50.17,47.33,49.89,49.04,49.96,50.66z M65.52,50.43c-0.81,0.47-1.77,0.59-2.68,0.33
				c-0.42-0.22-0.78-0.56-1.18-0.79c-1.17,0.06-2.31,0.48-3.33,1.04c-0.25,0.48-0.18,1.06-0.25,1.58c3.03,0.23,5.94,1.84,7.65,4.36
				c0.86,1.36,1.36,2.95,1.32,4.56c-0.43-0.32-0.75-0.75-1.17-1.08c-1.85-1.5-4.24-2.4-6.63-2.33c0.78,0.96,1.3,2.08,1.85,3.18
				c0.61,0.56,1.37,0.92,2.01,1.44l0.2-0.03l-0.1,0.07c3.52,2.17,7.2,4.06,10.96,5.77c-1.09-2.4-2.13-4.82-3.2-7.23
				c-0.62-1.53-1.3-3.04-1.93-4.56c-0.95-2.28-1.92-4.56-2.83-6.87C65.94,50.02,65.68,50.18,65.52,50.43z M53.73,53.07
				c-0.25,0.05-0.18,0.43,0.08,0.28C54.07,53.31,54,52.89,53.73,53.07z M57.96,53.39c-0.03,0.52-0.06,1.04-0.07,1.56
				c1.46-0.06,2.99,0.19,4.23,1.02c-1.39-0.33-2.86-0.34-4.25,0.02c-0.01,0.39,0,0.77,0.02,1.16c2.17-0.24,4.46,0.02,6.37,1.13
				c0.55,0.3,1,0.74,1.53,1.07c-0.49-1.31-1.28-2.49-2.25-3.49C62.07,54.4,60.07,53.36,57.96,53.39z M35.54,57.41
				c1.39-0.23,2.77-0.65,4.19-0.58c0.35-0.02,0.73,0.13,1.06-0.07c0.75-0.42,1.52-0.84,2.36-1.08c0.19-0.07,0.41-0.09,0.54-0.26
				c-1.54-0.51-3.2-0.31-4.73,0.1c0.67-0.5,1.45-0.82,2.21-1.16c0.52-0.27,1.13-0.33,1.59-0.69C39.91,53.6,37.21,55.15,35.54,57.41z
				 M47.96,54.4c-0.62,0.75-0.4,1.84,0.05,2.62c0.7,1.22,1.77,2.23,3,2.91c-0.43-0.76-0.62-1.63-0.58-2.5
				c1.55,2.2,3.52,4.13,5.86,5.49c-0.29-0.59-0.45-1.24-0.42-1.9c0.48,0.43,0.87,0.94,1.34,1.38c1.23,1.2,2.7,2.17,4.32,2.75
				c-1.54-3.04-3.82-5.7-6.52-7.77c-1.14-0.9-2.43-1.58-3.7-2.25c1.04-0.07,1.95,0.52,2.87,0.91c-0.15-0.36-0.48-0.57-0.77-0.81
				c-0.88-0.7-1.87-1.34-3-1.53C49.53,53.51,48.58,53.77,47.96,54.4z M41.32,58.56c-1.81,1.82-2.5,4.52-2.3,7.03
				c0.09,0.67,0.14,1.4,0.52,1.98c0.29-0.46,0.59-0.91,0.87-1.37c-0.33-1.7,0-3.47,0.7-5.03c-0.01,1.12-0.24,2.26,0.06,3.36
				c0.48-0.38,0.84-0.92,1.13-1.45c0.03-1.4,0.22-2.87,1-4.07c-0.26,0.92-0.26,1.9-0.1,2.84c0.57-0.35,0.91-0.99,1.35-1.49
				c0.27-0.82,0.23-1.78,0.78-2.49c0.06,0.44,0.09,0.87,0.1,1.31c0.66-0.18,1.2-0.65,1.81-0.95c-0.35-0.73-0.78-1.49-0.65-2.32
				C44.57,56.09,42.75,57.18,41.32,58.56z M45.5,66.53c-0.06,1.16,0.23,2.3,0.45,3.42c-0.77-1.27-1.35-2.71-1.29-4.22
				c-0.36,0.55-0.42,1.24-0.45,1.89c0.03,1.95,1.26,3.65,2.7,4.86c-0.18-0.96-0.24-1.94-0.41-2.9c0-1.1-0.03-2.2,0.01-3.31
				c0.21-0.69,0.17-1.46,0.51-2.12c0.11,0.59,0.02,1.25,0.32,1.79c0.21-1.49,0.29-3.1,1.07-4.42c0.02,0.36,0.03,0.72,0.06,1.08
				c0.52-0.63,0.88-1.39,1.37-2.05c-0.45-0.41-0.86-0.85-1.21-1.34C46.79,61.18,45.59,63.81,45.5,66.53z M41.78,66.01
				c-0.06,0.1-0.17,0.3-0.22,0.4c-0.67,1.26-1.04,2.68-1.09,4.11c1.13-0.24,2.31-0.1,3.46-0.24c-0.75-1.66-0.89-3.6-0.37-5.35
				c0.45-1.74,1.46-3.27,2.6-4.64C44.3,61.84,42.65,63.74,41.78,66.01z M50.52,61.07c-0.76,2.11-0.6,4.54,0.58,6.46
				c1.23,2.02,3.27,3.58,5.55,4.18c-0.74-0.75-1.41-1.59-1.85-2.56c-0.98-2.03-1.1-4.35-0.8-6.55c-0.47,0.09-0.99,0.21-1.27,0.64
				c-0.59,0.87-0.45,1.99-0.31,2.97c0.08,0.7,0.41,1.34,0.42,2.05c-1.17-2.14-1.34-4.62-1.39-7.01
				C51.15,61.16,50.84,61.1,50.52,61.07z M48.47,65.87c-0.65,1.2-0.89,2.58-0.86,3.93c1.02-0.08,2.02-0.32,3.04-0.47
				c-0.82-1.27-1.65-2.67-1.61-4.23C48.77,65.29,48.62,65.59,48.47,65.87z M63.39,66.53c1.32,0.93,2.72,1.76,4.09,2.62
				c2.78,1.73,5.6,3.4,8.44,5.03c0.35,0.2,0.7,0.44,1.09,0.55c-0.51-1.08-1-2.17-1.5-3.25c-0.14-0.41-0.62-0.44-0.96-0.58
				c-0.33,0.33-0.62,0.7-1,0.98c0.15-0.4,0.36-0.79,0.56-1.16c-3.32-1.51-6.68-2.95-9.88-4.72C63.87,65.72,63.48,66.22,63.39,66.53z
				 M61.08,66.49c-0.03,0.34-0.08,0.67-0.13,1.01c0.51,0.02,1.01,0.09,1.52,0.04c0.11,0.11,0.27,0.12,0.42,0.16
				c-0.18-0.15-0.38-0.3-0.59-0.41C61.92,66.98,61.47,66.77,61.08,66.49z"/>
		</g>
	</g>
	<g>
		<path class="st1" d="M62.76,6.55c0.23-0.2,0.47-0.41,0.78-0.48c-0.84,1.31-1.31,2.81-1.62,4.32c0.44-0.09,0.86-0.22,1.29-0.34
			c-1.27,1.86-1.79,4.09-2.05,6.29c0.49-0.09,0.96-0.27,1.44-0.37c-0.95,1.49-1.36,3.25-1.63,4.98c-0.77-2.63-1.09-5.39-0.94-8.14
			c-0.98,2.89-0.73,6.05,0.01,8.96c-0.81,0.21-1.58,0.51-2.38,0.75c-0.6-2.72-0.69-5.6,0.08-8.31C58.56,11.22,60.36,8.53,62.76,6.55
			z"/>
		<path class="st1" d="M49.93,33.34c2.15-1.66,4.7-2.8,7.36-3.35c-0.03,0.91,0.09,1.81,0.28,2.7c-1.16,0.44-2.31,0.91-3.45,1.41
			c0.21-0.54,0.67-0.97,0.79-1.54c-2,1.21-3.66,2.89-5.14,4.68c0.2-0.97,0.8-1.79,1.26-2.64c-1.29,0.82-2.28,2.02-3.24,3.19
			c-1.6,2.1-2.97,4.38-4.07,6.79c-0.03,0-0.1-0.02-0.13-0.02c-0.48-2.23-0.62-4.64,0.27-6.78c0.57-1.39,1.6-2.59,2.91-3.32
			c-0.2,0.41-0.5,0.75-0.71,1.14c-0.77,1.37-1.18,2.92-1.32,4.48c-0.04,0.21,0.01,0.43,0.06,0.64
			C45.69,37.79,47.53,35.19,49.93,33.34z"/>
		<path class="st1" d="M41.32,58.56c1.42-1.38,3.24-2.47,5.25-2.65c-0.13,0.84,0.31,1.6,0.65,2.32c-0.61,0.3-1.15,0.77-1.81,0.95
			c-0.01-0.44-0.04-0.88-0.1-1.31c-0.56,0.71-0.51,1.67-0.78,2.49c-0.44,0.5-0.78,1.14-1.35,1.49c-0.16-0.94-0.16-1.92,0.1-2.84
			c-0.78,1.2-0.96,2.67-1,4.07c-0.28,0.53-0.65,1.07-1.13,1.45c-0.31-1.1-0.07-2.24-0.06-3.36c-0.69,1.57-1.03,3.34-0.7,5.03
			c-0.28,0.47-0.58,0.91-0.87,1.37c-0.38-0.58-0.43-1.31-0.52-1.98C38.82,63.08,39.51,60.38,41.32,58.56z"/>
	</g>
	<g>
		<path class="st2" d="M67.31,11.89c1.64-1.48,3.65-2.54,5.77-3.12c-2.22,1.46-4.41,3.04-6.06,5.15c-1.02,1.2-1.79,2.59-2.72,3.86
			C64.46,15.51,65.64,13.4,67.31,11.89z"/>
	</g>
	<g>
		<path class="st3" d="M71.34,16.22c2.38-1.09,5.1-1.25,7.66-0.83c0.59,0.13,1.21,0.19,1.77,0.46c-3.25-0.12-6.74,0.14-9.55,1.94
			c0.89-0.04,1.79-0.05,2.68,0.11c-0.55,0.25-1.16,0.34-1.73,0.57c-1.75,0.65-3.39,1.58-4.82,2.77c-0.32-0.17-0.65-0.33-0.98-0.48
			C67.49,18.77,69.27,17.17,71.34,16.22z"/>
		<path class="st3" d="M42.91,16.53c3.74-1.46,8.2-0.93,11.55,1.29c0.2,0.12,0.37,0.29,0.52,0.46c-2.12-0.6-4.29-1.16-6.5-1.2
			c2.35,0.81,4.74,2.03,6.12,4.19c-1.63-0.68-3.39-0.93-5.13-1.12C47.6,18.46,45.26,17.41,42.91,16.53z"/>
		<path class="st3" d="M45.8,23.89c2.46-1.27,5.34-1.45,8.04-1.04c1.33,0.23,2.65,0.63,3.8,1.36c-0.94,0.87-0.99,2.22-1.26,3.38
			c-1-0.13-2-0.2-3-0.31c0.29-0.65,0.7-1.22,1.06-1.83c-1.23,0.43-2.12,1.46-3.03,2.34c-1.01,0.32-2.05,0.57-3.07,0.83
			c0.46-1.42,1.54-2.5,2.53-3.55c-1.81,0.89-3.35,2.29-4.51,3.93c-0.1,0.13-0.19,0.3-0.37,0.34c-0.8,0.27-1.62,0.53-2.44,0.77
			c0.52-1.72,1.84-3.05,3.06-4.32c-1.79,0.85-3.27,2.26-4.44,3.84c-0.43,0.55-0.7,1.2-1.08,1.77c-0.72,0.34-1.47,0.6-2.21,0.89
			c0.17-1.16,0.75-2.2,1.34-3.2C41.59,26.93,43.52,25.08,45.8,23.89z"/>
		<path class="st3" d="M60.63,23.55c1.39-0.28,2.83,0.38,3.75,1.4c1.56,1.74,2.24,4.08,2.57,6.34c-0.82-1.47-1.52-3.16-2.97-4.11
			c1.19,2.14,2.2,4.39,2.86,6.76c1.32,4.67,1.65,9.61,1.02,14.42c-2.17-2.85-3.02-6.48-3.29-10c-0.6,0.78-0.99,1.7-1.21,2.65
			c-1.37-2.89-2.06-6.07-2.28-9.25c-0.09-0.79,0.07-1.6-0.11-2.38c-0.77,1.02-1.3,2.22-1.43,3.49c-0.32-0.45-0.42-1-0.6-1.51
			c-0.54-1.82-0.84-3.8-0.31-5.66C58.91,24.74,59.6,23.79,60.63,23.55z"/>
		<path class="st3" d="M69.17,29.05c1.34,0.18,2.62,0.76,3.78,1.43c2.53,1.5,4.3,4.08,5.05,6.9c0.69,2.51,0.68,5.19,0.05,7.72
			c-0.28-0.43-0.28-0.97-0.47-1.43c-1.14-3.52-3.92-6.29-7.12-8.03c-0.12-0.59-0.03-1.21-0.11-1.81c2.41,0.6,4.49,2.12,6.19,3.89
			c-0.9-2.03-2.46-3.74-4.35-4.89c-0.73-0.49-1.52-0.88-2.26-1.36C69.62,30.68,69.47,29.84,69.17,29.05z"/>
		<path class="st3" d="M53.47,40.01c0.73-2.5,2.39-4.69,4.56-6.12c0.31,0.35,0.62,0.7,0.94,1.04c-1.48,2.07-2.82,4.26-3.7,6.65
			c-0.32,1.04-0.74,2.12-0.62,3.22c0.34-0.99,0.69-1.97,1.13-2.92c0.6-1.25,1.35-2.55,2.59-3.27c0.8-0.44,1.77-0.26,2.52,0.21
			c-2.15,2.16-3.84,4.84-4.58,7.81c-0.47,1.83-0.44,3.74-0.13,5.59c-0.95-1.09-1.61-2.41-2.17-3.74
			C52.97,45.82,52.65,42.8,53.47,40.01z"/>
		<path class="st3" d="M47.96,54.4c0.62-0.63,1.58-0.88,2.44-0.72c1.13,0.19,2.12,0.83,3,1.53c0.28,0.24,0.61,0.45,0.77,0.81
			c-0.92-0.39-1.83-0.98-2.87-0.91c1.28,0.67,2.57,1.35,3.7,2.25c2.7,2.07,4.98,4.74,6.52,7.77c-1.63-0.57-3.09-1.55-4.32-2.75
			c-0.47-0.44-0.86-0.95-1.34-1.38c-0.03,0.66,0.13,1.31,0.42,1.9c-2.34-1.36-4.31-3.29-5.86-5.49c-0.04,0.87,0.16,1.74,0.58,2.5
			c-1.23-0.68-2.3-1.69-3-2.91C47.55,56.24,47.34,55.15,47.96,54.4z"/>
	</g>
	<g>
		<path class="st4" d="M44.17,19.25c0.08,0.05,0.25,0.13,0.34,0.18c-0.83-0.01-1.65,0.12-2.46,0.31c-0.85-0.02-1.67,0.25-2.51,0.3
			c0.16-0.09,0.33-0.16,0.51-0.19C41.41,19.57,42.79,19.37,44.17,19.25z"/>
	</g>
	<g>
		<path class="st5" d="M44.51,19.43c0.7,0.38,1.38,0.82,1.96,1.37c0.16,0.09,0.22,0.4-0.02,0.43c-2.13,0.69-4.14,1.81-5.74,3.39
			c0.09-0.26,0.18-0.53,0.26-0.8c-0.08-0.1-0.15-0.21-0.23-0.31c0.1-0.03,0.3-0.1,0.4-0.14c-0.22-0.07-0.43-0.14-0.65-0.2
			c-0.08,0.15-0.17,0.3-0.26,0.45c-0.93-0.23-1.89-0.13-2.84-0.14c-1.88,0.04-3.76-0.09-5.63,0.1c-0.38-0.05-0.68-0.33-1.01-0.5
			c2.21-1.14,4.57-1.98,6.97-2.64c0.6-0.14,1.19-0.37,1.81-0.4c0.85-0.05,1.66-0.32,2.51-0.3C42.85,19.55,43.67,19.42,44.51,19.43z"
			/>
	</g>
	<g>
		<path class="st6" d="M30.01,23.41c0.24-0.11,0.47-0.3,0.74-0.34c0.33,0.17,0.63,0.45,1.01,0.5c1.87-0.19,3.75-0.06,5.63-0.1
			c0.95,0.02,1.91-0.08,2.84,0.14c0.09-0.15,0.17-0.3,0.26-0.45c0.22,0.06,0.44,0.12,0.65,0.2c-0.1,0.03-0.3,0.1-0.4,0.14
			c0.08,0.1,0.15,0.21,0.23,0.31c-0.08,0.27-0.16,0.54-0.26,0.8c-1.41,1.43-2.44,3.23-2.93,5.17c-0.5,1.83-0.38,3.75-0.31,5.63
			c-0.49-1.37-0.06-2.86-0.27-4.27c-0.04,0.08-0.13,0.25-0.17,0.33c-0.31,0.1-0.63,0.16-0.95,0.12c-4.52,0.03-9.04,0-13.57,0.02
			c-0.43,0.05-0.68-0.4-1.06-0.47c-0.18,0.21-0.33,0.44-0.48,0.67c-0.15-0.21-0.29-0.41-0.44-0.62c-0.15,0.12-0.29,0.24-0.43,0.36
			c-0.04-0.21-0.11-0.41-0.24-0.59C22.79,27.9,26.25,25.36,30.01,23.41z"/>
	</g>
	<g>
		<path class="st7" d="M70.26,23.68c2.79-0.33,5.71-0.02,8.23,1.28c1.64,0.82,3.16,1.99,4.2,3.51c-2.33-1.6-4.94-2.86-7.72-3.45
			c0.29,0.54,0.7,1.01,0.98,1.57C74.19,25.36,72.2,24.54,70.26,23.68z"/>
		<path class="st7" d="M42.23,48.2c-0.07-0.94-0.16-1.92,0.12-2.83c0.36,1.16,0.83,2.28,1.42,3.34c0.05,0.04,0.14,0.11,0.19,0.15
			c0.11-0.43,0.14-0.89,0.37-1.28c0.22,0.94,0.64,1.82,1.1,2.67c0.23-0.21,0.41-0.47,0.65-0.68c0.07,1.14,0.54,2.18,0.99,3.21
			c-1.42-1.02-2.5-2.43-3.56-3.8c0.65,1.86,1.95,3.42,3.44,4.69c-0.38,0.41-0.63,0.93-1.05,1.31C43.95,53.23,42.51,50.84,42.23,48.2
			z"/>
		<path class="st7" d="M45.5,66.53c0.08-2.72,1.29-5.35,3.14-7.32c0.35,0.49,0.77,0.93,1.21,1.34c-0.49,0.66-0.85,1.41-1.37,2.05
			c-0.03-0.36-0.04-0.72-0.06-1.08c-0.78,1.32-0.86,2.93-1.07,4.42c-0.3-0.54-0.22-1.19-0.32-1.79c-0.34,0.66-0.3,1.42-0.51,2.12
			c-0.2,0.31-0.28,0.67-0.25,1.04c0.03,0.76-0.08,1.56,0.24,2.27c0.17,0.96,0.23,1.94,0.41,2.9c-1.44-1.21-2.66-2.91-2.7-4.86
			c0.03-0.64,0.09-1.33,0.45-1.89c-0.07,1.51,0.51,2.95,1.29,4.22C45.73,68.82,45.44,67.69,45.5,66.53z"/>
	</g>
	<g>
		<path class="st8" d="M69.3,27.1c0.8,0.02,1.6,0.07,2.38,0.27c0.64,0.25,1.11,0.78,1.65,1.2c1.17,1.08,2.42,2.11,3.38,3.39
			c-0.08-0.01-0.26-0.04-0.34-0.05c-1.73-1.97-3.92-3.57-6.42-4.38C69.71,27.42,69.33,27.44,69.3,27.1z"/>
	</g>
	<g>
		<path class="st9" d="M42.99,32.31c2.76-1.75,5.99-2.73,9.23-3.01c-0.09,0.07-0.26,0.21-0.35,0.29c-2.14,0.64-4.19,1.64-5.9,3.08
			c-1.75,1.43-3.1,3.38-3.77,5.55c-0.19-0.05-0.38-0.1-0.57-0.16c-0.03,0.24-0.05,0.48-0.08,0.72c-0.34-0.32-0.8-0.38-1.23-0.5
			c0.28-0.08,0.56-0.15,0.84-0.22c-1.21-0.06-2.43-0.07-3.63,0.01c0.22,0.07,0.43,0.15,0.65,0.22c-1.36,0.09-2.73,0.03-4.09,0.04
			c-6.26,0.01-12.53,0-18.79,0c-0.26,0-0.5,0.1-0.73,0.18c-0.11-0.04-0.23-0.09-0.34-0.13c0.99-1.83,2.25-3.5,3.54-5.12
			c0.68-0.78,1.33-1.59,2.08-2.31c0.13,0.17,0.2,0.38,0.24,0.59c0.14-0.12,0.28-0.24,0.43-0.36c0.15,0.21,0.29,0.41,0.44,0.62
			c0.15-0.23,0.3-0.46,0.48-0.67c0.39,0.07,0.64,0.52,1.06,0.47c4.52-0.01,9.05,0.02,13.57-0.02c0.32,0.05,0.64-0.02,0.95-0.12
			c0.04-0.08,0.13-0.25,0.17-0.33c0.21,1.41-0.21,2.9,0.27,4.27c0.06,0.33,0.12,0.67,0.16,1c0.05-0.01,0.14-0.03,0.19-0.04
			c0.34,0.04,0.63-0.27,0.43-0.6C39.56,34.3,41.21,33.16,42.99,32.31z"/>
	</g>
	<g>
		<path class="st10" d="M76.37,31.91c0.08,0.01,0.26,0.04,0.34,0.05l0.1,0.01c2.46,2.75,4.58,5.83,6.14,9.18
			c0.09,0.35,0.21,0.83-0.27,0.94c0.01-0.27,0.09-0.55,0.03-0.82c-0.23-0.27-0.63-0.34-0.97-0.34c-0.43,0.26-0.69,0.7-0.91,1.13
			c-0.05-0.32-0.13-0.67-0.49-0.75c-0.04-0.32-0.07-0.63-0.11-0.95c-0.05,0.09-0.14,0.26-0.18,0.35
			C79.79,37.48,78.46,34.37,76.37,31.91z"/>
	</g>
	<g>
		<path class="st11" d="M37.81,36.38c0.09-0.23,0.24-0.44,0.43-0.6C38.44,36.11,38.16,36.42,37.81,36.38z"/>
	</g>
	<g>
		<path class="st12" d="M46.32,42.82c1.44-2.45,3.63-4.6,6.41-5.43c-0.34,0.45-0.63,0.93-0.86,1.45c-0.1,0.02-0.3,0.05-0.4,0.07
			c-1.97,1.05-3.7,2.65-4.78,4.62C46.56,43.29,46.44,43.06,46.32,42.82z"/>
	</g>
	<g>
		<path class="st13" d="M71.16,37.84c0.61,0.33,1.12,0.8,1.62,1.28c1.82,1.72,3.25,3.86,4.09,6.22c0.11,0.68-0.35,1.22-0.47,1.85
			c-0.61,0.16-0.63-0.58-0.82-0.97c-0.12,0.36-0.17,0.73-0.18,1.11c-0.51,0.01-0.98,0.39-1.49,0.2c-0.17-0.39,0.31-0.57,0.58-0.73
			c-0.03-0.05-0.08-0.16-0.11-0.22c-0.43-0.1-0.88-0.09-1.24,0.19c0.08,0.11,0.15,0.23,0.23,0.34c-0.37-0.05-0.73-0.12-1.08-0.23
			c-0.07,0.13-0.14,0.25-0.21,0.38c-0.48-1.18-0.94-2.37-1.35-3.57c-0.13-0.32-0.05-0.67,0.01-0.99
			C71.07,41.1,71.21,39.47,71.16,37.84z"/>
	</g>
	<g>
		<path class="st14" d="M37.54,38.07c1.21-0.08,2.42-0.07,3.63-0.01c-0.28,0.08-0.56,0.14-0.84,0.22c0.43,0.12,0.89,0.18,1.23,0.5
			c0.03-0.24,0.05-0.48,0.08-0.72c0.19,0.05,0.38,0.1,0.57,0.16c-0.5,1.61-0.57,3.31-0.38,4.98c-0.63,1.37-1.05,2.85-0.95,4.37
			c-0.31-0.38-0.75-0.62-1.14-0.9c-1.05-0.75-2.17-1.39-3.35-1.9c0.92-0.53,1.86,0.27,2.82,0.08c0.07,0.01,0.2,0.03,0.27,0.03
			c-0.65-0.63-1.49-1.02-2.37-1.22c0.13-0.01,0.38-0.04,0.51-0.06c-0.65-0.36-1.42-0.27-2.13-0.26c-0.43,0.05-0.91,0.01-1.27,0.29
			c0.09,0.02,0.27,0.05,0.37,0.07c-0.19,0.05-0.37,0.11-0.56,0.17c-1.59-0.57-3.28-0.71-4.94-0.87c-4.02-0.18-8.07,0.85-11.51,2.94
			c-0.62-0.16-1.07,0.35-1.56,0.63c-0.68,0.38-1.07,1.1-1.76,1.45c0.01-0.16,0.02-0.33,0.03-0.49c-0.38,0.04-0.46,0.44-0.6,0.74
			c-0.28-0.26-0.63-0.3-0.99-0.21c-0.02,0.1-0.07,0.29-0.09,0.39c-0.09-0.06-0.17-0.13-0.26-0.18c-0.47,0.07-0.96-0.31-1.37,0.09
			c0.28,0.32,0.58,0.68,0.49,1.14c-0.22-0.25-0.41-1.01-0.83-0.58c0.04-0.42,0.05-0.85,0.07-1.28c0.12-1.15,0.75-2.2,0.73-3.37
			c0.66-2.07,1.74-3.98,2.75-5.9l0.06,0.02c0.11,0.04,0.23,0.08,0.34,0.13c0.24-0.08,0.48-0.18,0.73-0.18c6.26,0,12.53,0,18.79,0
			c1.36-0.01,2.73,0.05,4.09-0.04C37.98,38.22,37.76,38.14,37.54,38.07z"/>
	</g>
	<g>
		<path class="st15" d="M51.47,38.91c0.1-0.02,0.3-0.05,0.4-0.07c-0.68,1.78-0.92,3.69-0.87,5.59c-0.03,0.06-0.08,0.18-0.11,0.24
			c0.06-1.33-0.15-2.71,0.27-4c0.13-0.4-0.08-0.8-0.06-1.21C51.22,39.27,51.34,39.09,51.47,38.91z"/>
	</g>
	<g>
		<path class="st16" d="M49.13,44.4c0.33-1.75,1.16-3.37,1.98-4.95c-0.03,0.41,0.18,0.81,0.06,1.21c-0.42,1.29-0.21,2.67-0.27,4
			c-0.24,0.27-0.37,0.64-0.65,0.88c-0.04,0.07-0.11,0.21-0.15,0.28l0.03,0.14c-0.35,0.59-0.5,1.27-0.73,1.91
			c-0.13,0.16-0.26,0.31-0.4,0.47c-0.05-0.99-0.13-2,0.11-2.98C49.19,45.05,49.18,44.72,49.13,44.4z"/>
	</g>
	<g>
		<path class="st17" d="M80.23,40.37c0.04,0.31,0.07,0.63,0.11,0.95c0.36,0.08,0.44,0.43,0.49,0.75c0.22-0.43,0.48-0.88,0.91-1.13
			c0.34,0,0.74,0.07,0.97,0.34c0.06,0.27-0.02,0.55-0.03,0.82c0.48-0.11,0.36-0.59,0.27-0.94c0.89,1.74,1.59,3.58,2.15,5.45
			c-0.06,0.44-0.19,0.89-0.51,1.21c-0.67,0.2-1.47,0.44-2.1,0.02c-0.74,0.41-1.62,0.19-2.43,0.19c-0.05-0.41-0.14-0.89-0.64-0.93
			c-0.04,0.26-0.07,0.51-0.1,0.77c-0.22-0.21-0.44-0.41-0.66-0.62c1.07-1.99,1.49-4.28,1.38-6.53
			C80.09,40.63,80.18,40.45,80.23,40.37z"/>
	</g>
	<g>
		<path class="st18" d="M47,45.83c0.25-1.59,1.04-3.04,1.97-4.34c-0.28,1-0.71,1.94-0.94,2.96c-0.47,1.74-0.36,3.56-0.33,5.35
			C46.98,48.63,46.77,47.17,47,45.83z"/>
	</g>
	<g>
		<path class="st19" d="M54.65,44.8c-0.12-1.1,0.3-2.18,0.62-3.22c0.08,0.25,0.27,0.33,0.51,0.3C55.34,42.83,54.99,43.82,54.65,44.8
			z"/>
	</g>
	<g>
		<path class="st20" d="M46.32,42.82c0.12,0.24,0.24,0.48,0.36,0.72c-0.66,1.23-0.99,2.64-0.94,4.04c-0.44-0.48-0.63-1.14-0.9-1.73
			C45.27,44.81,45.74,43.78,46.32,42.82z"/>
	</g>
	<g>
		<g>
			<path class="st21" d="M17.58,45.93c3.44-2.09,7.49-3.12,11.51-2.94c1.66,0.16,3.35,0.3,4.94,0.87c-0.07,0.02-0.21,0.06-0.28,0.08
				c-1.9-0.75-4.3-0.48-5.76,1.02c1.58-0.64,3.31-0.75,4.99-0.59c-0.22,0.17-0.44,0.35-0.64,0.54c0.48-0.12,0.94-0.32,1.44-0.38
				c0.49,0.06,0.95,0.26,1.43,0.38c-0.21-0.19-0.43-0.36-0.65-0.54c0.3-0.02,0.61-0.04,0.91-0.05c0.31,0.14,0.6,0.3,0.92,0.43
				c1.18,0.51,2.3,1.16,3.35,1.9c0.39,0.28,0.83,0.52,1.14,0.9c0.05,1.4,0.46,2.77,1.05,4.04c-0.11,0.02-0.33,0.05-0.44,0.06
				c-3.15,0.21-6.29,0.51-9.43,0.8c0.7,0.19,1.43,0.16,2.15,0.26c0.99,0.09,1.98,0.19,2.97,0.24c0.57,0.21,1.26,0,1.77,0.34
				c-1.69,0.66-3.1,1.91-4.11,3.41c-2.11-1.59-5.07-1.85-7.49-0.86c-2.67-1.08-6.04-0.7-8.11,1.4c2.2-0.88,4.62-1.07,6.96-0.82
				c-0.31,0.26-0.61,0.51-0.89,0.8c0.67-0.23,1.34-0.52,2.06-0.57c0.71,0.08,1.37,0.36,2.04,0.58c-0.3-0.29-0.62-0.55-0.96-0.79
				c2.08-0.25,4.23-0.13,6.23,0.54c-0.61,0.94-1.04,1.98-1.37,3.04c1.81-1.16,4-1.92,6.18-1.61c-1.26,1.64-2.13,3.66-2.05,5.75
				c0.06,2.24,1.21,4.31,2.75,5.87c0.16,0.11,0.15,0.3,0.09,0.46c-0.89-0.04-1.77,0.12-2.66,0.21c-1.73,0.24-3.51,0.48-5.1,1.26
				c-1.26,0.58-2.49,1.23-3.68,1.94c-5.51,0.03-11.02,0-16.54,0.02c-0.5-0.73-0.7-1.61-1.07-2.41c-1.59-4.35-2.46-8.98-2.37-13.62
				c0.06-0.89-0.39-1.78-0.06-2.66c0.19,0.44-0.01,0.92,0.12,1.36c0.23-0.06,0.16-0.33,0.2-0.51l0.05-0.04l0.05,0.02
				C10.71,51.87,13.8,48.28,17.58,45.93z M12.8,51.95c1.57-0.52,3.24-0.71,4.89-0.54c-0.18,0.18-0.36,0.36-0.54,0.55
				c0.48-0.13,0.94-0.34,1.44-0.38c0.48,0.07,0.92,0.28,1.4,0.36c-0.21-0.17-0.41-0.34-0.62-0.52c1.65-0.17,3.34-0.03,4.9,0.55
				c-1.44-1.48-3.84-1.74-5.7-0.97C16.68,50.25,14.32,50.51,12.8,51.95z"/>
		</g>
		<path class="st21" d="M61,67.41c0.43-0.06,0.86-0.12,1.29-0.13c0.21,0.11,0.41,0.25,0.59,0.41c-0.14-0.04-0.31-0.05-0.42-0.16
			C62.07,67.17,61.48,67.45,61,67.41z"/>
	</g>
	<g>
		<path class="st22" d="M34.23,43.62c0.35-0.28,0.84-0.23,1.27-0.29c0.71,0,1.48-0.1,2.13,0.26c-0.13,0.02-0.38,0.05-0.51,0.06
			c-0.83-0.15-1.69-0.14-2.52,0.04C34.5,43.67,34.32,43.64,34.23,43.62z"/>
	</g>
	<g>
		<path class="st23" d="M28,44.96c1.46-1.5,3.86-1.77,5.76-1.02c0.07-0.02,0.21-0.06,0.28-0.08c0.18-0.06,0.37-0.12,0.56-0.17
			c0.83-0.18,1.69-0.19,2.52-0.04c0.88,0.2,1.72,0.59,2.37,1.22c-0.07-0.01-0.2-0.03-0.27-0.03c-1.19-0.44-2.47-0.57-3.73-0.5
			c-0.31,0-0.61,0.02-0.91,0.05c0.22,0.17,0.44,0.35,0.65,0.54c-0.48-0.12-0.94-0.32-1.43-0.38c-0.5,0.05-0.96,0.26-1.44,0.38
			c0.2-0.19,0.42-0.37,0.64-0.54C31.31,44.21,29.58,44.33,28,44.96z"/>
	</g>
	<g>
		<path class="st24" d="M10.11,48.28c0.39-1.35,0.73-2.74,1.32-4.02c0.03,1.17-0.6,2.22-0.73,3.37c-0.03,0.43-0.03,0.85-0.07,1.28
			c0.42-0.43,0.61,0.33,0.83,0.58c0.09-0.47-0.21-0.82-0.49-1.14c0.41-0.4,0.9-0.02,1.37-0.09c0.09,0.06,0.17,0.12,0.26,0.18
			c0.02-0.1,0.07-0.29,0.09-0.39c0.36-0.09,0.71-0.05,0.99,0.21c0.14-0.29,0.21-0.69,0.6-0.74c-0.01,0.16-0.02,0.33-0.03,0.49
			c0.7-0.35,1.09-1.08,1.76-1.45c0.49-0.28,0.94-0.8,1.56-0.63c-3.79,2.35-6.87,5.94-8.36,10.16l-0.05-0.02
			c-0.18-0.13-0.24-0.3-0.2-0.51C9.08,53.1,9.52,50.67,10.11,48.28z"/>
	</g>
	<g>
		<path class="st25" d="M35.48,44.33c1.26-0.06,2.54,0.07,3.73,0.5c-0.96,0.2-1.89-0.6-2.82-0.08
			C36.08,44.63,35.78,44.47,35.48,44.33z"/>
		<path class="st25" d="M48.93,49.76c-0.3-1.77-0.33-3.63,0.2-5.35c0.05,0.32,0.05,0.64-0.03,0.96c-0.24,0.98-0.16,1.99-0.11,2.98
			c0.13-0.16,0.27-0.31,0.4-0.47c-0.08,0.48-0.12,0.98-0.28,1.44C49.03,49.45,48.97,49.6,48.93,49.76z"/>
		<path class="st25" d="M62.84,50.76c0.91,0.26,1.86,0.14,2.68-0.33c-0.05,0.08-0.15,0.24-0.2,0.32
			C64.54,51.03,63.54,51.38,62.84,50.76z"/>
		<path class="st25" d="M32.07,52.47c3.14-0.29,6.28-0.6,9.43-0.8c-1.57,0.54-3.25,0.25-4.86,0.53c-0.75,0.17-1.52,0.14-2.27,0.31
			c0.33,0.06,0.66,0.12,0.99,0.17c-0.38,0.02-0.76,0.04-1.14,0.05C33.5,52.63,32.77,52.66,32.07,52.47z"/>
	</g>
	<g>
		<path class="st26" d="M76.87,45.34c0.42,1.12,0.59,2.3,0.83,3.47c0.33-0.51,0.67-1.03,0.96-1.57c0.22,0.2,0.44,0.41,0.66,0.62
			c0.03-0.26,0.07-0.51,0.1-0.77c0.5,0.04,0.58,0.52,0.64,0.93c0.8-0.01,1.69,0.22,2.43-0.19c0.63,0.42,1.43,0.18,2.1-0.02
			c0.32-0.32,0.44-0.77,0.51-1.21c0.86,2.66,1.36,5.44,1.58,8.22c-0.09-0.07-0.27-0.22-0.36-0.29c-0.05-0.43-0.12-0.86-0.22-1.28
			c-0.16,0.15-0.32,0.3-0.48,0.45c-0.23-0.15-0.44-0.31-0.65-0.48c-0.27,0.18-0.57,0.35-0.91,0.32c-2.31-0.02-4.61,0.02-6.92-0.02
			c-0.02-0.08-0.07-0.24-0.09-0.33c-0.51,0.12-1.02,0.44-1.56,0.25c-0.08-0.17-0.12-0.36-0.17-0.54c-0.07,0.01-0.22,0.03-0.29,0.05
			c-0.04,0.11-0.13,0.34-0.17,0.45c-0.98-2.02-1.93-4.06-2.79-6.14c0.07-0.13,0.13-0.26,0.21-0.38c0.35,0.12,0.71,0.18,1.08,0.23
			c-0.08-0.11-0.15-0.23-0.23-0.34c0.36-0.28,0.82-0.28,1.24-0.19c0.03,0.05,0.08,0.16,0.11,0.22c-0.27,0.16-0.75,0.33-0.58,0.73
			c0.51,0.19,0.98-0.18,1.49-0.2c0.02-0.38,0.06-0.75,0.18-1.11c0.18,0.39,0.21,1.12,0.82,0.97C76.53,46.56,76.99,46.02,76.87,45.34
			z"/>
	</g>
	<g>
		<path class="st27" d="M50.09,45.83c0.04-0.07,0.11-0.21,0.15-0.28l0.06,0.12C50.25,45.71,50.15,45.79,50.09,45.83z"/>
	</g>
	<g>
		<path class="st28" d="M49.96,50.66c-0.08-1.61,0.21-3.33,1.17-4.66c0.12,0.74,0.31,1.46,0.47,2.18c-0.32,0.77-0.7,1.52-0.9,2.34
			C50.46,50.57,50.21,50.61,49.96,50.66z"/>
	</g>
	<g>
		<path class="st29" d="M48.93,49.76c0.04-0.16,0.1-0.3,0.17-0.44c0.13,0.2,0.12,0.52-0.02,0.72
			C49.04,49.96,48.97,49.82,48.93,49.76z"/>
	</g>
	<g>
		<path class="st30" d="M65.52,50.43c0.17-0.25,0.42-0.41,0.68-0.54c0.91,2.3,1.88,4.58,2.83,6.87c-0.05,0.07-0.15,0.22-0.2,0.29
			c-0.04-0.03-0.13-0.09-0.17-0.12c-0.07,0.03-0.14,0.07-0.21,0.11c-0.13-0.2-0.27-0.39-0.42-0.57c-0.08,0.24-0.17,0.49-0.28,0.72
			c-0.04-0.15-0.07-0.3-0.1-0.45c-0.31,0.02-0.61-0.04-0.87-0.19c-0.36,0.1-0.75,0.16-1.05,0.39c-1.71-2.52-4.62-4.14-7.65-4.36
			c0.07-0.52-0.01-1.11,0.25-1.58c1.02-0.56,2.16-0.98,3.33-1.04c0.4,0.24,0.75,0.57,1.18,0.79c0.7,0.62,1.7,0.27,2.48-0.01
			C65.37,50.66,65.47,50.51,65.52,50.43z"/>
	</g>
	<g>
		<path class="st31" d="M12.8,51.95c1.51-1.45,3.87-1.71,5.78-0.95c1.86-0.76,4.26-0.5,5.7,0.97c-1.56-0.58-3.25-0.72-4.9-0.55
			c0.2,0.18,0.41,0.35,0.62,0.52c-0.48-0.07-0.92-0.29-1.4-0.36c-0.5,0.04-0.96,0.25-1.44,0.38c0.18-0.18,0.36-0.37,0.54-0.55
			C16.05,51.24,14.38,51.43,12.8,51.95z"/>
	</g>
	<g>
		<path class="st32" d="M68.85,51.63c0.43-0.12,0.87-0.21,1.32-0.25c2.43,5.05,5.25,9.9,8.16,14.68c-0.63,0.4-1.31,0.71-1.97,1.06
			c0.8,0,1.57-0.37,2.36-0.33c1.09,1.55,2,3.23,3.08,4.79c-0.58,0.39-1.23,0.65-1.83,1.02c0.73-0.07,1.43-0.32,2.15-0.37
			c0.5,0.51,0.78,1.21,1.23,1.77c0.03,0.24-0.16,0.44-0.23,0.66c-0.7,1.42-1.42,2.83-2.3,4.15c-0.46-0.76-0.8-1.6-1.2-2.39
			C75.78,68.28,72.11,60.04,68.85,51.63z"/>
	</g>
	<g>
		<path class="st33" d="M41.5,51.67c0.11-0.02,0.33-0.05,0.44-0.06c0.08,0.18,0.17,0.35,0.27,0.52c-0.09,0.11-0.18,0.23-0.26,0.34
			c-0.86-0.01-1.69,0.2-2.51,0.44c-0.73,0.23-1.49-0.07-2.24,0.06c-0.99-0.04-1.98-0.14-2.97-0.24c0.38-0.01,0.76-0.03,1.14-0.05
			c-0.33-0.05-0.66-0.11-0.99-0.17c0.75-0.17,1.52-0.14,2.27-0.31C38.25,51.92,39.93,52.21,41.5,51.67z"/>
	</g>
	<g>
		<path class="st34" d="M41.94,52.47c0.09-0.11,0.18-0.23,0.26-0.34c0.08,0.15,0.16,0.3,0.24,0.45c-0.03,0.01-0.09,0.04-0.13,0.06
			c-0.9-0.03-1.79,0.12-2.64,0.41c-0.24,0.08-0.48,0.16-0.72,0.26c-0.5-0.33-1.2-0.13-1.77-0.34c0.75-0.12,1.5,0.17,2.24-0.06
			C40.24,52.67,41.08,52.46,41.94,52.47z"/>
	</g>
	<g>
		<path class="st35" d="M39.67,53.04c0.85-0.29,1.74-0.44,2.64-0.41C41.51,53.08,40.56,53,39.67,53.04z"/>
	</g>
	<g>
		<path class="st36" d="M75.04,52.95c0.07-0.01,0.22-0.03,0.29-0.05c0.05,0.18,0.08,0.37,0.17,0.54c0.54,0.19,1.05-0.13,1.56-0.25
			c0.02,0.08,0.06,0.24,0.09,0.33c2.31,0.04,4.61,0,6.92,0.02c0.34,0.02,0.63-0.15,0.91-0.32c0.21,0.17,0.42,0.33,0.65,0.48
			c0.16-0.15,0.32-0.3,0.48-0.45c0.1,0.42,0.18,0.85,0.22,1.28c0.09,0.07,0.27,0.22,0.36,0.29c0.03,2.2,0.08,4.42-0.03,6.62
			c-0.12,0.3-0.23,0.6-0.31,0.91c-0.04-0.04-0.11-0.11-0.15-0.15c-0.26,0.45-0.8,0.31-1.23,0.28c-0.87-0.1-1.75-0.02-2.63-0.07
			c0.05-0.06,0.15-0.18,0.2-0.24c0.88-0.11,1.79,0.13,2.65-0.13c-0.95-0.13-1.91-0.07-2.86-0.06c-0.39-0.07-0.54,0.34-0.71,0.61
			c-0.25-0.06-0.5-0.14-0.74-0.23c-0.1,0.13-0.21,0.25-0.31,0.38c-0.15-0.16-0.31-0.32-0.45-0.48c-0.09,0.17-0.18,0.34-0.27,0.52
			c-1.74-3.08-3.41-6.2-4.97-9.38C74.9,53.29,74.99,53.06,75.04,52.95z"/>
	</g>
	<g>
		<path class="st37" d="M53.73,53.07c0.27-0.17,0.35,0.24,0.08,0.28C53.54,53.5,53.48,53.12,53.73,53.07z"/>
	</g>
	<g>
		<path class="st38" d="M57.96,53.39c2.11-0.03,4.11,1.01,5.58,2.48c0.97,1,1.77,2.18,2.25,3.49c-0.53-0.33-0.98-0.77-1.53-1.07
			c-1.91-1.12-4.2-1.37-6.37-1.13c-0.03-0.39-0.03-0.77-0.02-1.16c1.38-0.36,2.86-0.36,4.25-0.02c-1.23-0.83-2.76-1.08-4.23-1.02
			C57.9,54.43,57.94,53.91,57.96,53.39z"/>
		<path class="st38" d="M35.54,57.41c1.67-2.26,4.37-3.81,7.22-3.73c-0.46,0.36-1.08,0.43-1.59,0.69c-0.76,0.34-1.54,0.67-2.21,1.16
			c1.54-0.41,3.19-0.62,4.73-0.1c-0.13,0.17-0.36,0.19-0.54,0.26c-0.84,0.23-1.61,0.65-2.36,1.08c-0.32,0.19-0.71,0.05-1.06,0.07
			C38.3,56.75,36.93,57.17,35.54,57.41z"/>
		<path class="st38" d="M50.52,61.07c0.31,0.03,0.63,0.09,0.93,0.17c0.05,2.39,0.21,4.87,1.39,7.01c-0.02-0.7-0.35-1.35-0.42-2.05
			c-0.14-0.98-0.28-2.1,0.31-2.97c0.28-0.43,0.8-0.55,1.27-0.64c-0.3,2.2-0.18,4.52,0.8,6.55c0.44,0.97,1.11,1.8,1.85,2.56
			c-2.28-0.6-4.33-2.16-5.55-4.18C49.92,65.61,49.77,63.17,50.52,61.07z"/>
	</g>
	<g>
		<path class="st39" d="M65.73,56.95c0.3-0.24,0.69-0.29,1.05-0.39c0.27,0.15,0.57,0.21,0.87,0.19c0.03,0.15,0.07,0.3,0.1,0.45
			c0.11-0.23,0.2-0.48,0.28-0.72c0.15,0.18,0.29,0.37,0.42,0.57c0.07-0.04,0.14-0.07,0.21-0.11c0.04,0.03,0.13,0.09,0.17,0.12
			c0.05-0.07,0.15-0.22,0.2-0.29c0.63,1.53,1.31,3.03,1.93,4.56c-0.03,0.26-0.08,0.52-0.11,0.77c-0.68,0.03-1.3,0.41-1.98,0.37
			c-1.13-0.03-2.26,0.03-3.39-0.03c-0.06-0.17-0.12-0.34-0.18-0.51c-0.45,0.11-0.91,0.08-1.36,0.15c-0.26,0.16-0.37,0.48-0.64,0.63
			l-0.2,0.03c-0.64-0.53-1.4-0.88-2.01-1.44c-0.55-1.09-1.08-2.22-1.85-3.18c2.39-0.07,4.78,0.83,6.63,2.33
			c0.42,0.32,0.75,0.76,1.17,1.08C67.09,59.9,66.58,58.3,65.73,56.95z"/>
	</g>
	<g>
		<path class="st40" d="M41.78,66.01c0.87-2.27,2.52-4.17,4.38-5.71c-1.14,1.36-2.15,2.89-2.6,4.64c-0.53,1.75-0.38,3.68,0.37,5.35
			c-1.15,0.14-2.33-0.01-3.46,0.24c0.05-1.43,0.42-2.84,1.09-4.11c0.48,0.19,1,0.25,1.51,0.2c0.3-0.12,0.29-0.65,0-0.79
			C42.63,65.87,42.21,65.96,41.78,66.01z"/>
	</g>
	<g>
		<path class="st41" d="M70.96,61.32c1.07,2.41,2.11,4.83,3.2,7.23c-3.76-1.71-7.44-3.61-10.96-5.77l0.1-0.07
			c0.27-0.15,0.38-0.47,0.64-0.63c0.45-0.08,0.91-0.04,1.36-0.15c0.06,0.17,0.12,0.34,0.18,0.51c1.13,0.06,2.26,0,3.39,0.03
			c0.69,0.04,1.3-0.34,1.98-0.37C70.89,61.83,70.93,61.57,70.96,61.32z"/>
	</g>
	<g>
		<path class="st42" d="M86.34,62.35c0.07-0.31,0.19-0.62,0.31-0.91c0.11,0.92-0.16,1.82-0.24,2.73c-0.25,1.55-0.58,3.09-1.04,4.59
			c-0.7-0.24-1.47-0.18-2.2-0.25c-0.05-0.08-0.14-0.22-0.18-0.3c0.71,0.39,1.54,0.25,2.31,0.21c0.15-0.76,0.37-1.5,0.59-2.24
			c0.17-0.55,0.07-1.15,0.25-1.7C86.34,63.79,86.35,63.07,86.34,62.35z"/>
	</g>
	<g>
		<path class="st43" d="M81.61,62.58c0.17-0.26,0.32-0.68,0.71-0.61c0.95-0.01,1.91-0.07,2.86,0.06c-0.86,0.27-1.77,0.02-2.65,0.13
			c-0.05,0.06-0.15,0.18-0.2,0.24c0.88,0.05,1.76-0.03,2.63,0.07c0.43,0.04,0.97,0.18,1.23-0.28c0.04,0.04,0.11,0.11,0.15,0.15
			c0.02,0.71,0.01,1.44-0.21,2.13c-0.18,0.55-0.08,1.14-0.25,1.7c-0.22,0.74-0.44,1.48-0.59,2.24c-0.77,0.04-1.6,0.18-2.31-0.21
			c-1.06-1.8-2.12-3.61-3.15-5.44c0.09-0.18,0.18-0.35,0.27-0.52c0.15,0.16,0.3,0.32,0.45,0.48c0.1-0.13,0.21-0.26,0.31-0.38
			C81.11,62.44,81.36,62.52,81.61,62.58z"/>
	</g>
	<g>
		<path class="st44" d="M48.47,65.87c0.16-0.28,0.3-0.58,0.57-0.77c-0.03,1.56,0.79,2.96,1.61,4.23c-1.01,0.14-2.02,0.39-3.04,0.47
			C47.58,68.45,47.82,67.07,48.47,65.87z"/>
	</g>
	<g>
		<path class="st45" d="M41.78,66.01c0.43-0.06,0.85-0.14,1.28-0.19c0.29,0.14,0.31,0.67,0,0.79c-0.51,0.05-1.03,0-1.51-0.2
			C41.61,66.32,41.72,66.11,41.78,66.01z"/>
	</g>
	<g>
		<path class="st46" d="M63.39,66.53c0.09-0.31,0.47-0.81,0.83-0.53c3.2,1.76,6.56,3.21,9.88,4.72c-0.21,0.38-0.41,0.76-0.56,1.16
			c0.37-0.28,0.67-0.65,1-0.98c0.35,0.14,0.83,0.17,0.96,0.58c0.5,1.08,0.99,2.17,1.5,3.25c-0.4-0.11-0.74-0.35-1.09-0.55
			c-2.84-1.63-5.66-3.3-8.44-5.03C66.11,68.29,64.71,67.46,63.39,66.53z"/>
	</g>
	<g>
		<path class="st47" d="M46.26,67.31c-0.02-0.37,0.06-0.73,0.25-1.04c-0.04,1.1-0.01,2.2-0.01,3.31
			C46.18,68.86,46.29,68.07,46.26,67.31z"/>
	</g>
	<g>
		<path class="st48" d="M61.08,66.49c0.39,0.28,0.84,0.48,1.22,0.8c-0.43,0-0.87,0.06-1.29,0.13c0.48,0.03,1.07-0.24,1.47,0.13
			c-0.51,0.05-1.01-0.02-1.52-0.04C61,67.16,61.04,66.83,61.08,66.49z"/>
	</g>
	<g>
		<path class="st49" d="M25.01,74.23c1.46-0.01,2.93,0.05,4.39-0.09c5.95-0.01,11.9,0,17.86-0.01c0.5,0,0.91,0.34,1.35,0.53
			c0-0.13-0.01-0.39-0.01-0.52c4.72-0.02,9.44,0,14.17-0.01c3.54,0.02,7.07-0.04,10.61,0.03c-0.83,0.81-1.81,1.45-2.72,2.16
			c-2.78-0.08-5.57,0.01-8.35-0.03C46,76.31,29.71,76.27,13.41,76.31c-0.3-0.62-0.66-1.2-0.89-1.84c0.01-0.06,0.04-0.18,0.05-0.24
			C16.72,74.23,20.87,74.23,25.01,74.23z"/>
	</g>
	<g>
		<g>
			<path class="st50" d="M13.41,76.31c16.29-0.04,32.58,0,48.88-0.02c2.78,0.04,5.57-0.04,8.35,0.03c-0.44,0.33-0.89,0.65-1.37,0.92
				c-0.89,0.51-1.92,0.64-2.9,0.86c-2.73,0.57-5.6,0.8-8.14,2.07c-2.53,1.24-4.49,3.36-6.23,5.52c-1.2,1.4-2.56,2.68-4.11,3.69
				c-2.23,1.52-4.84,2.37-7.45,2.98c-1.91,0.49-4.04,0.91-5.4,2.47C25.84,91.69,17.96,84.92,13.41,76.31z M39.89,79.05
				c-0.44-0.05-0.83-0.27-1.26-0.35l0.07,0.16c-0.83-0.4-1.66-0.83-2.43-1.34c-1.36,1.5-3.07,2.63-4.88,3.52
				c-2.32,1.13-4.79,1.92-7.3,2.48c4.2-0.35,8.34-1.38,12.21-3.06c0.59-0.3,1.19,0.16,1.77,0.29c5.31,1.65,11,2.38,16.51,1.47
				c-0.34-0.13-0.7-0.06-1.05-0.07c-4.4,0.06-8.8-0.8-12.88-2.44l0.21-0.02c-0.1-0.11-0.21-0.21-0.31-0.31
				c0.81-0.08,1.68,0.09,2.44-0.24l0.01-0.21c0.58-0.11,1.13-0.32,1.7-0.46c2.48,1.34,5.27,2.07,8.08,2.24
				c-0.38,0.01-0.8-0.06-1.14,0.15c1.36,0.12,2.75,0.13,4.11-0.01l-0.12-0.17c0.15-0.04,0.29-0.08,0.44-0.13
				c-3.96-0.19-7.95-1.37-11.15-3.75C43.45,77.96,41.65,78.55,39.89,79.05z M27.88,78.46c-3.07,1.77-6.58,2.59-10.06,3.05
				c1.95,0.36,3.96,0.37,5.94,0.28c1.75-0.11,3.47-0.5,5.16-0.94c-0.11,0.01-0.33,0.02-0.44,0.03c-0.08-0.32-0.45-0.18-0.68-0.17
				c-0.86,0.19-1.73,0.34-2.61,0.24c-0.05-0.07-0.15-0.2-0.2-0.26c1.25-0.37,2.42-0.96,3.62-1.46c1.84,0.09,3.75,0.16,5.49-0.56
				c-1.64,0.14-3.47-0.03-4.74-1.19C28.83,77.77,28.4,78.17,27.88,78.46z M28.15,83.85c0.07,0,0.2,0.01,0.26,0.01
				c0.05,0.03,0.16,0.1,0.22,0.14c0.99,0.09,1.99,0.02,2.98,0.02c0.36,0.01,0.72-0.08,1.06-0.18c-0.36-0.05-0.73-0.11-1.09-0.11
				c1.61-0.1,3.2-0.41,4.7-1c-0.56,0.02-1.12,0.05-1.68,0.04c0.54-0.48,1.25-0.77,1.69-1.36C33.76,82.72,30.93,83.32,28.15,83.85z
				 M20.44,81.94c0.56,0.22,1.17,0.11,1.76,0.14c0.63-0.03,1.29,0.07,1.9-0.15C22.89,81.92,21.66,81.82,20.44,81.94z M32.69,87.99
				c-0.67,0.11-1.36,0.04-2.02,0.19c3.8,0.48,7.74-0.18,11.16-1.92c0.18-0.09,0.38-0.2,0.59-0.11c1.45,0.44,3.01,0.82,4.52,0.46
				c-1.78-0.43-3.53-1.07-4.99-2.2C39.26,86.43,35.99,87.55,32.69,87.99z"/>
		</g>
	</g>
	<g>
		<path class="st51" d="M39.89,79.05c1.76-0.5,3.56-1.08,5.01-2.25c3.2,2.38,7.19,3.55,11.15,3.75c-0.15,0.05-0.29,0.09-0.44,0.13
			c-0.95,0.05-1.9,0.08-2.85,0.04c-2.81-0.17-5.6-0.89-8.08-2.24c-0.57,0.14-1.12,0.35-1.7,0.46
			C41.97,79.17,40.92,79.18,39.89,79.05z"/>
	</g>
	<g>
		<path class="st52" d="M27.88,78.46c0.52-0.29,0.95-0.69,1.47-0.98c1.27,1.15,3.1,1.32,4.74,1.19c-1.74,0.71-3.65,0.65-5.49,0.56
			c-1.2,0.5-2.37,1.09-3.62,1.46c-0.46,0.15-0.94,0.26-1.41,0.4c1.63,0.12,3.28,0,4.9-0.21c0.11-0.01,0.33-0.02,0.44-0.03
			c-1.69,0.44-3.41,0.83-5.16,0.94c-1.98,0.09-3.99,0.08-5.94-0.28C21.3,81.05,24.81,80.23,27.88,78.46z"/>
	</g>
	<g>
		<path class="st53" d="M31.39,81.04c1.81-0.88,3.52-2.02,4.88-3.52c0.78,0.5,1.6,0.94,2.43,1.34c0.63,0.32,1.28,0.61,1.95,0.86
			c4.08,1.64,8.48,2.5,12.88,2.44c0.35,0,0.71-0.07,1.05,0.07c-5.51,0.91-11.21,0.18-16.51-1.47c-0.57-0.13-1.18-0.6-1.77-0.29
			c-3.86,1.69-8.01,2.71-12.21,3.06C26.6,82.95,29.07,82.17,31.39,81.04z"/>
	</g>
	<g>
		<path class="st54" d="M38.63,78.69c0.43,0.08,0.82,0.31,1.26,0.35c1.03,0.13,2.08,0.12,3.1-0.11l-0.01,0.21
			c-0.76,0.33-1.63,0.16-2.44,0.24c0.11,0.1,0.21,0.21,0.31,0.31l-0.21,0.02c-0.67-0.25-1.31-0.54-1.95-0.86L38.63,78.69z"/>
	</g>
	<g>
		<path class="st55" d="M23.58,81.09c0.47-0.14,0.94-0.25,1.41-0.4c0.05,0.07,0.15,0.2,0.2,0.26c0.88,0.11,1.75-0.04,2.61-0.24
			c0.23-0.01,0.6-0.16,0.68,0.17C26.86,81.08,25.21,81.21,23.58,81.09z"/>
	</g>
	<g>
		<path class="st56" d="M51.62,80.86c0.34-0.2,0.76-0.14,1.14-0.15c0.95,0.04,1.9,0.01,2.85-0.04l0.12,0.17
			C54.37,80.98,52.98,80.97,51.62,80.86z"/>
	</g>
	<g>
		<path class="st57" d="M28.15,83.85c2.78-0.53,5.61-1.13,8.14-2.44c-0.44,0.6-1.15,0.88-1.69,1.36c0.56,0.01,1.12-0.01,1.68-0.04
			c-1.5,0.59-3.1,0.9-4.7,1c-1.05,0.09-2.11,0.12-3.17,0.13C28.35,83.85,28.22,83.85,28.15,83.85z"/>
	</g>
	<g>
		<path class="st58" d="M20.44,81.94c1.22-0.13,2.44-0.03,3.66-0.01c-0.61,0.21-1.27,0.12-1.9,0.15
			C21.62,82.05,21,82.17,20.44,81.94z"/>
	</g>
	<g>
		<path class="st59" d="M28.42,83.86c1.06,0,2.11-0.04,3.17-0.13c0.36,0,0.73,0.06,1.09,0.11c-0.35,0.09-0.7,0.19-1.06,0.18
			c-0.99-0.01-1.99,0.07-2.98-0.02C28.58,83.96,28.47,83.89,28.42,83.86z"/>
	</g>
	<g>
		<path class="st60" d="M32.69,87.99c3.3-0.44,6.57-1.56,9.25-3.58c1.46,1.13,3.21,1.77,4.99,2.2c-1.51,0.36-3.07-0.02-4.52-0.46
			c-0.21-0.09-0.41,0.02-0.59,0.11c-3.41,1.74-7.36,2.4-11.16,1.92C31.32,88.03,32.02,88.1,32.69,87.99z"/>
	</g>
</g>
<g>
	<g>
		<g>
			<path class="st0" d="M-373.59-408.56c16.36-17.62,40.4-26.56,64.1-27.62c-2.75,2.61-6.35,4.21-9.06,6.91
				c-16.95,14.98-24.67,37.78-26.72,59.78c6.67-9.7,15.01-18.41,25.3-24.28c20.4-11.87,45.02-15.1,68.2-12.36
				c-18.93,7.88-36.94,18.39-52.06,32.34c-12.37,11.45-23.09,25.25-28.76,41.27c6.73-7.63,13.77-15.13,22.26-20.85
				c16.6-11.73,37.52-17.63,57.78-14.93c22.28,2.64,43.03,15.69,55.01,34.67c-14.48-7.67-31.33-10.18-47.52-8.12
				c-20.22,2.5-39.41,10.6-56.58,21.37c-0.71,0.44-1.78,0.91-1.39,1.92c1.76-1.45,4.19-1.23,6.32-1.57
				c17.91-1.95,36.66,1.79,51.8,11.76c13.7,8.83,24.02,22.83,28.12,38.62c2.04,7.41,2.68,15.14,2.42,22.8
				c-9.16-11.57-21.99-20.01-36.14-24.11c-8.41-2.58-17.2-3.54-25.95-3.97c-5.91-2.35-11.91-4.54-18.19-5.66
				c-4.96-1.25-10.1-1.61-15.2-1.72c0.23,2.19,2.65,2.07,4.16,2.77c15.98,5.18,29.97,15.4,41,27.95
				c13.38,15.73,21.86,35.59,23.48,56.22c0.7,14.33-1.98,28.97-8.81,41.67c-1.84,3.45-3.99,6.73-6.11,10.01
				c-1.53-7.43-2.61-15-5.32-22.14c-5.35-15.09-14.49-28.78-26.13-39.74c-3.21-3.02-6.47-6.06-10.37-8.16
				c0.32,10.41-0.6,20.85-2.72,31.05c-0.37,2.07-0.88,4.27-0.06,6.32c2.65,7.68,5.55,15.28,8.63,22.8
				c5.45,13.27,11.52,26.28,17.8,39.19c9.98,20.26,20.61,40.21,31.75,59.87c6.56,11.66,13.3,23.21,20.1,34.73
				c0.28,0.48,0.86,1.42,1.15,1.9c4.67,0.42,9.54,0.03,14.04,1.59c-3.67,11.47-7.56,22.9-12.51,33.9l-0.28-0.41
				c-2.84-3.61-4.62-8.06-7.84-11.31c-4.65,0.36-9.11,1.92-13.75,2.39c3.8-2.32,7.94-4.04,11.67-6.5c-6.86-10-12.7-20.69-19.65-30.6
				c-5.03-0.26-9.96,2.11-15.07,2.09c4.21-2.22,8.55-4.19,12.56-6.76c-18.62-30.53-36.59-61.53-52.13-93.76
				c-2.86,0.26-5.68,0.84-8.44,1.6c20.83,53.65,44.27,106.27,68.81,158.32c2.59,5.06,4.72,10.37,7.67,15.25
				c-18.44,29.33-43.18,54.65-71.92,73.97c-31.98,21.55-69.08,35.44-107.36,40.17c-37.91,4.78-76.93,0.8-113.03-11.77
				c8.69-10,22.24-12.69,34.46-15.8c16.67-3.91,33.28-9.33,47.55-19.06c9.9-6.44,18.57-14.63,26.26-23.57
				c11.15-13.82,23.63-27.32,39.8-35.26c16.16-8.15,34.49-9.59,51.95-13.23c6.27-1.42,12.86-2.23,18.52-5.51
				c3.06-1.71,5.94-3.75,8.74-5.85c5.84-4.56,12.07-8.65,17.4-13.81c-22.56-0.47-45.15-0.07-67.73-0.2
				c-30.15,0.03-60.31-0.06-90.46,0.04c0.02,0.83,0.05,2.48,0.07,3.31c-2.81-1.24-5.41-3.4-8.6-3.38
				c-38,0.08-76.02-0.02-114.02,0.05c-9.32,0.93-18.69,0.53-28.04,0.6c-26.48-0.01-52.97,0.04-79.45-0.03
				c-0.08,0.39-0.23,1.17-0.31,1.56c-0.37-0.73-0.73-1.44-1.09-2.15c33.62,0.15,67.24-0.01,100.85,0.08
				c1.67,0.23,3.18-0.44,4.49-1.41c7.6-4.56,15.43-8.72,23.47-12.42c10.15-4.95,21.5-6.48,32.56-8.03
				c5.64-0.58,11.27-1.58,16.96-1.33c0.37-1.03,0.44-2.25-0.56-2.95c-9.87-9.98-17.21-23.22-17.59-37.51
				c-0.45-13.38,5.09-26.27,13.12-36.74c-13.88-1.97-27.85,2.87-39.44,10.29c2.11-6.79,4.85-13.43,8.72-19.41
				c-12.74-4.29-26.5-5.05-39.78-3.46c2.14,1.55,4.21,3.21,6.13,5.05c-4.28-1.42-8.51-3.21-13.03-3.71
				c-4.57,0.33-8.84,2.2-13.15,3.64c1.77-1.84,3.74-3.47,5.69-5.1c-14.93-1.61-30.39-0.37-44.42,5.22
				c13.22-13.39,34.77-15.84,51.8-8.94c15.46-6.37,34.33-4.67,47.81,5.47c6.43-9.55,15.45-17.53,26.25-21.75
				c1.51-0.59,3.04-1.16,4.59-1.64c5.66-0.27,11.76,0.26,16.88-2.62c0.2-0.09,0.6-0.28,0.8-0.37c-0.51-0.96-1.02-1.92-1.53-2.87
				c-0.6-1.1-1.17-2.21-1.7-3.33c-3.8-8.08-6.43-16.83-6.72-25.8c-0.59-9.69,2.09-19.16,6.09-27.88
				c-1.24-10.61-0.8-21.51,2.41-31.77c4.24-13.87,12.86-26.29,24.06-35.45c10.94-9.2,24.03-15.61,37.67-19.69
				c0.56-0.46,1.66-1.37,2.21-1.82c-20.74,1.8-41.31,8.07-58.96,19.23c-11.38,5.39-21.96,12.69-30.34,22.15
				c-1.23,1.02-2.16,2.32-2.76,3.8c-0.3,0.06-0.9,0.17-1.19,0.23c-0.27-2.15-0.63-4.29-1.02-6.41c-0.46-11.98-1.21-24.23,1.99-35.93
				c3.15-12.43,9.72-23.91,18.74-33.03c10.23-10.06,23.04-17.22,36.65-21.63c1.55-0.14,1.16-2.16,0.12-2.72
				c-3.72-3.5-8.05-6.31-12.53-8.74c-0.53-0.29-1.6-0.85-2.14-1.14c-12.36-6.14-26.14-9.28-39.89-9.92
				c16.69-13.16,37.11-22.37,58.55-23.3c19.02-0.72,38.37,4.99,53.64,16.44C-396.01-370.77-388.68-392.59-373.59-408.56z
				 M-351.61-413.51c-15.27,12.59-26.77,29.82-32.06,48.92c-4.9,17.26-4.32,35.64-0.48,53.04c5.09-1.53,10.06-3.42,15.21-4.77
				c-4.72-18.61-6.32-38.78-0.07-57.23c-0.98,17.5,1.08,35.13,5.98,51.95c1.72-11.04,4.29-22.23,10.38-31.77
				c-3.1,0.69-6.09,1.82-9.22,2.39c1.62-14.07,4.97-28.33,13.07-40.18c-2.72,0.8-5.43,1.62-8.21,2.18c2.01-9.64,5-19.23,10.35-27.57
				C-348.63-416.13-350.13-414.77-351.61-413.51z M-322.52-379.44c-10.65,9.62-18.2,23.12-19.22,37.57
				c5.96-8.07,10.82-16.97,17.36-24.64c10.56-13.44,24.55-23.56,38.72-32.86C-299.22-395.65-312.06-388.88-322.52-379.44z
				 M-296.81-351.8c-13.2,6.06-24.55,16.3-31.79,28.89c2.1,0.97,4.18,1.98,6.24,3.07c9.14-7.62,19.66-13.56,30.81-17.7
				c3.61-1.43,7.5-2.01,11.04-3.61c-5.65-1.03-11.4-0.96-17.11-0.68c17.98-11.45,40.22-13.11,61-12.36
				c-3.54-1.72-7.5-2.12-11.29-2.92C-264.25-359.77-281.61-358.79-296.81-351.8z M-478.32-349.81c14.98,5.6,29.94,12.33,41.95,23.12
				c11.1,1.17,22.33,2.77,32.73,7.13c-8.85-13.76-24.08-21.57-39.11-26.74c14.14,0.29,27.97,3.86,41.51,7.67
				c-0.98-1.12-2.05-2.17-3.32-2.95C-425.95-355.74-454.41-359.11-478.32-349.81z M-459.86-302.78
				c-14.61,7.57-26.89,19.36-35.68,33.22c-3.77,6.34-7.46,13.02-8.54,20.42c4.73-1.83,9.56-3.51,14.14-5.66
				c2.46-3.66,4.18-7.79,6.91-11.3c7.51-10.07,16.96-19.09,28.38-24.52c-7.79,8.09-16.19,16.56-19.52,27.57
				c5.21-1.54,10.41-3.17,15.55-4.92c1.14-0.27,1.68-1.36,2.35-2.2c7.4-10.5,17.21-19.43,28.79-25.1
				c-6.37,6.74-13.23,13.63-16.18,22.68c6.57-1.61,13.18-3.23,19.63-5.28c5.8-5.64,11.48-12.19,19.32-14.94
				c-2.24,3.89-4.92,7.55-6.74,11.67c6.37,0.74,12.77,1.17,19.13,2.01c1.76-7.42,2.06-16.07,8.06-21.6
				c-7.32-4.64-15.77-7.19-24.25-8.68C-425.73-312.04-444.15-310.86-459.86-302.78z M-365.16-304.95
				c-6.62,1.52-11.01,7.6-12.83,13.82c-3.36,11.87-1.44,24.5,1.99,36.13c1.17,3.24,1.81,6.77,3.85,9.63
				c0.82-8.14,4.25-15.81,9.14-22.31c1.14,4.94,0.13,10.13,0.72,15.17c1.35,20.3,5.78,40.66,14.53,59.09
				c1.39-6.11,3.88-11.98,7.73-16.95c1.72,22.46,7.17,45.62,21,63.84c4.05-30.7,1.92-62.26-6.51-92.06
				c-4.22-15.1-10.66-29.46-18.25-43.14c9.31,6.08,13.77,16.88,18.99,26.25c-2.06-14.46-6.45-29.42-16.39-40.51
				C-347.12-302.53-356.29-306.71-365.16-304.95z M-303.71-304.16c12.41,5.53,25.11,10.73,36.32,18.57
				c-1.74-3.56-4.36-6.57-6.23-10.04c17.74,3.77,34.37,11.8,49.27,22.01c-6.68-9.68-16.38-17.13-26.83-22.39
				C-267.26-304.27-285.92-306.26-303.71-304.16z M-310.67-269.88c1.92,5.05,2.92,10.44,4.9,15.43c4.67,3.08,9.73,5.55,14.4,8.67
				c12.09,7.34,22.04,18.24,27.78,31.21c-10.85-11.28-24.12-21-39.52-24.83c0.55,3.84-0.05,7.8,0.71,11.59
				c20.45,11.08,38.2,28.79,45.48,51.27c1.21,2.98,1.21,6.43,3,9.16c4.01-16.11,4.06-33.25-0.35-49.28
				c-4.8-17.99-16.11-34.51-32.27-44.07C-293.97-265.05-302.12-268.73-310.67-269.88z M-433.49-242.49
				c-15.34,11.85-27.11,28.44-32.71,47.03c-0.36-1.34-0.63-2.72-0.4-4.09c0.88-9.96,3.47-19.87,8.41-28.61
				c1.38-2.51,3.3-4.69,4.55-7.28c-8.38,4.68-14.98,12.32-18.59,21.21c-5.72,13.69-4.82,29.11-1.73,43.32
				c0.21,0.03,0.64,0.11,0.86,0.14c6.99-15.35,15.75-29.92,25.97-43.34c6.13-7.47,12.47-15.18,20.69-20.4
				c-2.98,5.45-6.81,10.66-8.07,16.86c9.45-11.43,20.06-22.15,32.81-29.88c-0.76,3.68-3.7,6.39-5.03,9.86
				c7.27-3.2,14.62-6.19,22.05-8.98c-1.22-5.66-1.95-11.43-1.79-17.23C-403.47-260.39-419.74-253.1-433.49-242.49z M-410.92-199.84
				c-5.25,17.76-3.18,37.07,3.54,54.15c3.55,8.47,7.76,16.9,13.83,23.86c-2.03-11.82-2.19-24.03,0.8-35.71
				c4.7-19,15.47-36.11,29.22-49.89c-4.74-2.98-10.97-4.18-16.07-1.35c-7.91,4.59-12.69,12.88-16.54,20.89
				c-1.55,0.17-2.78-0.37-3.27-1.94c5.61-15.3,14.19-29.27,23.61-42.48c-2.05-2.17-4.06-4.39-6.02-6.64
				C-395.63-229.8-406.28-215.79-410.92-199.84z M-456.58-181.94c-3.71,6.16-6.67,12.73-9.41,19.37c1.73,3.74,2.92,7.94,5.75,11.02
				c-0.35-8.95,1.79-17.93,5.99-25.81c6.93-12.57,17.94-22.81,30.54-29.51c-0.78,1.14-1.57,2.29-2.29,3.47
				c-5.24,10.04-10.5,20.42-12.62,31.59c-3.37,11.02-3.18,22.89-1.29,34.18c0.24,0.43,0.73,1.3,0.97,1.73
				c0.91-1.25,0.96-3.27,0.14-4.57c1.06-2.95,1.32-6.11,1.81-9.18c1.52-4.07,2.46-8.4,4.69-12.18l-0.17-0.87
				c0.34-0.25,1.02-0.74,1.36-0.98l-0.41-0.78c1.75-1.53,2.59-3.87,4.13-5.62c0.18-0.39,0.53-1.17,0.71-1.56
				c-0.34-12.11,1.2-24.33,5.55-35.68c1.45-3.31,3.33-6.39,5.49-9.28C-433.4-211.34-447.37-197.6-456.58-181.94z M-452.22-162.7
				c-1.46,8.58-0.12,17.87,4.5,25.33c-0.22-11.4-0.92-23.01,2.09-34.15c1.45-6.46,4.2-12.52,5.98-18.88
				C-445.61-182.13-450.61-172.88-452.22-162.7z M-482.67-147.58c1.77,16.84,11,32.14,23.49,43.28c2.63-2.43,4.24-5.73,6.68-8.35
				c-9.51-8.05-17.81-18.03-21.96-29.92c6.76,8.76,13.63,17.72,22.72,24.26c-2.89-6.56-5.9-13.22-6.34-20.49
				c-1.51,1.32-2.67,2.96-4.13,4.33c-2.95-5.42-5.63-11.04-7.03-17.07c-1.5,2.46-1.65,5.42-2.38,8.15
				c-0.31-0.24-0.92-0.72-1.23-0.96c-3.78-6.75-6.77-13.92-9.05-21.31C-483.67-159.85-483.14-153.57-482.67-147.58z M-433.29-131.87
				c1.57-0.29,3.15-0.59,4.74-0.88c1.27-5.22,3.66-10.03,5.73-14.94c-0.98-4.65-2.2-9.25-2.97-13.95
				C-431.98-153.15-433.8-142.18-433.29-131.87z M-333.99-133.34c-5.2,3.01-11.31,3.74-17.09,2.11c-2.71-1.4-4.96-3.55-7.53-5.07
				c-7.5,0.36-14.75,3.07-21.28,6.62c-1.62,3.04-1.13,6.76-1.57,10.1c19.32,1.44,37.91,11.75,48.82,27.86
				c5.47,8.67,8.68,18.84,8.44,29.14c-2.72-2.04-4.78-4.81-7.48-6.87c-11.83-9.55-27.05-15.3-42.33-14.85
				c4.95,6.13,8.32,13.3,11.82,20.29c3.9,3.57,8.77,5.85,12.84,9.21l1.26-0.17l-0.61,0.43c22.46,13.83,45.97,25.91,69.96,36.86
				c-6.96-15.32-13.63-30.76-20.45-46.14c-3.98-9.75-8.3-19.39-12.34-29.13c-6.08-14.59-12.25-29.15-18.09-43.84
				C-331.28-135.94-332.92-134.91-333.99-133.34z M-409.27-116.5c-1.57,0.34-1.18,2.77,0.48,1.78
				C-407.05-114.97-407.55-117.6-409.27-116.5z M-382.22-114.41c-0.16,3.33-0.41,6.65-0.44,9.99c9.33-0.37,19.12,1.24,26.98,6.53
				c-8.87-2.13-18.29-2.14-27.13,0.15c-0.04,2.47-0.01,4.93,0.15,7.4c13.84-1.53,28.48,0.11,40.68,7.24
				c3.49,1.92,6.37,4.73,9.75,6.82c-3.1-8.36-8.2-15.92-14.38-22.3C-355.96-107.97-368.76-114.62-382.22-114.41z M-525.41-88.78
				c8.86-1.5,17.66-4.16,26.76-3.68c2.23-0.11,4.68,0.8,6.74-0.42c4.82-2.7,9.71-5.39,15.07-6.88c1.19-0.45,2.65-0.56,3.46-1.67
				c-9.85-3.28-20.41-1.97-30.23,0.65c4.3-3.17,9.29-5.25,14.14-7.43c3.29-1.7,7.23-2.1,10.18-4.42
				C-497.51-113.1-514.73-103.21-525.41-88.78z M-446.12-107.98c-3.94,4.78-2.56,11.73,0.29,16.7c4.49,7.79,11.31,14.22,19.15,18.58
				c-2.72-4.86-3.96-10.44-3.72-15.99c9.91,14.07,22.48,26.4,37.42,35.08c-1.84-3.78-2.85-7.95-2.69-12.16
				c3.04,2.73,5.55,5.99,8.53,8.79c7.85,7.66,17.21,13.87,27.59,17.53c-9.84-19.4-24.39-36.4-41.62-49.64
				c-7.27-5.75-15.49-10.08-23.65-14.38c6.64-0.42,12.45,3.34,18.34,5.83c-0.97-2.28-3.08-3.64-4.89-5.16
				c-5.61-4.5-11.95-8.57-19.16-9.78C-436.04-113.63-442.16-112.03-446.12-107.98z M-488.47-81.41
				c-11.57,11.63-15.96,28.88-14.68,44.92c0.55,4.28,0.87,8.96,3.32,12.65c1.84-2.92,3.76-5.78,5.53-8.75
				c-2.13-10.84,0.01-22.15,4.44-32.15c-0.04,7.15-1.56,14.43,0.4,21.48c3.06-2.43,5.38-5.89,7.19-9.29
				c0.21-8.92,1.4-18.33,6.36-25.97c-1.69,5.89-1.68,12.12-0.67,18.13c3.65-2.26,5.81-6.32,8.62-9.51c1.72-5.22,1.45-11.35,5-15.89
				c0.41,2.78,0.58,5.58,0.66,8.39c4.21-1.17,7.66-4.16,11.54-6.09c-2.23-4.64-5-9.49-4.18-14.84
				C-467.76-97.18-479.38-90.24-488.47-81.41z M-461.78-30.54c-0.38,7.43,1.46,14.66,2.9,21.86c-4.94-8.1-8.63-17.31-8.21-26.96
				c-2.27,3.53-2.68,7.94-2.86,12.04c0.2,12.44,8.02,23.32,17.21,31.05c-1.17-6.13-1.53-12.4-2.64-18.52
				c-0.02-7.04-0.18-14.07,0.06-21.11c1.31-4.43,1.1-9.31,3.25-13.52c0.69,3.78,0.13,7.96,2.07,11.41
				c1.37-9.53,1.84-19.78,6.85-28.24c0.12,2.3,0.22,4.6,0.4,6.9c3.3-4.05,5.61-8.85,8.74-13.06c-2.85-2.61-5.51-5.43-7.75-8.58
				C-453.57-64.7-461.24-47.89-461.78-30.54z M-485.55-33.82c-0.36,0.64-1.08,1.93-1.43,2.57c-4.29,8.07-6.64,17.09-6.95,26.22
				c7.2-1.56,14.74-0.64,22.07-1.51c-4.78-10.63-5.7-22.96-2.34-34.14c2.89-11.13,9.31-20.9,16.62-29.61
				C-469.44-60.48-479.97-48.33-485.55-33.82z M-429.73-65.4c-4.83,13.45-3.85,29.01,3.71,41.28c7.84,12.89,20.87,22.83,35.46,26.67
				c-4.73-4.82-9.02-10.16-11.84-16.34c-6.26-12.94-7-27.78-5.08-41.83c-3.02,0.56-6.34,1.33-8.14,4.08
				c-3.76,5.54-2.86,12.68-1.98,18.95c0.5,4.44,2.6,8.57,2.71,13.06c-7.5-13.64-8.53-29.53-8.87-44.77
				C-425.73-64.81-427.73-65.18-429.73-65.4z M-442.84-34.72c-4.15,7.65-5.66,16.46-5.47,25.09c6.53-0.48,12.92-2.07,19.4-2.99
				c-5.26-8.11-10.51-17.05-10.3-27.04C-440.94-38.45-441.85-36.5-442.84-34.72z M-347.55-30.53c8.41,5.97,17.38,11.23,26.12,16.75
				c17.76,11.03,35.74,21.7,53.88,32.1c2.25,1.3,4.44,2.8,6.98,3.52c-3.25-6.9-6.4-13.84-9.6-20.76c-0.89-2.62-3.95-2.84-6.16-3.72
				c-2.09,2.13-3.98,4.47-6.37,6.28c0.97-2.58,2.27-5.02,3.6-7.42c-21.21-9.63-42.68-18.86-63.12-30.11
				C-344.52-35.71-346.99-32.53-347.55-30.53z M-362.34-30.76c-0.21,2.15-0.49,4.29-0.85,6.43c3.24,0.1,6.47,0.56,9.72,0.25
				c0.7,0.69,1.74,0.77,2.66,1c-1.17-0.98-2.43-1.89-3.77-2.6C-356.96-27.67-359.82-28.97-362.34-30.76z"/>
		</g>
	</g>
	<g>
		<path class="st1" d="M-351.61-413.51c1.48-1.26,2.98-2.62,4.95-3.04c-5.35,8.34-8.34,17.93-10.35,27.57
			c2.78-0.56,5.49-1.38,8.21-2.18c-8.1,11.85-11.45,26.11-13.07,40.18c3.13-0.57,6.12-1.7,9.22-2.39
			c-6.09,9.54-8.66,20.73-10.38,31.77c-4.9-16.82-6.96-34.45-5.98-51.95c-6.25,18.45-4.65,38.62,0.07,57.23
			c-5.15,1.35-10.12,3.24-15.21,4.77c-3.84-17.4-4.42-35.78,0.48-53.04C-378.38-383.69-366.88-400.92-351.61-413.51z"/>
		<path class="st1" d="M-433.49-242.49c13.75-10.61,30.02-17.9,47.02-21.39c-0.16,5.8,0.57,11.57,1.79,17.23
			c-7.43,2.79-14.78,5.78-22.05,8.98c1.33-3.47,4.27-6.18,5.03-9.86c-12.75,7.73-23.36,18.45-32.81,29.88
			c1.26-6.2,5.09-11.41,8.07-16.86c-8.22,5.22-14.56,12.93-20.69,20.4c-10.22,13.42-18.98,27.99-25.97,43.34
			c-0.22-0.03-0.65-0.11-0.86-0.14c-3.09-14.21-3.99-29.63,1.73-43.32c3.61-8.89,10.21-16.53,18.59-21.21
			c-1.25,2.59-3.17,4.77-4.55,7.28c-4.94,8.74-7.53,18.65-8.41,28.61c-0.23,1.37,0.04,2.75,0.4,4.09
			C-460.6-214.05-448.83-230.64-433.49-242.49z"/>
		<path class="st1" d="M-488.47-81.41c9.09-8.83,20.71-15.77,33.53-16.92c-0.82,5.35,1.95,10.2,4.18,14.84
			c-3.88,1.93-7.33,4.92-11.54,6.09c-0.08-2.81-0.25-5.61-0.66-8.39c-3.55,4.54-3.28,10.67-5,15.89c-2.81,3.19-4.97,7.25-8.62,9.51
			c-1.01-6.01-1.02-12.24,0.67-18.13c-4.96,7.64-6.15,17.05-6.36,25.97c-1.81,3.4-4.13,6.86-7.19,9.29
			c-1.96-7.05-0.44-14.33-0.4-21.48c-4.43,10-6.57,21.31-4.44,32.15c-1.77,2.97-3.69,5.83-5.53,8.75
			c-2.45-3.69-2.77-8.37-3.32-12.65C-504.43-52.53-500.04-69.78-488.47-81.41z"/>
	</g>
	<g>
		<path class="st2" d="M-322.52-379.44c10.46-9.44,23.3-16.21,36.86-19.93c-14.17,9.3-28.16,19.42-38.72,32.86
			c-6.54,7.67-11.4,16.57-17.36,24.64C-340.72-356.32-333.17-369.82-322.52-379.44z"/>
	</g>
	<g>
		<path class="st3" d="M-296.81-351.8c15.2-6.99,32.56-7.97,48.9-5.31c3.79,0.8,7.75,1.2,11.29,2.92
			c-20.78-0.75-43.02,0.91-61,12.36c5.71-0.28,11.46-0.35,17.11,0.68c-3.54,1.6-7.43,2.18-11.04,3.61
			c-11.15,4.14-21.67,10.08-30.81,17.7c-2.06-1.09-4.14-2.1-6.24-3.07C-321.36-335.5-310.01-345.74-296.81-351.8z"/>
		<path class="st3" d="M-478.32-349.81c23.91-9.3,52.37-5.93,73.76,8.23c1.27,0.78,2.34,1.83,3.32,2.95
			c-13.54-3.81-27.37-7.38-41.51-7.67c15.03,5.17,30.26,12.98,39.11,26.74c-10.4-4.36-21.63-5.96-32.73-7.13
			C-448.38-337.48-463.34-344.21-478.32-349.81z"/>
		<path class="st3" d="M-459.86-302.78c15.71-8.08,34.13-9.26,51.35-6.63c8.48,1.49,16.93,4.04,24.25,8.68
			c-6,5.53-6.3,14.18-8.06,21.6c-6.36-0.84-12.76-1.27-19.13-2.01c1.82-4.12,4.5-7.78,6.74-11.67c-7.84,2.75-13.52,9.3-19.32,14.94
			c-6.45,2.05-13.06,3.67-19.63,5.28c2.95-9.05,9.81-15.94,16.18-22.68c-11.58,5.67-21.39,14.6-28.79,25.1
			c-0.67,0.84-1.21,1.93-2.35,2.2c-5.14,1.75-10.34,3.38-15.55,4.92c3.33-11.01,11.73-19.48,19.52-27.57
			c-11.42,5.43-20.87,14.45-28.38,24.52c-2.73,3.51-4.45,7.64-6.91,11.3c-4.58,2.15-9.41,3.83-14.14,5.66
			c1.08-7.4,4.77-14.08,8.54-20.42C-486.75-283.42-474.47-295.21-459.86-302.78z"/>
		<path class="st3" d="M-365.16-304.95c8.87-1.76,18.04,2.42,23.97,8.96c9.94,11.09,14.33,26.05,16.39,40.51
			c-5.22-9.37-9.68-20.17-18.99-26.25c7.59,13.68,14.03,28.04,18.25,43.14c8.43,29.8,10.56,61.36,6.51,92.06
			c-13.83-18.22-19.28-41.38-21-63.84c-3.85,4.97-6.34,10.84-7.73,16.95c-8.75-18.43-13.18-38.79-14.53-59.09
			c-0.59-5.04,0.42-10.23-0.72-15.17c-4.89,6.5-8.32,14.17-9.14,22.31c-2.04-2.86-2.68-6.39-3.85-9.63
			c-3.43-11.63-5.35-24.26-1.99-36.13C-376.17-297.35-371.78-303.43-365.16-304.95z"/>
		<path class="st3" d="M-310.67-269.88c8.55,1.15,16.7,4.83,24.13,9.15c16.16,9.56,27.47,26.08,32.27,44.07
			c4.41,16.03,4.36,33.17,0.35,49.28c-1.79-2.73-1.79-6.18-3-9.16c-7.28-22.48-25.03-40.19-45.48-51.27
			c-0.76-3.79-0.16-7.75-0.71-11.59c15.4,3.83,28.67,13.55,39.52,24.83c-5.74-12.97-15.69-23.87-27.78-31.21
			c-4.67-3.12-9.73-5.59-14.4-8.67C-307.75-259.44-308.75-264.83-310.67-269.88z"/>
		<path class="st3" d="M-410.92-199.84c4.64-15.95,15.29-29.96,29.1-39.11c1.96,2.25,3.97,4.47,6.02,6.64
			c-9.42,13.21-18,27.18-23.61,42.48c-2.05,6.63-4.74,13.51-3.96,20.56c2.2-6.29,4.39-12.59,7.23-18.62
			c3.85-8.01,8.63-16.3,16.54-20.89c5.1-2.83,11.33-1.63,16.07,1.35c-13.75,13.78-24.52,30.89-29.22,49.89
			c-2.99,11.68-2.83,23.89-0.8,35.71c-6.07-6.96-10.28-15.39-13.83-23.86C-414.1-162.77-416.17-182.08-410.92-199.84z"/>
		<path class="st3" d="M-446.12-107.98c3.96-4.05,10.08-5.65,15.59-4.6c7.21,1.21,13.55,5.28,19.16,9.78
			c1.81,1.52,3.92,2.88,4.89,5.16c-5.89-2.49-11.7-6.25-18.34-5.83c8.16,4.3,16.38,8.63,23.65,14.38
			c17.23,13.24,31.78,30.24,41.62,49.64c-10.38-3.66-19.74-9.87-27.59-17.53c-2.98-2.8-5.49-6.06-8.53-8.79
			c-0.16,4.21,0.85,8.38,2.69,12.16c-14.94-8.68-27.51-21.01-37.42-35.08c-0.24,5.55,1,11.13,3.72,15.99
			c-7.84-4.36-14.66-10.79-19.15-18.58C-448.68-96.25-450.06-103.2-446.12-107.98z"/>
	</g>
	<g>
		<path class="st4" d="M-470.28-332.43c0.54,0.29,1.61,0.85,2.14,1.14c-5.32-0.04-10.56,0.77-15.71,2
			c-5.45-0.13-10.66,1.57-16.06,1.9c1.03-0.58,2.12-0.99,3.28-1.22C-487.92-330.38-479.13-331.65-470.28-332.43z"/>
	</g>
	<g>
		<path class="st5" d="M-468.14-331.29c4.48,2.43,8.81,5.24,12.53,8.74c1.04,0.56,1.43,2.58-0.12,2.72
			c-13.61,4.41-26.42,11.57-36.65,21.63c0.6-1.69,1.13-3.41,1.63-5.14c-0.49-0.66-0.97-1.32-1.45-1.98c0.63-0.22,1.9-0.66,2.53-0.87
			c-1.38-0.46-2.77-0.88-4.17-1.25c-0.52,0.97-1.07,1.94-1.63,2.89c-5.95-1.46-12.09-0.81-18.13-0.92
			c-11.98,0.24-24.01-0.56-35.94,0.63c-2.43-0.34-4.35-2.12-6.47-3.19c14.12-7.29,29.2-12.64,44.52-16.83
			c3.85-0.87,7.6-2.34,11.58-2.53c5.4-0.33,10.61-2.03,16.06-1.9C-478.7-330.52-473.46-331.33-468.14-331.29z"/>
	</g>
	<g>
		<path class="st6" d="M-560.73-305.84c1.56-0.72,3-1.91,4.72-2.19c2.12,1.07,4.04,2.85,6.47,3.19c11.93-1.19,23.96-0.39,35.94-0.63
			c6.04,0.11,12.18-0.54,18.13,0.92c0.56-0.95,1.11-1.92,1.63-2.89c1.4,0.37,2.79,0.79,4.17,1.25c-0.63,0.21-1.9,0.65-2.53,0.87
			c0.48,0.66,0.96,1.32,1.45,1.98c-0.5,1.73-1.03,3.45-1.63,5.14c-9.02,9.12-15.59,20.6-18.74,33.03
			c-3.2,11.7-2.45,23.95-1.99,35.93c-3.1-8.73-0.38-18.25-1.73-27.26c-0.27,0.53-0.81,1.59-1.08,2.12c-1.95,0.64-4,1.05-6.06,0.74
			c-28.86,0.2-57.75,0.03-86.63,0.1c-2.73,0.32-4.33-2.55-6.79-2.98c-1.15,1.33-2.09,2.82-3.04,4.29c-0.94-1.33-1.88-2.65-2.81-3.98
			c-0.93,0.76-1.84,1.53-2.74,2.31c-0.23-1.36-0.71-2.65-1.51-3.76C-606.8-277.18-584.72-293.41-560.73-305.84z"/>
	</g>
	<g>
		<path class="st7" d="M-303.71-304.16c17.79-2.1,36.45-0.11,52.53,8.15c10.45,5.26,20.15,12.71,26.83,22.39
			c-14.9-10.21-31.53-18.24-49.27-22.01c1.87,3.47,4.49,6.48,6.23,10.04C-278.6-293.43-291.3-298.63-303.71-304.16z"/>
		<path class="st7" d="M-482.67-147.58c-0.47-5.99-1-12.27,0.77-18.08c2.28,7.39,5.27,14.56,9.05,21.31
			c0.31,0.24,0.92,0.72,1.23,0.96c0.73-2.73,0.88-5.69,2.38-8.15c1.4,6.03,4.08,11.65,7.03,17.07c1.46-1.37,2.62-3.01,4.13-4.33
			c0.44,7.27,3.45,13.93,6.34,20.49c-9.09-6.54-15.96-15.5-22.72-24.26c4.15,11.89,12.45,21.87,21.96,29.92
			c-2.44,2.62-4.05,5.92-6.68,8.35C-471.67-115.44-480.9-130.74-482.67-147.58z"/>
		<path class="st7" d="M-461.78-30.54c0.54-17.35,8.21-34.16,20.02-46.73c2.24,3.15,4.9,5.97,7.75,8.58
			c-3.13,4.21-5.44,9.01-8.74,13.06c-0.18-2.3-0.28-4.6-0.4-6.9c-5.01,8.46-5.48,18.71-6.85,28.24c-1.94-3.45-1.38-7.63-2.07-11.41
			c-2.15,4.21-1.94,9.09-3.25,13.52c-1.25,1.99-1.76,4.28-1.62,6.62c0.18,4.85-0.53,9.95,1.56,14.49
			c1.11,6.12,1.47,12.39,2.64,18.52c-9.19-7.73-17.01-18.61-17.21-31.05c0.18-4.1,0.59-8.51,2.86-12.04
			c-0.42,9.65,3.27,18.86,8.21,26.96C-460.32-15.88-462.16-23.11-461.78-30.54z"/>
	</g>
	<g>
		<path class="st8" d="M-309.85-282.31c5.1,0.11,10.24,0.47,15.2,1.72c4.1,1.61,7.12,5.01,10.56,7.65
			c7.46,6.92,15.48,13.46,21.58,21.66c-0.54-0.08-1.64-0.23-2.18-0.31c-11.03-12.55-25.02-22.77-41-27.95
			C-307.2-280.24-309.62-280.12-309.85-282.31z"/>
	</g>
	<g>
		<path class="st9" d="M-477.8-249.01c17.65-11.16,38.22-17.43,58.96-19.23c-0.55,0.45-1.65,1.36-2.21,1.82
			c-13.64,4.08-26.73,10.49-37.67,19.69c-11.2,9.16-19.82,21.58-24.06,35.45c-1.21-0.34-2.42-0.66-3.62-0.99
			c-0.18,1.52-0.35,3.05-0.51,4.58c-2.19-2.07-5.1-2.42-7.85-3.21c1.77-0.5,3.56-0.94,5.35-1.42c-7.72-0.37-15.49-0.45-23.2,0.07
			c1.38,0.47,2.77,0.94,4.16,1.41c-8.7,0.58-17.43,0.16-26.13,0.25c-40,0.05-80,0-119.99,0.02c-1.64-0.02-3.17,0.61-4.69,1.13
			c-0.72-0.27-1.45-0.55-2.17-0.81c6.3-11.68,14.37-22.33,22.63-32.69c4.32-5.01,8.49-10.16,13.3-14.72c0.8,1.11,1.28,2.4,1.51,3.76
			c0.9-0.78,1.81-1.55,2.74-2.31c0.93,1.33,1.87,2.65,2.81,3.98c0.95-1.47,1.89-2.96,3.04-4.29c2.46,0.43,4.06,3.3,6.79,2.98
			c28.88-0.07,57.77,0.1,86.63-0.1c2.06,0.31,4.11-0.1,6.06-0.74c0.27-0.53,0.81-1.59,1.08-2.12c1.35,9.01-1.37,18.53,1.73,27.26
			c0.39,2.12,0.75,4.26,1.02,6.41c0.29-0.06,0.89-0.17,1.19-0.23c2.2,0.28,4.02-1.71,2.76-3.8
			C-499.76-236.32-489.18-243.62-477.8-249.01z"/>
	</g>
	<g>
		<path class="st10" d="M-264.69-251.59c0.54,0.08,1.64,0.23,2.18,0.31l0.62,0.08c15.68,17.58,29.25,37.23,39.22,58.59
			c0.58,2.26,1.33,5.32-1.71,6.01c0.06-1.74,0.57-3.53,0.16-5.25c-1.5-1.72-4.03-2.15-6.2-2.17c-2.73,1.63-4.4,4.46-5.78,7.23
			c-0.33-2.05-0.82-4.26-3.14-4.77c-0.25-2.02-0.47-4.03-0.71-6.04c-0.29,0.56-0.87,1.67-1.16,2.23
			C-242.83-216-251.31-235.86-264.69-251.59z"/>
	</g>
	<g>
		<path class="st11" d="M-510.9-223.06c0.6-1.48,1.53-2.78,2.76-3.8C-506.88-224.77-508.7-222.78-510.9-223.06z"/>
	</g>
	<g>
		<path class="st12" d="M-456.58-181.94c9.21-15.66,23.18-29.4,40.94-34.66c-2.16,2.89-4.04,5.97-5.49,9.28
			c-0.65,0.11-1.93,0.34-2.58,0.45c-12.6,6.7-23.61,16.94-30.54,29.51C-455.03-178.9-455.8-180.42-456.58-181.94z"/>
	</g>
	<g>
		<path class="st13" d="M-297.95-213.73c3.9,2.1,7.16,5.14,10.37,8.16c11.64,10.96,20.78,24.65,26.13,39.74
			c0.71,4.37-2.22,7.79-3.03,11.83c-3.9,1-4.04-3.69-5.22-6.17c-0.79,2.28-1.06,4.68-1.17,7.08c-3.25,0.09-6.27,2.46-9.52,1.26
			c-1.06-2.52,1.99-3.63,3.7-4.63c-0.18-0.35-0.54-1.04-0.71-1.39c-2.73-0.61-5.63-0.59-7.94,1.19c0.48,0.72,0.96,1.44,1.45,2.17
			c-2.34-0.32-4.66-0.76-6.9-1.5c-0.45,0.8-0.88,1.61-1.31,2.43c-3.08-7.52-5.98-15.12-8.63-22.8c-0.82-2.05-0.31-4.25,0.06-6.32
			C-298.55-192.88-297.63-203.32-297.95-213.73z"/>
	</g>
	<g>
		<path class="st14" d="M-512.61-212.25c7.71-0.52,15.48-0.44,23.2-0.07c-1.79,0.48-3.58,0.92-5.35,1.42
			c2.75,0.79,5.66,1.14,7.85,3.21c0.16-1.53,0.33-3.06,0.51-4.58c1.2,0.33,2.41,0.65,3.62,0.99c-3.21,10.26-3.65,21.16-2.41,31.77
			c-4,8.72-6.68,18.19-6.09,27.88c-1.97-2.43-4.76-3.94-7.26-5.75c-6.69-4.77-13.85-8.9-21.4-12.16c5.9-3.36,11.88,1.74,17.99,0.49
			c0.43,0.05,1.28,0.16,1.71,0.21c-4.16-4.01-9.54-6.52-15.14-7.77c0.81-0.09,2.44-0.28,3.25-0.38c-4.13-2.28-9.04-1.7-13.57-1.67
			c-2.72,0.35-5.84,0.06-8.1,1.85c0.58,0.11,1.75,0.33,2.34,0.44c-1.2,0.34-2.38,0.73-3.56,1.11c-10.13-3.62-20.93-4.52-31.55-5.56
			c-25.65-1.15-51.56,5.41-73.51,18.76c-3.96-1.04-6.84,2.25-9.94,4.05c-4.34,2.4-6.82,7.03-11.27,9.29
			c0.05-1.05,0.11-2.09,0.16-3.13c-2.45,0.28-2.94,2.84-3.82,4.71c-1.77-1.64-4.01-1.93-6.29-1.34c-0.15,0.61-0.45,1.85-0.6,2.47
			c-0.56-0.4-1.11-0.8-1.66-1.18c-3.03,0.43-6.14-2.01-8.75,0.57c1.79,2.07,3.71,4.33,3.12,7.3c-1.42-1.62-2.64-6.45-5.32-3.72
			c0.25-2.71,0.29-5.43,0.47-8.15c0.78-7.33,4.79-14.04,4.63-21.5c4.24-13.22,11.13-25.44,17.54-37.7l0.38,0.14
			c0.72,0.26,1.45,0.54,2.17,0.81c1.52-0.52,3.05-1.15,4.69-1.13c39.99-0.02,79.99,0.03,119.99-0.02c8.7-0.09,17.43,0.33,26.13-0.25
			C-509.84-211.31-511.23-211.78-512.61-212.25z"/>
	</g>
	<g>
		<path class="st15" d="M-423.71-206.87c0.65-0.11,1.93-0.34,2.58-0.45c-4.35,11.35-5.89,23.57-5.55,35.68
			c-0.18,0.39-0.53,1.17-0.71,1.56c0.39-8.52-0.93-17.31,1.75-25.57c0.8-2.57-0.52-5.14-0.36-7.75
			C-425.28-204.58-424.49-205.73-423.71-206.87z"/>
	</g>
	<g>
		<path class="st16" d="M-438.62-171.81c2.12-11.17,7.38-21.55,12.62-31.59c-0.16,2.61,1.16,5.18,0.36,7.75
			c-2.68,8.26-1.36,17.05-1.75,25.57c-1.54,1.75-2.38,4.09-4.13,5.62c-0.24,0.44-0.72,1.32-0.95,1.76l0.17,0.87
			c-2.23,3.78-3.17,8.11-4.69,12.18c-0.84,1.01-1.69,2-2.54,2.99c-0.3-6.34-0.84-12.8,0.71-19.03
			C-438.27-167.7-438.31-169.78-438.62-171.81z"/>
	</g>
	<g>
		<path class="st17" d="M-240.05-197.6c0.24,2.01,0.46,4.02,0.71,6.04c2.32,0.51,2.81,2.72,3.14,4.77c1.38-2.77,3.05-5.6,5.78-7.23
			c2.17,0.02,4.7,0.45,6.2,2.17c0.41,1.72-0.1,3.51-0.16,5.25c3.04-0.69,2.29-3.75,1.71-6.01c5.68,11.1,10.14,22.87,13.72,34.79
			c-0.39,2.78-1.2,5.66-3.23,7.7c-4.27,1.29-9.38,2.79-13.42,0.13c-4.72,2.64-10.37,1.2-15.51,1.24c-0.35-2.62-0.9-5.67-4.07-5.93
			c-0.23,1.63-0.45,3.27-0.65,4.91c-1.4-1.32-2.8-2.63-4.19-3.93c6.83-12.7,9.51-27.34,8.81-41.67
			C-240.92-195.93-240.34-197.04-240.05-197.6z"/>
	</g>
	<g>
		<path class="st18" d="M-452.22-162.7c1.61-10.18,6.61-19.43,12.57-27.7c-1.78,6.36-4.53,12.42-5.98,18.88
			c-3.01,11.14-2.31,22.75-2.09,34.15C-452.34-144.83-453.68-154.12-452.22-162.7z"/>
	</g>
	<g>
		<path class="st19" d="M-403.37-169.27c-0.78-7.05,1.91-13.93,3.96-20.56c0.49,1.57,1.72,2.11,3.27,1.94
			C-398.98-181.86-401.17-175.56-403.37-169.27z"/>
	</g>
	<g>
		<path class="st20" d="M-456.58-181.94c0.78,1.52,1.55,3.04,2.33,4.58c-4.2,7.88-6.34,16.86-5.99,25.81
			c-2.83-3.08-4.02-7.28-5.75-11.02C-463.25-169.21-460.29-175.78-456.58-181.94z"/>
	</g>
	<g>
		<g>
			<path class="st21" d="M-640.08-162.06c21.95-13.35,47.86-19.91,73.51-18.76c10.62,1.04,21.42,1.94,31.55,5.56
				c-0.44,0.13-1.32,0.39-1.76,0.52c-12.11-4.79-27.44-3.08-36.77,6.51c10.07-4.06,21.13-4.8,31.85-3.76
				c-1.4,1.11-2.8,2.21-4.08,3.45c3.07-0.77,6.03-2.07,9.21-2.4c3.13,0.38,6.06,1.66,9.11,2.4c-1.33-1.21-2.74-2.32-4.15-3.43
				c1.94-0.15,3.87-0.28,5.82-0.3c1.95,0.9,3.86,1.9,5.85,2.73c7.55,3.26,14.71,7.39,21.4,12.16c2.5,1.81,5.29,3.32,7.26,5.75
				c0.29,8.97,2.92,17.72,6.72,25.8c-0.7,0.1-2.09,0.3-2.78,0.41c-20.11,1.31-40.19,3.25-60.24,5.11c4.47,1.21,9.15,1.04,13.72,1.66
				c6.32,0.59,12.64,1.23,18.98,1.51c3.63,1.32,8.06,0.02,11.28,2.14c-10.8,4.22-19.82,12.2-26.25,21.75
				c-13.48-10.14-32.35-11.84-47.81-5.47c-17.03-6.9-38.58-4.45-51.8,8.94c14.03-5.59,29.49-6.83,44.42-5.22
				c-1.95,1.63-3.92,3.26-5.69,5.1c4.31-1.44,8.58-3.31,13.15-3.64c4.52,0.5,8.75,2.29,13.03,3.71c-1.92-1.84-3.99-3.5-6.13-5.05
				c13.28-1.59,27.04-0.83,39.78,3.46c-3.87,5.98-6.61,12.62-8.72,19.41c11.59-7.42,25.56-12.26,39.44-10.29
				c-8.03,10.47-13.57,23.36-13.12,36.74c0.38,14.29,7.72,27.53,17.59,37.51c1,0.7,0.93,1.92,0.56,2.95
				c-5.69-0.25-11.32,0.75-16.96,1.33c-11.06,1.55-22.41,3.08-32.56,8.03c-8.04,3.7-15.87,7.86-23.47,12.42
				c-35.19,0.18-70.4,0.03-105.59,0.13c-3.17-4.69-4.5-10.26-6.83-15.36c-10.16-27.78-15.7-57.37-15.16-87
				c0.39-5.69-2.46-11.38-0.39-16.96c1.19,2.8-0.05,5.86,0.77,8.69c1.49-0.36,1.03-2.11,1.25-3.27l0.29-0.25l0.33,0.14
				C-683.97-124.15-664.25-147.05-640.08-162.06z M-670.59-123.6c10.04-3.33,20.7-4.54,31.23-3.43c-1.14,1.17-2.3,2.33-3.44,3.51
				c3.06-0.82,6.01-2.19,9.19-2.44c3.06,0.44,5.88,1.81,8.94,2.28c-1.32-1.09-2.65-2.18-3.93-3.31c10.54-1.08,21.34-0.16,31.31,3.53
				c-9.21-9.42-24.51-11.08-36.41-6.22C-645.86-134.49-660.94-132.84-670.59-123.6z"/>
		</g>
		<path class="st21" d="M-362.84-24.88c2.73-0.4,5.49-0.79,8.26-0.8c1.34,0.71,2.6,1.62,3.77,2.6c-0.92-0.23-1.96-0.31-2.66-1
			C-356-26.42-359.78-24.66-362.84-24.88z"/>
	</g>
	<g>
		<path class="st22" d="M-533.8-176.81c2.26-1.79,5.38-1.5,8.1-1.85c4.53-0.03,9.44-0.61,13.57,1.67c-0.81,0.1-2.44,0.29-3.25,0.38
			c-5.32-0.97-10.8-0.92-16.08,0.24C-532.05-176.48-533.22-176.7-533.8-176.81z"/>
	</g>
	<g>
		<path class="st23" d="M-573.55-168.23c9.33-9.59,24.66-11.3,36.77-6.51c0.44-0.13,1.32-0.39,1.76-0.52
			c1.18-0.38,2.36-0.77,3.56-1.11c5.28-1.16,10.76-1.21,16.08-0.24c5.6,1.25,10.98,3.76,15.14,7.77c-0.43-0.05-1.28-0.16-1.71-0.21
			c-7.6-2.8-15.79-3.61-23.84-3.22c-1.95,0.02-3.88,0.15-5.82,0.3c1.41,1.11,2.82,2.22,4.15,3.43c-3.05-0.74-5.98-2.02-9.11-2.4
			c-3.18,0.33-6.14,1.63-9.21,2.4c1.28-1.24,2.68-2.34,4.08-3.45C-552.42-173.03-563.48-172.29-573.55-168.23z"/>
	</g>
	<g>
		<path class="st24" d="M-687.81-147.05c2.49-8.63,4.65-17.5,8.46-25.64c0.16,7.46-3.85,14.17-4.63,21.5
			c-0.18,2.72-0.22,5.44-0.47,8.15c2.68-2.73,3.9,2.1,5.32,3.72c0.59-2.97-1.33-5.23-3.12-7.3c2.61-2.58,5.72-0.14,8.75-0.57
			c0.55,0.38,1.1,0.78,1.66,1.18c0.15-0.62,0.45-1.86,0.6-2.47c2.28-0.59,4.52-0.3,6.29,1.34c0.88-1.87,1.37-4.43,3.82-4.71
			c-0.05,1.04-0.11,2.08-0.16,3.13c4.45-2.26,6.93-6.89,11.27-9.29c3.1-1.8,5.98-5.09,9.94-4.05
			c-24.17,15.01-43.89,37.91-53.39,64.86l-0.33-0.14c-1.12-0.8-1.55-1.89-1.29-3.26C-694.36-116.29-691.54-131.81-687.81-147.05z"/>
	</g>
	<g>
		<path class="st25" d="M-525.79-172.27c8.05-0.39,16.24,0.42,23.84,3.22c-6.11,1.25-12.09-3.85-17.99-0.49
			C-521.93-170.37-523.84-171.37-525.79-172.27z"/>
		<path class="st25" d="M-439.91-137.63c-1.89-11.29-2.08-23.16,1.29-34.18c0.31,2.03,0.35,4.11-0.2,6.12
			c-1.55,6.23-1.01,12.69-0.71,19.03c0.85-0.99,1.7-1.98,2.54-2.99c-0.49,3.07-0.75,6.23-1.81,9.18
			C-439.29-139.57-439.66-138.63-439.91-137.63z"/>
		<path class="st25" d="M-351.08-131.23c5.78,1.63,11.89,0.9,17.09-2.11c-0.31,0.5-0.95,1.51-1.27,2.02
			C-340.2-129.48-346.6-127.26-351.08-131.23z"/>
		<path class="st25" d="M-547.58-120.31c20.05-1.86,40.13-3.8,60.24-5.11c-10.02,3.45-20.76,1.61-31.03,3.38
			c-4.78,1.09-9.72,0.9-14.48,1.97c2.08,0.4,4.19,0.75,6.3,1.08c-2.44,0.13-4.88,0.28-7.31,0.34
			C-538.43-119.27-543.11-119.1-547.58-120.31z"/>
	</g>
	<g>
		<path class="st26" d="M-261.45-165.83c2.71,7.14,3.79,14.71,5.32,22.14c2.12-3.28,4.27-6.56,6.11-10.01
			c1.39,1.3,2.79,2.61,4.19,3.93c0.2-1.64,0.42-3.28,0.65-4.91c3.17,0.26,3.72,3.31,4.07,5.93c5.14-0.04,10.79,1.4,15.51-1.24
			c4.04,2.66,9.15,1.16,13.42-0.13c2.03-2.04,2.84-4.92,3.23-7.7c5.49,17,8.67,34.74,10.09,52.52c-0.58-0.47-1.72-1.41-2.3-1.88
			c-0.3-2.76-0.75-5.49-1.42-8.17c-1.03,0.95-2.06,1.91-3.08,2.87c-1.45-0.95-2.83-1.98-4.16-3.06c-1.75,1.13-3.65,2.21-5.8,2.06
			c-14.72-0.14-29.45,0.1-44.17-0.15c-0.14-0.52-0.42-1.56-0.55-2.08c-3.27,0.77-6.53,2.8-9.95,1.59c-0.54-1.08-0.76-2.27-1.06-3.42
			c-0.46,0.07-1.38,0.22-1.84,0.29c-0.28,0.72-0.84,2.16-1.11,2.88c-6.28-12.91-12.35-25.92-17.8-39.19
			c0.43-0.82,0.86-1.63,1.31-2.43c2.24,0.74,4.56,1.18,6.9,1.5c-0.49-0.73-0.97-1.45-1.45-2.17c2.31-1.78,5.21-1.8,7.94-1.19
			c0.17,0.35,0.53,1.04,0.71,1.39c-1.71,1-4.76,2.11-3.7,4.63c3.25,1.2,6.27-1.17,9.52-1.26c0.11-2.4,0.38-4.8,1.17-7.08
			c1.18,2.48,1.32,7.17,5.22,6.17C-263.67-158.04-260.74-161.46-261.45-165.83z"/>
	</g>
	<g>
		<path class="st27" d="M-432.47-162.7c0.23-0.44,0.71-1.32,0.95-1.76l0.41,0.78C-431.45-163.44-432.13-162.95-432.47-162.7z"/>
	</g>
	<g>
		<path class="st28" d="M-433.29-131.87c-0.51-10.31,1.31-21.28,7.5-29.77c0.77,4.7,1.99,9.3,2.97,13.95
			c-2.07,4.91-4.46,9.72-5.73,14.94C-430.14-132.46-431.72-132.16-433.29-131.87z"/>
	</g>
	<g>
		<path class="st29" d="M-439.91-137.63c0.25-1,0.62-1.94,1.11-2.84c0.82,1.3,0.77,3.32-0.14,4.57
			C-439.18-136.33-439.67-137.2-439.91-137.63z"/>
	</g>
	<g>
		<path class="st30" d="M-333.99-133.34c1.07-1.57,2.71-2.6,4.37-3.45c5.84,14.69,12.01,29.25,18.09,43.84
			c-0.32,0.46-0.96,1.38-1.29,1.84c-0.26-0.18-0.8-0.55-1.07-0.74c-0.45,0.22-0.9,0.45-1.34,0.69c-0.85-1.26-1.72-2.47-2.69-3.61
			c-0.52,1.56-1.09,3.11-1.8,4.6c-0.23-0.95-0.45-1.91-0.65-2.86c-1.96,0.13-3.88-0.24-5.58-1.21c-2.29,0.64-4.79,0.99-6.69,2.52
			c-10.91-16.11-29.5-26.42-48.82-27.86c0.44-3.34-0.05-7.06,1.57-10.1c6.53-3.55,13.78-6.26,21.28-6.62
			c2.57,1.52,4.82,3.67,7.53,5.07c4.48,3.97,10.88,1.75,15.82-0.09C-334.94-131.83-334.3-132.84-333.99-133.34z"/>
	</g>
	<g>
		<path class="st31" d="M-670.59-123.6c9.65-9.24,24.73-10.89,36.89-6.08c11.9-4.86,27.2-3.2,36.41,6.22
			c-9.97-3.69-20.77-4.61-31.31-3.53c1.28,1.13,2.61,2.22,3.93,3.31c-3.06-0.47-5.88-1.84-8.94-2.28c-3.18,0.25-6.13,1.62-9.19,2.44
			c1.14-1.18,2.3-2.34,3.44-3.51C-649.89-128.14-660.55-126.93-670.59-123.6z"/>
	</g>
	<g>
		<path class="st32" d="M-312.7-125.64c2.76-0.76,5.58-1.34,8.44-1.6c15.54,32.23,33.51,63.23,52.13,93.76
			c-4.01,2.57-8.35,4.54-12.56,6.76c5.11,0.02,10.04-2.35,15.07-2.09c6.95,9.91,12.79,20.6,19.65,30.6
			c-3.73,2.46-7.87,4.18-11.67,6.5c4.64-0.47,9.1-2.03,13.75-2.39c3.22,3.25,5,7.7,7.84,11.31c0.2,1.55-0.99,2.83-1.49,4.22
			c-4.45,9.07-9.07,18.09-14.68,26.5c-2.95-4.88-5.08-10.19-7.67-15.25C-268.43-19.37-291.87-71.99-312.7-125.64z"/>
	</g>
	<g>
		<path class="st33" d="M-487.34-125.42c0.69-0.11,2.08-0.31,2.78-0.41c0.53,1.12,1.1,2.23,1.7,3.33c-0.57,0.73-1.13,1.46-1.69,2.19
			c-5.48-0.04-10.81,1.3-16.04,2.8c-4.68,1.46-9.53-0.42-14.29,0.37c-6.34-0.28-12.66-0.92-18.98-1.51
			c2.43-0.06,4.87-0.21,7.31-0.34c-2.11-0.33-4.22-0.68-6.3-1.08c4.76-1.07,9.7-0.88,14.48-1.97
			C-508.1-123.81-497.36-121.97-487.34-125.42z"/>
	</g>
	<g>
		<path class="st34" d="M-484.55-120.31c0.56-0.73,1.12-1.46,1.69-2.19c0.51,0.95,1.02,1.91,1.53,2.87c-0.2,0.09-0.6,0.28-0.8,0.37
			c-5.74-0.19-11.46,0.79-16.88,2.62c-1.55,0.48-3.08,1.05-4.59,1.64c-3.22-2.12-7.65-0.82-11.28-2.14
			c4.76-0.79,9.61,1.09,14.29-0.37C-495.36-119.01-490.03-120.35-484.55-120.31z"/>
	</g>
	<g>
		<path class="st35" d="M-499.01-116.64c5.42-1.83,11.14-2.81,16.88-2.62C-487.25-116.38-493.35-116.91-499.01-116.64z"/>
	</g>
	<g>
		<path class="st36" d="M-273.19-117.25c0.46-0.07,1.38-0.22,1.84-0.29c0.3,1.15,0.52,2.34,1.06,3.42c3.42,1.21,6.68-0.82,9.95-1.59
			c0.13,0.52,0.41,1.56,0.55,2.08c14.72,0.25,29.45,0.01,44.17,0.15c2.15,0.15,4.05-0.93,5.8-2.06c1.33,1.08,2.71,2.11,4.16,3.06
			c1.02-0.96,2.05-1.92,3.08-2.87c0.67,2.68,1.12,5.41,1.42,8.17c0.58,0.47,1.72,1.41,2.3,1.88c0.16,14.08,0.48,28.23-0.22,42.28
			c-0.76,1.91-1.49,3.83-1.96,5.84c-0.23-0.24-0.69-0.72-0.93-0.95c-1.68,2.9-5.12,2-7.85,1.77c-5.58-0.67-11.2-0.14-16.79-0.45
			c0.31-0.39,0.95-1.16,1.27-1.55c5.62-0.7,11.45,0.86,16.94-0.85c-6.05-0.82-12.17-0.43-18.25-0.39c-2.51-0.45-3.46,2.2-4.56,3.87
			c-1.61-0.39-3.18-0.89-4.72-1.45c-0.67,0.8-1.34,1.61-1.99,2.43c-0.98-1.02-1.95-2.05-2.9-3.07c-0.6,1.1-1.17,2.2-1.73,3.32
			c-11.14-19.66-21.77-39.61-31.75-59.87C-274.03-115.09-273.47-116.53-273.19-117.25z"/>
	</g>
	<g>
		<path class="st37" d="M-409.27-116.5c1.72-1.1,2.22,1.53,0.48,1.78C-410.45-113.73-410.84-116.16-409.27-116.5z"/>
	</g>
	<g>
		<path class="st38" d="M-382.22-114.41c13.46-0.21,26.26,6.44,35.61,15.83c6.18,6.38,11.28,13.94,14.38,22.3
			c-3.38-2.09-6.26-4.9-9.75-6.82c-12.2-7.13-26.84-8.77-40.68-7.24c-0.16-2.47-0.19-4.93-0.15-7.4c8.84-2.29,18.26-2.28,27.13-0.15
			c-7.86-5.29-17.65-6.9-26.98-6.53C-382.63-107.76-382.38-111.08-382.22-114.41z"/>
		<path class="st38" d="M-525.41-88.78c10.68-14.43,27.9-24.32,46.12-23.85c-2.95,2.32-6.89,2.72-10.18,4.42
			c-4.85,2.18-9.84,4.26-14.14,7.43c9.82-2.62,20.38-3.93,30.23-0.65c-0.81,1.11-2.27,1.22-3.46,1.67
			c-5.36,1.49-10.25,4.18-15.07,6.88c-2.06,1.22-4.51,0.31-6.74,0.42C-507.75-92.94-516.55-90.28-525.41-88.78z"/>
		<path class="st38" d="M-429.73-65.4c2,0.22,4,0.59,5.97,1.1c0.34,15.24,1.37,31.13,8.87,44.77c-0.11-4.49-2.21-8.62-2.71-13.06
			c-0.88-6.27-1.78-13.41,1.98-18.95c1.8-2.75,5.12-3.52,8.14-4.08c-1.92,14.05-1.18,28.89,5.08,41.83
			c2.82,6.18,7.11,11.52,11.84,16.34c-14.59-3.84-27.62-13.78-35.46-26.67C-433.58-36.39-434.56-51.95-429.73-65.4z"/>
	</g>
	<g>
		<path class="st39" d="M-332.64-91.72c1.9-1.53,4.4-1.88,6.69-2.52c1.7,0.97,3.62,1.34,5.58,1.21c0.2,0.95,0.42,1.91,0.65,2.86
			c0.71-1.49,1.28-3.04,1.8-4.6c0.97,1.14,1.84,2.35,2.69,3.61c0.44-0.24,0.89-0.47,1.34-0.69c0.27,0.19,0.81,0.56,1.07,0.74
			c0.33-0.46,0.97-1.38,1.29-1.84c4.04,9.74,8.36,19.38,12.34,29.13c-0.22,1.65-0.48,3.29-0.73,4.94
			c-4.35,0.18-8.27,2.62-12.65,2.37c-7.21-0.22-14.42,0.2-21.62-0.21c-0.38-1.09-0.75-2.18-1.12-3.26
			c-2.85,0.72-5.81,0.48-8.68,0.98c-1.67,1.01-2.39,3.05-4.1,4.03l-1.26,0.17c-4.07-3.36-8.94-5.64-12.84-9.21
			c-3.5-6.99-6.87-14.16-11.82-20.29c15.28-0.45,30.5,5.3,42.33,14.85c2.7,2.06,4.76,4.83,7.48,6.87
			C-323.96-72.88-327.17-83.05-332.64-91.72z"/>
	</g>
	<g>
		<path class="st40" d="M-485.55-33.82c5.58-14.51,16.11-26.66,27.97-36.47c-7.31,8.71-13.73,18.48-16.62,29.61
			c-3.36,11.18-2.44,23.51,2.34,34.14c-7.33,0.87-14.87-0.05-22.07,1.51c0.31-9.13,2.66-18.15,6.95-26.22
			c3.04,1.24,6.37,1.58,9.64,1.26c1.94-0.76,1.82-4.16-0.02-5.05C-480.1-34.72-482.82-34.18-485.55-33.82z"/>
	</g>
	<g>
		<path class="st41" d="M-299.19-63.82c6.82,15.38,13.49,30.82,20.45,46.14c-23.99-10.95-47.5-23.03-69.96-36.86l0.61-0.43
			c1.71-0.98,2.43-3.02,4.1-4.03c2.87-0.5,5.83-0.26,8.68-0.98c0.37,1.08,0.74,2.17,1.12,3.26c7.2,0.41,14.41-0.01,21.62,0.21
			c4.38,0.25,8.3-2.19,12.65-2.37C-299.67-60.53-299.41-62.17-299.19-63.82z"/>
	</g>
	<g>
		<path class="st42" d="M-201.04-57.18c0.47-2.01,1.2-3.93,1.96-5.84c0.72,5.88-1.02,11.65-1.56,17.46
			c-1.62,9.88-3.7,19.7-6.62,29.28c-4.5-1.56-9.37-1.17-14.04-1.59c-0.29-0.48-0.87-1.42-1.15-1.9c4.53,2.47,9.81,1.59,14.73,1.34
			c0.94-4.85,2.38-9.58,3.78-14.32c1.07-3.53,0.46-7.32,1.59-10.84C-201-47.99-200.93-52.62-201.04-57.18z"/>
	</g>
	<g>
		<path class="st43" d="M-231.21-55.73c1.1-1.67,2.05-4.32,4.56-3.87c6.08-0.04,12.2-0.43,18.25,0.39
			c-5.49,1.71-11.32,0.15-16.94,0.85c-0.32,0.39-0.96,1.16-1.27,1.55c5.59,0.31,11.21-0.22,16.79,0.45
			c2.73,0.23,6.17,1.13,7.85-1.77c0.24,0.23,0.7,0.71,0.93,0.95c0.11,4.56,0.04,9.19-1.31,13.59c-1.13,3.52-0.52,7.31-1.59,10.84
			c-1.4,4.74-2.84,9.47-3.78,14.32c-4.92,0.25-10.2,1.13-14.73-1.34c-6.8-11.52-13.54-23.07-20.1-34.73
			c0.56-1.12,1.13-2.22,1.73-3.32c0.95,1.02,1.92,2.05,2.9,3.07c0.65-0.82,1.32-1.63,1.99-2.43
			C-234.39-56.62-232.82-56.12-231.21-55.73z"/>
	</g>
	<g>
		<path class="st44" d="M-442.84-34.72c0.99-1.78,1.9-3.73,3.63-4.94c-0.21,9.99,5.04,18.93,10.3,27.04
			c-6.48,0.92-12.87,2.51-19.4,2.99C-448.5-18.26-446.99-27.07-442.84-34.72z"/>
	</g>
	<g>
		<path class="st45" d="M-485.55-33.82c2.73-0.36,5.45-0.9,8.19-1.22c1.84,0.89,1.96,4.29,0.02,5.05c-3.27,0.32-6.6-0.02-9.64-1.26
			C-486.63-31.89-485.91-33.18-485.55-33.82z"/>
	</g>
	<g>
		<path class="st46" d="M-347.55-30.53c0.56-2,3.03-5.18,5.33-3.36c20.44,11.25,41.91,20.48,63.12,30.11
			c-1.33,2.4-2.63,4.84-3.6,7.42c2.39-1.81,4.28-4.15,6.37-6.28c2.21,0.88,5.27,1.1,6.16,3.72c3.2,6.92,6.35,13.86,9.6,20.76
			c-2.54-0.72-4.73-2.22-6.98-3.52c-18.14-10.4-36.12-21.07-53.88-32.1C-330.17-19.3-339.14-24.56-347.55-30.53z"/>
	</g>
	<g>
		<path class="st47" d="M-456.94-25.56c-0.14-2.34,0.37-4.63,1.62-6.62c-0.24,7.04-0.08,14.07-0.06,21.11
			C-457.47-15.61-456.76-20.71-456.94-25.56z"/>
	</g>
	<g>
		<path class="st48" d="M-362.34-30.76c2.52,1.79,5.38,3.09,7.76,5.08c-2.77,0.01-5.53,0.4-8.26,0.8c3.06,0.22,6.84-1.54,9.37,0.8
			c-3.25,0.31-6.48-0.15-9.72-0.25C-362.83-26.47-362.55-28.61-362.34-30.76z"/>
	</g>
	<g>
		<path class="st49" d="M-592.63,18.63c9.35-0.07,18.72,0.33,28.04-0.6c38-0.07,76.02,0.03,114.02-0.05
			c3.19-0.02,5.79,2.14,8.6,3.38c-0.02-0.83-0.05-2.48-0.07-3.31c30.15-0.1,60.31-0.01,90.46-0.04c22.58,0.13,45.17-0.27,67.73,0.2
			c-5.33,5.16-11.56,9.25-17.4,13.81c-17.76-0.48-35.56,0.04-53.33-0.2c-104.04,0.12-208.08-0.14-312.11,0.12
			c-1.89-3.93-4.2-7.69-5.7-11.78c0.08-0.39,0.23-1.17,0.31-1.56C-645.6,18.67-619.11,18.62-592.63,18.63z"/>
	</g>
	<g>
		<g>
			<path class="st50" d="M-666.69,31.94c104.03-0.26,208.07,0,312.11-0.12c17.77,0.24,35.57-0.28,53.33,0.2
				c-2.8,2.1-5.68,4.14-8.74,5.85c-5.66,3.28-12.25,4.09-18.52,5.51c-17.46,3.64-35.79,5.08-51.95,13.23
				c-16.17,7.94-28.65,21.44-39.8,35.26c-7.69,8.94-16.36,17.13-26.26,23.57c-14.27,9.73-30.88,15.15-47.55,19.06
				c-12.22,3.11-25.77,5.8-34.46,15.8C-587.33,130.16-637.69,86.89-666.69,31.94z M-497.63,49.42c-2.81-0.29-5.3-1.75-8.05-2.26
				l0.43,1.03c-5.33-2.55-10.57-5.31-15.53-8.53c-8.7,9.55-19.59,16.82-31.15,22.45c-14.8,7.22-30.59,12.24-46.63,15.85
				c26.82-2.24,53.27-8.8,77.95-19.56c3.75-1.94,7.61,1.05,11.28,1.86c33.89,10.53,70.24,15.18,105.45,9.4
				c-2.16-0.85-4.49-0.4-6.72-0.43c-28.08,0.39-56.19-5.09-82.22-15.56l1.34-0.11c-0.65-0.69-1.31-1.36-1.99-2.01
				c5.15-0.52,10.7,0.6,15.55-1.52l0.08-1.31c3.68-0.71,7.19-2.06,10.83-2.96c15.84,8.58,33.65,13.22,51.59,14.28
				c-2.44,0.05-5.1-0.37-7.3,0.93c8.7,0.75,17.53,0.8,26.23-0.09l-0.76-1.11c0.94-0.24,1.87-0.51,2.8-0.8
				c-25.26-1.23-50.75-8.73-71.2-23.92C-474.91,42.5-486.37,46.24-497.63,49.42z M-574.33,45.66
				c-19.59,11.28-42.01,16.52-64.24,19.47c12.46,2.29,25.28,2.36,37.92,1.8c11.19-0.7,22.16-3.18,32.98-6.02
				c-0.71,0.05-2.12,0.15-2.83,0.2c-0.52-2.07-2.9-1.13-4.34-1.06c-5.47,1.24-11.05,2.19-16.67,1.51c-0.32-0.42-0.96-1.27-1.29-1.69
				c8-2.37,15.47-6.13,23.13-9.3c11.72,0.59,23.95,0.99,35.03-3.56c-10.49,0.87-22.15-0.21-30.29-7.58
				C-568.24,41.23-571.02,43.84-574.33,45.66z M-572.57,80.06c0.42,0.01,1.25,0.04,1.67,0.06c0.34,0.22,1.04,0.66,1.38,0.88
				c6.33,0.58,12.68,0.11,19.02,0.15c2.32,0.06,4.57-0.54,6.79-1.13c-2.32-0.33-4.63-0.69-6.96-0.72
				c10.25-0.64,20.43-2.65,30.02-6.39c-3.58,0.14-7.16,0.32-10.75,0.23c3.46-3.07,7.97-4.89,10.81-8.69
				C-536.77,72.85-554.81,76.67-572.57,80.06z M-621.8,67.91c3.57,1.43,7.49,0.69,11.23,0.87c4.04-0.19,8.26,0.43,12.14-0.93
				C-606.21,67.74-614.03,67.1-621.8,67.91z M-543.63,106.52c-4.28,0.72-8.69,0.24-12.93,1.24c24.25,3.04,49.44-1.13,71.24-12.27
				c1.15-0.58,2.44-1.25,3.77-0.7c9.27,2.82,19.19,5.23,28.86,2.94c-11.34-2.74-22.56-6.84-31.86-14.06
				C-501.65,96.54-522.56,103.69-543.63,106.52z"/>
		</g>
	</g>
	<g>
		<path class="st51" d="M-497.63,49.42c11.26-3.18,22.72-6.92,31.98-14.37c20.45,15.19,45.94,22.69,71.2,23.92
			c-0.93,0.29-1.86,0.56-2.8,0.8c-6.05,0.33-12.11,0.53-18.17,0.27c-17.94-1.06-35.75-5.7-51.59-14.28
			c-3.64,0.9-7.15,2.25-10.83,2.96C-484.34,50.17-491.05,50.27-497.63,49.42z"/>
	</g>
	<g>
		<path class="st52" d="M-574.33,45.66c3.31-1.82,6.09-4.43,9.4-6.23c8.14,7.37,19.8,8.45,30.29,7.58
			c-11.08,4.55-23.31,4.15-35.03,3.56c-7.66,3.17-15.13,6.93-23.13,9.3c-2.96,0.95-6.01,1.65-8.99,2.56
			c10.42,0.77,20.94-0.03,31.29-1.32c0.71-0.05,2.12-0.15,2.83-0.2c-10.82,2.84-21.79,5.32-32.98,6.02
			c-12.64,0.56-25.46,0.49-37.92-1.8C-616.34,62.18-593.92,56.94-574.33,45.66z"/>
	</g>
	<g>
		<path class="st53" d="M-551.93,62.11c11.56-5.63,22.45-12.9,31.15-22.45c4.96,3.22,10.2,5.98,15.53,8.53
			c4.05,2.03,8.18,3.91,12.43,5.48c26.03,10.47,54.14,15.95,82.22,15.56c2.23,0.03,4.56-0.42,6.72,0.43
			c-35.21,5.78-71.56,1.13-105.45-9.4c-3.67-0.81-7.53-3.8-11.28-1.86c-24.68,10.76-51.13,17.32-77.95,19.56
			C-582.52,74.35-566.73,69.33-551.93,62.11z"/>
	</g>
	<g>
		<path class="st54" d="M-505.68,47.16c2.75,0.51,5.24,1.97,8.05,2.26c6.58,0.85,13.29,0.75,19.79-0.7l-0.08,1.31
			c-4.85,2.12-10.4,1-15.55,1.52c0.68,0.65,1.34,1.32,1.99,2.01l-1.34,0.11c-4.25-1.57-8.38-3.45-12.43-5.48L-505.68,47.16z"/>
	</g>
	<g>
		<path class="st55" d="M-601.79,62.43c2.98-0.91,6.03-1.61,8.99-2.56c0.33,0.42,0.97,1.27,1.29,1.69
			c5.62,0.68,11.2-0.27,16.67-1.51c1.44-0.07,3.82-1.01,4.34,1.06C-580.85,62.4-591.37,63.2-601.79,62.43z"/>
	</g>
	<g>
		<path class="st56" d="M-422.72,60.97c2.2-1.3,4.86-0.88,7.3-0.93c6.06,0.26,12.12,0.06,18.17-0.27l0.76,1.11
			C-405.19,61.77-414.02,61.72-422.72,60.97z"/>
	</g>
	<g>
		<path class="st57" d="M-572.57,80.06c17.76-3.39,35.8-7.21,51.98-15.61c-2.84,3.8-7.35,5.62-10.81,8.69
			c3.59,0.09,7.17-0.09,10.75-0.23c-9.59,3.74-19.77,5.75-30.02,6.39c-6.73,0.59-13.48,0.79-20.23,0.82
			C-571.32,80.1-572.15,80.07-572.57,80.06z"/>
	</g>
	<g>
		<path class="st58" d="M-621.8,67.91c7.77-0.81,15.59-0.17,23.37-0.06c-3.88,1.36-8.1,0.74-12.14,0.93
			C-614.31,68.6-618.23,69.34-621.8,67.91z"/>
	</g>
	<g>
		<path class="st59" d="M-570.9,80.12c6.75-0.03,13.5-0.23,20.23-0.82c2.33,0.03,4.64,0.39,6.96,0.72
			c-2.22,0.59-4.47,1.19-6.79,1.13c-6.34-0.04-12.69,0.43-19.02-0.15C-569.86,80.78-570.56,80.34-570.9,80.12z"/>
	</g>
	<g>
		<path class="st60" d="M-543.63,106.52c21.07-2.83,41.98-9.98,59.08-22.85c9.3,7.22,20.52,11.32,31.86,14.06
			c-9.67,2.29-19.59-0.12-28.86-2.94c-1.33-0.55-2.62,0.12-3.77,0.7c-21.8,11.14-46.99,15.31-71.24,12.27
			C-552.32,106.76-547.91,107.24-543.63,106.52z"/>
	</g>
</g>
</svg>
