<?xml version="1.0" encoding="utf-8"?>
<!-- Generator: Adobe Illustrator 24.3.0, SVG Export Plug-In . SVG Version: 6.00 Build 0)  -->
<svg version="1.1" id="Layer_1" xmlns="http://www.w3.org/2000/svg" xmlns:xlink="http://www.w3.org/1999/xlink" x="0px" y="0px"
	 viewBox="0 0 400 120" style="enable-background:new 0 0 400 120;" xml:space="preserve">
<style type="text/css">
	.st0{fill:#1397E1;}
	.st1{fill:#0D051A;}
	.st2{fill:#7A8921;}
	.st3{fill:#778720;}
	.st4{fill:#7A8920;}
	.st5{fill:#DB7D47;}
	.st6{fill:#FE5C01;}
	.st7{fill:#FF6900;}
	.st8{fill:#798821;}
	.st9{fill:#F46B0C;}
	.st10{fill:#FF7700;}
	.st11{fill:#FC7F03;}
	.st12{fill:#E17D21;}
	.st13{fill:#F78207;}
	.st14{fill:#FE8901;}
	.st15{fill:#FF8500;}
	.st16{fill:#C77422;}
	.st17{fill:#FC8A03;}
	.st18{fill:#FE8C01;}
	.st19{fill:#7B8829;}
	.st20{fill:#181A07;}
	.st21{fill:#F58D06;}
	.st22{fill:#FFF0C9;}
	.st23{fill:#EC9027;}
	.st24{fill:#100613;}
	.st25{fill:#FD9703;}
	.st26{fill:#DA982B;}
	.st27{fill:#FE9700;}
	.st28{fill:#CE8635;}
	.st29{fill:#798820;}
	.st30{fill:#99764E;}
	.st31{fill:#FE9C01;}
	.st32{fill:#0D0719;}
	.st33{fill:#7D582C;}
	.st34{fill:#FD9B05;}
	.st35{fill:#D2993D;}
	.st36{fill:#2A1103;}
	.st37{fill:#FFA500;}
	.st38{fill:#4B4246;}
	.st39{fill:#798921;}
	.st40{fill:#FEAB01;}
	.st41{fill:#FEEFCA;}
	.st42{fill:#FEB401;}
	.st43{fill:#E7C053;}
	.st44{fill:#FEB400;}
	.st45{fill:#FCBB04;}
	.st46{fill:#F8B90E;}
	.st47{fill:#7C572C;}
	.st48{fill:#7C8542;}
	.st49{fill:#F2BD0F;}
	.st50{fill:#0167B1;}
	.st51{fill:#F9FEFE;}
	.st52{fill:#FAFEFE;}
	.st53{fill:#FCFEFD;}
	.st54{fill:#278FC9;}
	.st55{fill:#2686B8;}
	.st56{fill:#1B89C7;}
	.st57{fill:#F4FEFF;}
	.st58{fill:#2A8CBF;}
	.st59{fill:#2890CA;}
	.st60{fill:#FAFDFD;}
</style>
<g>
	<path class="st0" d="M90.9,81.4v-27h5.8v27L90.9,81.4L90.9,81.4z M93.6,59.6v-5.2h15.6v5.2H93.6z M93.6,70.7v-5h14v5H93.6z"/>
	<path class="st0" d="M109,81.4l10.6-27h5.2l10.5,27h-5.9l-5.4-14.5c-0.2-0.4-0.3-0.9-0.6-1.6s-0.4-1.3-0.7-2
		c-0.2-0.7-0.4-1.4-0.7-2.1c-0.2-0.7-0.4-1.2-0.5-1.6h1c-0.2,0.6-0.3,1.2-0.5,1.8c-0.2,0.6-0.4,1.3-0.6,1.9s-0.4,1.3-0.7,1.9
		c-0.2,0.6-0.4,1.2-0.7,1.8l-5.4,14.4L109,81.4L109,81.4z M113.9,75.7l1.9-4.6h12.4l1.9,4.6H113.9z"/>
	<path class="st0" d="M139.1,81.4v-27h18.2v5.1h-12.6v16.8h12.8v5.1L139.1,81.4L139.1,81.4z M141.8,70.1v-4.9h13.7v4.9H141.8z"/>
	<path class="st0" d="M163.6,81.4v-27h5.8v21.8h12.2v5.2C181.6,81.4,163.6,81.4,163.6,81.4z"/>
	<path class="st0" d="M183.7,81.4l10.6-27h5.2l10.5,27H204l-5.4-14.5c-0.1-0.4-0.3-0.9-0.6-1.6s-0.4-1.3-0.7-2
		c-0.2-0.7-0.4-1.4-0.7-2.1c-0.2-0.7-0.4-1.2-0.5-1.6h1c-0.1,0.6-0.3,1.2-0.5,1.8s-0.4,1.3-0.6,1.9s-0.4,1.3-0.7,1.9
		c-0.2,0.6-0.4,1.2-0.7,1.8l-5.4,14.4L183.7,81.4L183.7,81.4z M188.6,75.7l1.9-4.6h12.4l1.9,4.6H188.6z"/>
	<path class="st0" d="M213.7,81.4v-27h5.2l14.9,20.2h-1.1c-0.1-0.8-0.2-1.6-0.3-2.3s-0.1-1.5-0.2-2.3c-0.1-0.8-0.1-1.6-0.2-2.4
		c0-0.8-0.1-1.7-0.1-2.7c0-0.9,0-2,0-3.1v-7.4h5.7v27h-5.2L217.2,61l1.5,0c0.1,1.3,0.2,2.5,0.3,3.4s0.2,1.8,0.2,2.4
		c0.1,0.7,0.1,1.3,0.1,1.8c0,0.5,0,1,0.1,1.5c0,0.5,0,0.9,0,1.5v9.7L213.7,81.4L213.7,81.4z"/>
	<path class="st0" d="M256.5,81.4v-27h11.7c1.8,0,3.3,0.3,4.6,0.8c1.2,0.5,2.2,1.3,2.8,2.3c0.6,1,1,2.2,1,3.6c0,1.5-0.4,2.8-1.2,3.8
		c-0.8,1-1.9,1.7-3.3,2.1l0-0.8c1.2,0.3,2.3,0.8,3.1,1.4c0.9,0.6,1.6,1.4,2.1,2.4s0.7,2,0.7,3.2c0,1.3-0.2,2.5-0.7,3.5
		s-1.1,1.9-1.9,2.5s-1.8,1.2-3,1.5c-1.1,0.3-2.4,0.5-3.8,0.5C268.6,81.4,256.5,81.4,256.5,81.4z M262,65.3h5.5
		c0.7,0,1.3-0.1,1.8-0.4s0.9-0.6,1.2-1c0.3-0.4,0.4-1,0.4-1.5c0-1-0.3-1.7-0.9-2.2c-0.6-0.5-1.5-0.8-2.8-0.8H262L262,65.3L262,65.3z
		 M262,76.4h6.3c0.8,0,1.5-0.1,2.1-0.4c0.6-0.2,1-0.6,1.3-1.1c0.3-0.5,0.5-1.1,0.5-1.8c0-0.7-0.2-1.2-0.5-1.7
		c-0.3-0.5-0.8-0.8-1.4-1.1s-1.3-0.4-2.2-0.4H262L262,76.4L262,76.4z"/>
	<path class="st0" d="M283.2,81.4v-27h18.2v5.1h-12.6v16.8h12.8v5.1L283.2,81.4L283.2,81.4z M286,70.1v-4.9h13.7v4.9H286z"/>
	<path class="st0" d="M304.5,81.4l10.6-27h5.2l10.5,27h-5.9l-5.4-14.5c-0.1-0.4-0.3-0.9-0.6-1.6s-0.4-1.3-0.7-2
		c-0.2-0.7-0.5-1.4-0.7-2.1c-0.2-0.7-0.4-1.2-0.5-1.6h1c-0.1,0.6-0.3,1.2-0.5,1.8s-0.4,1.3-0.6,1.9s-0.4,1.3-0.7,1.9
		c-0.2,0.6-0.5,1.2-0.7,1.8l-5.4,14.4L304.5,81.4L304.5,81.4z M309.4,75.7l1.9-4.6h12.4l1.9,4.6H309.4z"/>
	<path class="st0" d="M345.6,81.8c-2,0-3.8-0.3-5.5-1c-1.7-0.7-3.1-1.6-4.3-2.9s-2.2-2.7-2.8-4.4c-0.7-1.7-1-3.6-1-5.6
		c0-2,0.4-3.8,1-5.5s1.7-3.2,2.9-4.4c1.3-1.2,2.7-2.2,4.4-2.9c1.7-0.7,3.5-1,5.5-1c1.3,0,2.5,0.2,3.8,0.5c1.2,0.3,2.4,0.8,3.4,1.5
		c1,0.7,1.9,1.5,2.7,2.4l-3.6,4c-0.6-0.6-1.2-1.2-1.9-1.6c-0.7-0.5-1.4-0.8-2.1-1s-1.5-0.4-2.3-0.4c-1.1,0-2.1,0.2-3.1,0.6
		s-1.8,1-2.5,1.7c-0.7,0.7-1.3,1.6-1.7,2.7c-0.4,1-0.6,2.2-0.6,3.4c0,1.3,0.2,2.4,0.6,3.5s1,1.9,1.7,2.7s1.6,1.3,2.7,1.7
		c1,0.4,2.2,0.6,3.5,0.6c0.8,0,1.6-0.1,2.4-0.3c0.8-0.2,1.5-0.6,2.1-1c0.7-0.4,1.2-0.9,1.8-1.4l2.9,4.5c-0.6,0.7-1.5,1.3-2.5,1.9
		s-2.2,1-3.5,1.3C348.2,81.6,346.9,81.8,345.6,81.8z"/>
	<path class="st0" d="M360.4,81.4v-27h5.8v27L360.4,81.4L360.4,81.4z M362.7,70.5l0-5.2h17.6v5.2H362.7z M377.4,81.4v-27h5.8v27
		L377.4,81.4L377.4,81.4z"/>
</g>
<g>
	<g>
		<g>
			<path class="st1" d="M58.2,10.8c2.6-2.8,6.3-4.2,10-4.3c-0.4,0.4-1,0.7-1.4,1.1c-2.7,2.4-3.9,5.9-4.2,9.4c1-1.5,2.4-2.9,4-3.8
				c3.2-1.9,7.1-2.4,10.7-1.9c-3,1.2-5.8,2.9-8.2,5.1c-1.9,1.8-3.6,3.9-4.5,6.5c1.1-1.2,2.2-2.4,3.5-3.3c2.6-1.8,5.9-2.8,9.1-2.3
				c3.5,0.4,6.7,2.5,8.6,5.4c-2.3-1.2-4.9-1.6-7.4-1.3c-3.2,0.4-6.2,1.7-8.9,3.4c-0.1,0.1-0.3,0.1-0.2,0.3c0.3-0.2,0.7-0.2,1-0.2
				c2.8-0.3,5.7,0.3,8.1,1.8c2.2,1.4,3.8,3.6,4.4,6.1c0.3,1.2,0.4,2.4,0.4,3.6c-1.4-1.8-3.4-3.1-5.7-3.8c-1.3-0.4-2.7-0.5-4.1-0.6
				c-0.9-0.4-1.9-0.7-2.8-0.9c-0.8-0.2-1.6-0.2-2.4-0.3c0,0.3,0.4,0.3,0.7,0.4c2.5,0.8,4.7,2.4,6.4,4.4c2.1,2.5,3.4,5.6,3.7,8.8
				c0.1,2.2-0.3,4.5-1.4,6.5c-0.3,0.5-0.6,1-1,1.6c-0.2-1.2-0.4-2.3-0.8-3.5c-0.8-2.4-2.3-4.5-4.1-6.2c-0.5-0.5-1-1-1.6-1.3
				c0.1,1.6-0.1,3.3-0.4,4.9c-0.1,0.3-0.1,0.7,0,1c0.4,1.2,0.9,2.4,1.3,3.6c0.8,2.1,1.8,4.1,2.8,6.1c1.6,3.2,3.2,6.3,5,9.4
				c1,1.8,2.1,3.6,3.2,5.4c0,0.1,0.1,0.2,0.2,0.3c0.7,0.1,1.5,0,2.2,0.2c-0.6,1.8-1.2,3.6-2,5.3l-0.1,0c-0.4-0.6-0.7-1.3-1.2-1.8
				c-0.7,0.1-1.4,0.3-2.2,0.4c0.6-0.4,1.2-0.6,1.8-1c-1.1-1.6-2-3.2-3.1-4.8c-0.8,0-1.6,0.3-2.4,0.3c0.7-0.3,1.3-0.7,2-1.1
				c-2.9-4.8-5.7-9.6-8.2-14.7c-0.4,0-0.9,0.1-1.3,0.2c3.3,8.4,6.9,16.6,10.8,24.8c0.4,0.8,0.7,1.6,1.2,2.4
				c-2.9,4.6-6.8,8.6-11.3,11.6c-5,3.4-10.8,5.6-16.8,6.3c-5.9,0.8-12,0.1-17.7-1.8c1.4-1.6,3.5-2,5.4-2.5c2.6-0.6,5.2-1.5,7.5-3
				c1.5-1,2.9-2.3,4.1-3.7c1.8-2.2,3.7-4.3,6.2-5.5c2.5-1.3,5.4-1.5,8.1-2.1c1-0.2,2-0.3,2.9-0.9c0.5-0.3,0.9-0.6,1.4-0.9
				c0.9-0.7,1.9-1.3,2.7-2.2c-3.5-0.1-7.1,0-10.6,0c-4.7,0-9.4,0-14.2,0c0,0.1,0,0.4,0,0.5c-0.4-0.2-0.8-0.5-1.3-0.5
				c-6,0-11.9,0-17.9,0c-1.5,0.2-2.9,0.1-4.4,0.1c-4.1,0-8.3,0-12.4,0c0,0.1,0,0.2-0.1,0.2c-0.1-0.1-0.1-0.2-0.2-0.3
				c5.3,0,10.5,0,15.8,0c0.3,0,0.5-0.1,0.7-0.2c1.2-0.7,2.4-1.4,3.7-1.9c1.6-0.8,3.4-1,5.1-1.3c0.9-0.1,1.8-0.2,2.7-0.2
				c0.1-0.2,0.1-0.3-0.1-0.5c-1.5-1.6-2.7-3.6-2.8-5.9c-0.1-2.1,0.8-4.1,2-5.8c-2.2-0.3-4.4,0.5-6.2,1.6c0.3-1.1,0.8-2.1,1.4-3
				c-2-0.7-4.1-0.8-6.2-0.5c0.3,0.2,0.7,0.5,1,0.8c-0.7-0.2-1.3-0.5-2-0.6c-0.7,0-1.4,0.3-2.1,0.6c0.3-0.3,0.6-0.5,0.9-0.8
				c-2.3-0.2-4.8-0.1-7,0.8c2.1-2.1,5.4-2.5,8.1-1.4c2.4-1,5.4-0.7,7.5,0.9c1-1.5,2.4-2.8,4.1-3.4c0.2-0.1,0.5-0.2,0.7-0.3
				c0.9,0,1.8,0,2.6-0.4c0,0,0.1,0,0.1-0.1c-0.1-0.2-0.2-0.3-0.2-0.5c-0.1-0.2-0.2-0.3-0.3-0.5c-0.6-1.3-1-2.6-1-4
				c-0.1-1.5,0.3-3,1-4.4c-0.2-1.7-0.1-3.4,0.4-5c0.7-2.2,2-4.1,3.8-5.5c1.7-1.4,3.8-2.4,5.9-3.1c0.1-0.1,0.3-0.2,0.3-0.3
				c-3.2,0.3-6.5,1.3-9.2,3c-1.8,0.8-3.4,2-4.8,3.5c-0.2,0.2-0.3,0.4-0.4,0.6c0,0-0.1,0-0.2,0c0-0.3-0.1-0.7-0.2-1
				c-0.1-1.9-0.2-3.8,0.3-5.6c0.5-2,1.5-3.7,2.9-5.2c1.6-1.6,3.6-2.7,5.7-3.4c0.2,0,0.2-0.3,0-0.4c-0.6-0.5-1.3-1-2-1.4
				c-0.1,0-0.2-0.1-0.3-0.2c-1.9-1-4.1-1.5-6.2-1.5c2.6-2.1,5.8-3.5,9.2-3.6c3-0.1,6,0.8,8.4,2.6C54.7,16.7,55.9,13.3,58.2,10.8z
				 M61.7,10c-2.4,2-4.2,4.7-5,7.7c-0.8,2.7-0.7,5.6-0.1,8.3c0.8-0.2,1.6-0.5,2.4-0.8c-0.7-2.9-1-6.1,0-9c-0.2,2.7,0.2,5.5,0.9,8.1
				c0.3-1.7,0.7-3.5,1.6-5c-0.5,0.1-1,0.3-1.4,0.4c0.2-2.2,0.8-4.4,2-6.3c-0.4,0.1-0.8,0.2-1.3,0.3c0.3-1.5,0.8-3,1.6-4.3
				C62.1,9.6,61.9,9.8,61.7,10z M66.2,15.3c-1.7,1.5-2.9,3.6-3,5.9c0.9-1.3,1.7-2.7,2.7-3.9c1.7-2.1,3.8-3.7,6.1-5.2
				C69.9,12.8,67.9,13.8,66.2,15.3z M70.2,19.7c-2.1,1-3.8,2.5-5,4.5c0.3,0.1,0.7,0.3,1,0.5c1.4-1.2,3.1-2.1,4.8-2.8
				c0.6-0.2,1.2-0.3,1.7-0.6c-0.9-0.2-1.8-0.1-2.7-0.1c2.8-1.8,6.3-2,9.6-1.9c-0.6-0.3-1.2-0.3-1.8-0.5
				C75.3,18.4,72.6,18.6,70.2,19.7z M41.8,20c2.3,0.9,4.7,1.9,6.6,3.6c1.7,0.2,3.5,0.4,5.1,1.1c-1.4-2.1-3.8-3.4-6.1-4.2
				c2.2,0,4.4,0.6,6.5,1.2c-0.2-0.2-0.3-0.3-0.5-0.5C50,19,45.6,18.5,41.8,20z M44.7,27.3c-2.3,1.2-4.2,3-5.6,5.2
				c-0.6,1-1.2,2-1.3,3.2c0.7-0.3,1.5-0.5,2.2-0.9c0.4-0.6,0.7-1.2,1.1-1.8c1.2-1.6,2.7-3,4.4-3.8c-1.2,1.3-2.5,2.6-3.1,4.3
				c0.8-0.2,1.6-0.5,2.4-0.8c0.2,0,0.3-0.2,0.4-0.3c1.2-1.6,2.7-3,4.5-3.9c-1,1.1-2.1,2.1-2.5,3.6c1-0.3,2.1-0.5,3.1-0.8
				c0.9-0.9,1.8-1.9,3-2.3c-0.3,0.6-0.8,1.2-1.1,1.8c1,0.1,2,0.2,3,0.3c0.3-1.2,0.3-2.5,1.3-3.4c-1.2-0.7-2.5-1.1-3.8-1.4
				C50.1,25.9,47.2,26.1,44.7,27.3z M59.5,27c-1,0.2-1.7,1.2-2,2.2C57,31,57.3,33,57.8,34.8c0.2,0.5,0.3,1.1,0.6,1.5
				c0.1-1.3,0.7-2.5,1.4-3.5c0.2,0.8,0,1.6,0.1,2.4c0.2,3.2,0.9,6.4,2.3,9.2c0.2-1,0.6-1.9,1.2-2.7c0.3,3.5,1.1,7.1,3.3,10
				c0.6-4.8,0.3-9.8-1-14.4c-0.7-2.4-1.7-4.6-2.9-6.8c1.5,1,2.2,2.6,3,4.1c-0.3-2.3-1-4.6-2.6-6.3C62.4,27.4,60.9,26.7,59.5,27z
				 M69.2,27.1c1.9,0.9,3.9,1.7,5.7,2.9c-0.3-0.6-0.7-1-1-1.6c2.8,0.6,5.4,1.9,7.7,3.5c-1.1-1.5-2.6-2.7-4.2-3.5
				C74.9,27.1,71.9,26.8,69.2,27.1z M68.1,32.5c0.3,0.8,0.5,1.6,0.8,2.4c0.7,0.5,1.5,0.9,2.3,1.4c1.9,1.2,3.4,2.9,4.3,4.9
				c-1.7-1.8-3.8-3.3-6.2-3.9c0.1,0.6,0,1.2,0.1,1.8c3.2,1.7,6,4.5,7.1,8c0.2,0.5,0.2,1,0.5,1.4c0.6-2.5,0.6-5.2-0.1-7.7
				c-0.8-2.8-2.5-5.4-5.1-6.9C70.7,33.2,69.4,32.7,68.1,32.5z M48.8,36.8c-2.4,1.9-4.2,4.5-5.1,7.4c-0.1-0.2-0.1-0.4-0.1-0.6
				c0.1-1.6,0.5-3.1,1.3-4.5c0.2-0.4,0.5-0.7,0.7-1.1c-1.3,0.7-2.3,1.9-2.9,3.3c-0.9,2.1-0.8,4.6-0.3,6.8c0,0,0.1,0,0.1,0
				c1.1-2.4,2.5-4.7,4.1-6.8c1-1.2,2-2.4,3.2-3.2c-0.5,0.8-1.1,1.7-1.3,2.6c1.5-1.8,3.1-3.5,5.1-4.7c-0.1,0.6-0.6,1-0.8,1.5
				c1.1-0.5,2.3-1,3.5-1.4c-0.2-0.9-0.3-1.8-0.3-2.7C53.5,34,51,35.1,48.8,36.8z M52.4,43.4c-0.8,2.8-0.5,5.8,0.5,8.5
				c0.6,1.3,1.2,2.7,2.2,3.7c-0.3-1.8-0.3-3.8,0.1-5.6c0.7-3,2.4-5.7,4.6-7.8c-0.7-0.5-1.7-0.7-2.5-0.2c-1.2,0.7-2,2-2.6,3.3
				c-0.2,0-0.4-0.1-0.5-0.3c0.9-2.4,2.2-4.6,3.7-6.7c-0.3-0.3-0.6-0.7-0.9-1C54.8,38.8,53.1,41,52.4,43.4z M45.2,46.3
				c-0.6,1-1,2-1.5,3c0.3,0.6,0.5,1.2,0.9,1.7c0-1.4,0.3-2.8,0.9-4c1.1-2,2.8-3.6,4.8-4.6c-0.1,0.2-0.2,0.4-0.4,0.5
				c-0.8,1.6-1.6,3.2-2,5c-0.5,1.7-0.5,3.6-0.2,5.3c0,0.1,0.1,0.2,0.2,0.3c0.1-0.2,0.2-0.5,0-0.7c0.2-0.5,0.2-1,0.3-1.4
				c0.2-0.6,0.4-1.3,0.7-1.9l0-0.1c0,0,0.2-0.1,0.2-0.2L49.1,49c0.3-0.2,0.4-0.6,0.7-0.9c0-0.1,0.1-0.2,0.1-0.2
				c0-1.9,0.2-3.8,0.9-5.6c0.2-0.5,0.5-1,0.9-1.5C48.9,41.6,46.7,43.8,45.2,46.3z M45.9,49.3c-0.2,1.3,0,2.8,0.7,4
				c0-1.8-0.1-3.6,0.3-5.3c0.2-1,0.7-2,0.9-3C46.9,46.2,46.2,47.7,45.9,49.3z M41.1,51.6c0.3,2.6,1.7,5,3.7,6.8
				c0.4-0.4,0.7-0.9,1-1.3c-1.5-1.3-2.8-2.8-3.4-4.7c1.1,1.4,2.1,2.8,3.6,3.8c-0.5-1-0.9-2.1-1-3.2c-0.2,0.2-0.4,0.5-0.7,0.7
				c-0.5-0.8-0.9-1.7-1.1-2.7c-0.2,0.4-0.3,0.8-0.4,1.3c0,0-0.1-0.1-0.2-0.2c-0.6-1.1-1.1-2.2-1.4-3.3C41,49.7,41.1,50.7,41.1,51.6z
				 M48.9,54.1c0.2,0,0.5-0.1,0.7-0.1c0.2-0.8,0.6-1.6,0.9-2.3c-0.2-0.7-0.3-1.5-0.5-2.2C49.1,50.8,48.8,52.5,48.9,54.1z M64.4,53.9
				c-0.8,0.5-1.8,0.6-2.7,0.3c-0.4-0.2-0.8-0.6-1.2-0.8c-1.2,0.1-2.3,0.5-3.3,1C57,54.9,57.1,55.5,57,56c3,0.2,5.9,1.8,7.7,4.4
				c0.9,1.4,1.4,3,1.3,4.6c-0.4-0.3-0.8-0.8-1.2-1.1c-1.9-1.5-4.2-2.4-6.6-2.3c0.8,1,1.3,2.1,1.8,3.2c0.6,0.6,1.4,0.9,2,1.4l0.2,0
				l-0.1,0.1c3.5,2.2,7.2,4.1,11,5.8c-1.1-2.4-2.1-4.8-3.2-7.2c-0.6-1.5-1.3-3-1.9-4.6c-0.9-2.3-1.9-4.6-2.8-6.9
				C64.8,53.5,64.6,53.6,64.4,53.9z M52.6,56.5c-0.2,0-0.2,0.4,0.1,0.3C53,56.7,52.9,56.3,52.6,56.5z M56.9,56.8
				c0,0.5-0.1,1-0.1,1.6c1.5-0.1,3,0.2,4.2,1c-1.4-0.3-2.9-0.3-4.2,0c0,0.4,0,0.8,0,1.2c2.2-0.2,4.5,0,6.4,1.1
				c0.6,0.3,1,0.7,1.5,1.1c-0.5-1.3-1.3-2.5-2.3-3.5C61,57.8,59,56.8,56.9,56.8z M34.4,60.8c1.4-0.2,2.8-0.7,4.2-0.6
				c0.3,0,0.7,0.1,1.1-0.1c0.8-0.4,1.5-0.8,2.4-1.1c0.2-0.1,0.4-0.1,0.5-0.3c-1.5-0.5-3.2-0.3-4.7,0.1c0.7-0.5,1.5-0.8,2.2-1.2
				c0.5-0.3,1.1-0.3,1.6-0.7C38.8,57,36.1,58.6,34.4,60.8z M46.9,57.8c-0.6,0.8-0.4,1.8,0,2.6c0.7,1.2,1.8,2.2,3,2.9
				c-0.4-0.8-0.6-1.6-0.6-2.5c1.5,2.2,3.5,4.1,5.9,5.5c-0.3-0.6-0.5-1.2-0.4-1.9c0.5,0.4,0.9,0.9,1.3,1.4c1.2,1.2,2.7,2.2,4.3,2.8
				c-1.5-3-3.8-5.7-6.5-7.8c-1.1-0.9-2.4-1.6-3.7-2.2c1-0.1,2,0.5,2.9,0.9c-0.2-0.4-0.5-0.6-0.8-0.8c-0.9-0.7-1.9-1.3-3-1.5
				C48.4,56.9,47.5,57.2,46.9,57.8z M40.2,62c-1.8,1.8-2.5,4.5-2.3,7c0.1,0.7,0.1,1.4,0.5,2c0.3-0.5,0.6-0.9,0.9-1.4
				c-0.3-1.7,0-3.5,0.7-5c0,1.1-0.2,2.3,0.1,3.4c0.5-0.4,0.8-0.9,1.1-1.5c0-1.4,0.2-2.9,1-4.1c-0.3,0.9-0.3,1.9-0.1,2.8
				c0.6-0.3,0.9-1,1.3-1.5c0.3-0.8,0.2-1.8,0.8-2.5c0.1,0.4,0.1,0.9,0.1,1.3c0.7-0.2,1.2-0.7,1.8-1c-0.3-0.7-0.8-1.5-0.7-2.3
				C43.5,59.5,41.7,60.6,40.2,62z M44.4,70c-0.1,1.2,0.2,2.3,0.5,3.4c-0.8-1.3-1.3-2.7-1.3-4.2c-0.4,0.6-0.4,1.2-0.5,1.9
				c0,1.9,1.3,3.7,2.7,4.9c-0.2-1-0.2-1.9-0.4-2.9c0-1.1,0-2.2,0-3.3c0.2-0.7,0.2-1.5,0.5-2.1c0.1,0.6,0,1.2,0.3,1.8
				c0.2-1.5,0.3-3.1,1.1-4.4c0,0.4,0,0.7,0.1,1.1c0.5-0.6,0.9-1.4,1.4-2c-0.5-0.4-0.9-0.8-1.2-1.3C45.7,64.6,44.5,67.2,44.4,70z
				 M40.7,69.4c-0.1,0.1-0.2,0.3-0.2,0.4c-0.7,1.3-1,2.7-1.1,4.1c1.1-0.2,2.3-0.1,3.5-0.2c-0.8-1.7-0.9-3.6-0.4-5.3
				c0.5-1.7,1.5-3.3,2.6-4.6C43.2,65.3,41.6,67.2,40.7,69.4z M49.4,64.5C48.7,66.6,48.8,69,50,71c1.2,2,3.3,3.6,5.5,4.2
				c-0.7-0.8-1.4-1.6-1.8-2.6c-1-2-1.1-4.3-0.8-6.6c-0.5,0.1-1,0.2-1.3,0.6c-0.6,0.9-0.5,2-0.3,3c0.1,0.7,0.4,1.3,0.4,2.1
				c-1.2-2.1-1.3-4.6-1.4-7C50.1,64.6,49.7,64.5,49.4,64.5z M47.4,69.3c-0.7,1.2-0.9,2.6-0.9,3.9c1-0.1,2-0.3,3-0.5
				c-0.8-1.3-1.7-2.7-1.6-4.2C47.7,68.7,47.5,69,47.4,69.3z M62.3,70c1.3,0.9,2.7,1.8,4.1,2.6c2.8,1.7,5.6,3.4,8.4,5
				c0.3,0.2,0.7,0.4,1.1,0.6c-0.5-1.1-1-2.2-1.5-3.2c-0.1-0.4-0.6-0.4-1-0.6c-0.3,0.3-0.6,0.7-1,1c0.2-0.4,0.4-0.8,0.6-1.2
				c-3.3-1.5-6.7-2.9-9.9-4.7C62.8,69.2,62.4,69.7,62.3,70z M60,69.9c0,0.3-0.1,0.7-0.1,1c0.5,0,1,0.1,1.5,0
				c0.1,0.1,0.3,0.1,0.4,0.2c-0.2-0.2-0.4-0.3-0.6-0.4C60.8,70.4,60.4,70.2,60,69.9z"/>
		</g>
	</g>
	<g>
		<path class="st2" d="M61.7,10c0.2-0.2,0.5-0.4,0.8-0.5c-0.8,1.3-1.3,2.8-1.6,4.3c0.4-0.1,0.9-0.2,1.3-0.3c-1.3,1.9-1.8,4.1-2,6.3
			c0.5-0.1,1-0.3,1.4-0.4c-1,1.5-1.4,3.2-1.6,5c-0.8-2.6-1.1-5.4-0.9-8.1c-1,2.9-0.7,6,0,9c-0.8,0.2-1.6,0.5-2.4,0.8
			c-0.6-2.7-0.7-5.6,0.1-8.3C57.5,14.7,59.3,12,61.7,10z"/>
		<path class="st2" d="M48.8,36.8c2.2-1.7,4.7-2.8,7.4-3.4c0,0.9,0.1,1.8,0.3,2.7c-1.2,0.4-2.3,0.9-3.5,1.4c0.2-0.5,0.7-1,0.8-1.5
			c-2,1.2-3.7,2.9-5.1,4.7c0.2-1,0.8-1.8,1.3-2.6c-1.3,0.8-2.3,2-3.2,3.2c-1.6,2.1-3,4.4-4.1,6.8c0,0-0.1,0-0.1,0
			c-0.5-2.2-0.6-4.6,0.3-6.8c0.6-1.4,1.6-2.6,2.9-3.3c-0.2,0.4-0.5,0.8-0.7,1.1c-0.8,1.4-1.2,2.9-1.3,4.5c0,0.2,0,0.4,0.1,0.6
			C44.6,41.2,46.4,38.6,48.8,36.8z"/>
		<path class="st2" d="M40.2,62c1.4-1.4,3.2-2.5,5.2-2.7c-0.1,0.8,0.3,1.6,0.7,2.3c-0.6,0.3-1.2,0.8-1.8,1c0-0.4,0-0.9-0.1-1.3
			c-0.6,0.7-0.5,1.7-0.8,2.5c-0.4,0.5-0.8,1.1-1.3,1.5c-0.2-0.9-0.2-1.9,0.1-2.8c-0.8,1.2-1,2.7-1,4.1c-0.3,0.5-0.7,1.1-1.1,1.4
			c-0.3-1.1-0.1-2.2-0.1-3.4c-0.7,1.6-1,3.3-0.7,5c-0.3,0.5-0.6,0.9-0.9,1.4c-0.4-0.6-0.4-1.3-0.5-2C37.7,66.5,38.4,63.8,40.2,62z"
			/>
	</g>
	<g>
		<path class="st3" d="M66.2,15.3c1.6-1.5,3.7-2.5,5.8-3.1c-2.2,1.5-4.4,3-6.1,5.1c-1,1.2-1.8,2.6-2.7,3.9
			C63.4,18.9,64.5,16.8,66.2,15.3z"/>
	</g>
	<g>
		<path class="st4" d="M70.2,19.7c2.4-1.1,5.1-1.2,7.7-0.8c0.6,0.1,1.2,0.2,1.8,0.5c-3.2-0.1-6.7,0.1-9.6,1.9c0.9,0,1.8,0,2.7,0.1
			c-0.6,0.2-1.2,0.3-1.7,0.6c-1.8,0.6-3.4,1.6-4.8,2.8c-0.3-0.2-0.7-0.3-1-0.5C66.4,22.2,68.2,20.6,70.2,19.7z"/>
		<path class="st4" d="M41.8,20c3.7-1.5,8.2-0.9,11.5,1.3c0.2,0.1,0.4,0.3,0.5,0.5c-2.1-0.6-4.3-1.2-6.5-1.2c2.3,0.8,4.7,2,6.1,4.2
			c-1.6-0.7-3.4-0.9-5.1-1.1C46.5,21.9,44.2,20.8,41.8,20z"/>
		<path class="st4" d="M44.7,27.3c2.5-1.3,5.3-1.5,8-1c1.3,0.2,2.7,0.6,3.8,1.4c-0.9,0.9-1,2.2-1.3,3.4c-1-0.1-2-0.2-3-0.3
			c0.3-0.6,0.7-1.2,1.1-1.8c-1.2,0.4-2.1,1.5-3,2.3c-1,0.3-2,0.6-3.1,0.8c0.5-1.4,1.5-2.5,2.5-3.5c-1.8,0.9-3.3,2.3-4.5,3.9
			c-0.1,0.1-0.2,0.3-0.4,0.3c-0.8,0.3-1.6,0.5-2.4,0.8c0.5-1.7,1.8-3,3.1-4.3c-1.8,0.9-3.3,2.3-4.4,3.8c-0.4,0.5-0.7,1.2-1.1,1.8
			c-0.7,0.3-1.5,0.6-2.2,0.9c0.2-1.2,0.8-2.2,1.3-3.2C40.5,30.4,42.4,28.5,44.7,27.3z"/>
		<path class="st4" d="M59.5,27c1.4-0.3,2.8,0.4,3.8,1.4c1.6,1.7,2.2,4.1,2.6,6.3c-0.8-1.5-1.5-3.2-3-4.1c1.2,2.1,2.2,4.4,2.9,6.8
			c1.3,4.7,1.7,9.6,1,14.4c-2.2-2.8-3-6.5-3.3-10c-0.6,0.8-1,1.7-1.2,2.7c-1.4-2.9-2.1-6.1-2.3-9.2c-0.1-0.8,0.1-1.6-0.1-2.4
			c-0.8,1-1.3,2.2-1.4,3.5c-0.3-0.5-0.4-1-0.6-1.5C57.3,33,57,31,57.5,29.1C57.8,28.2,58.5,27.2,59.5,27z"/>
		<path class="st4" d="M68.1,32.5c1.3,0.2,2.6,0.8,3.8,1.4c2.5,1.5,4.3,4.1,5.1,6.9c0.7,2.5,0.7,5.2,0.1,7.7c-0.3-0.4-0.3-1-0.5-1.4
			c-1.1-3.5-3.9-6.3-7.1-8c-0.1-0.6,0-1.2-0.1-1.8c2.4,0.6,4.5,2.1,6.2,3.9c-0.9-2-2.5-3.7-4.3-4.9c-0.7-0.5-1.5-0.9-2.3-1.4
			C68.5,34.1,68.4,33.3,68.1,32.5z"/>
		<path class="st4" d="M52.4,43.4c0.7-2.5,2.4-4.7,4.6-6.1c0.3,0.3,0.6,0.7,0.9,1c-1.5,2.1-2.8,4.3-3.7,6.7c-0.3,1-0.7,2.1-0.6,3.2
			c0.3-1,0.7-2,1.1-2.9c0.6-1.2,1.3-2.5,2.6-3.3c0.8-0.4,1.8-0.3,2.5,0.2c-2.2,2.2-3.8,4.8-4.6,7.8c-0.5,1.8-0.4,3.7-0.1,5.6
			c-1-1.1-1.6-2.4-2.2-3.7C51.9,49.3,51.6,46.2,52.4,43.4z"/>
		<path class="st4" d="M46.9,57.8c0.6-0.6,1.6-0.9,2.4-0.7c1.1,0.2,2.1,0.8,3,1.5c0.3,0.2,0.6,0.5,0.8,0.8c-0.9-0.4-1.8-1-2.9-0.9
			c1.3,0.7,2.6,1.3,3.7,2.2c2.7,2.1,5,4.7,6.5,7.8c-1.6-0.6-3.1-1.6-4.3-2.8c-0.5-0.4-0.9-1-1.3-1.4c0,0.7,0.1,1.3,0.4,1.9
			c-2.3-1.4-4.3-3.3-5.9-5.5c0,0.9,0.2,1.7,0.6,2.5c-1.2-0.7-2.3-1.7-3-2.9C46.5,59.7,46.2,58.6,46.9,57.8z"/>
	</g>
	<g>
		<path class="st5" d="M43.1,22.7c0.1,0,0.2,0.1,0.3,0.2c-0.8,0-1.7,0.1-2.5,0.3c-0.8,0-1.7,0.2-2.5,0.3c0.2-0.1,0.3-0.2,0.5-0.2
			C40.3,23,41.7,22.8,43.1,22.7z"/>
	</g>
	<g>
		<path class="st6" d="M43.4,22.9c0.7,0.4,1.4,0.8,2,1.4c0.2,0.1,0.2,0.4,0,0.4c-2.1,0.7-4.1,1.8-5.7,3.4c0.1-0.3,0.2-0.5,0.3-0.8
			c-0.1-0.1-0.2-0.2-0.2-0.3c0.1,0,0.3-0.1,0.4-0.1c-0.2-0.1-0.4-0.1-0.7-0.2c-0.1,0.1-0.2,0.3-0.3,0.5c-0.9-0.2-1.9-0.1-2.8-0.1
			c-1.9,0-3.8-0.1-5.6,0.1c-0.4,0-0.7-0.3-1-0.5c2.2-1.1,4.6-2,7-2.6c0.6-0.1,1.2-0.4,1.8-0.4c0.8,0,1.7-0.3,2.5-0.3
			C41.8,23,42.6,22.9,43.4,22.9z"/>
	</g>
	<g>
		<path class="st7" d="M28.9,26.8c0.2-0.1,0.5-0.3,0.7-0.3c0.3,0.2,0.6,0.5,1,0.5c1.9-0.2,3.8-0.1,5.6-0.1c1,0,1.9-0.1,2.8,0.1
			c0.1-0.1,0.2-0.3,0.3-0.5c0.2,0.1,0.4,0.1,0.7,0.2c-0.1,0-0.3,0.1-0.4,0.1c0.1,0.1,0.2,0.2,0.2,0.3c-0.1,0.3-0.2,0.5-0.3,0.8
			c-1.4,1.4-2.4,3.2-2.9,5.2c-0.5,1.8-0.4,3.8-0.3,5.6c-0.5-1.4-0.1-2.9-0.3-4.3c0,0.1-0.1,0.2-0.2,0.3c-0.3,0.1-0.6,0.2-1,0.1
			c-4.5,0-9,0-13.6,0c-0.4,0-0.7-0.4-1.1-0.5c-0.2,0.2-0.3,0.4-0.5,0.7c-0.1-0.2-0.3-0.4-0.4-0.6c-0.1,0.1-0.3,0.2-0.4,0.4
			c0-0.2-0.1-0.4-0.2-0.6C21.7,31.3,25.2,28.8,28.9,26.8z"/>
	</g>
	<g>
		<path class="st8" d="M69.2,27.1c2.8-0.3,5.7,0,8.2,1.3c1.6,0.8,3.2,2,4.2,3.5c-2.3-1.6-4.9-2.9-7.7-3.5c0.3,0.5,0.7,1,1,1.6
			C73.1,28.8,71.1,28,69.2,27.1z"/>
		<path class="st8" d="M41.1,51.6c-0.1-0.9-0.2-1.9,0.1-2.8c0.4,1.2,0.8,2.3,1.4,3.3c0,0,0.1,0.1,0.2,0.2c0.1-0.4,0.1-0.9,0.4-1.3
			c0.2,0.9,0.6,1.8,1.1,2.7c0.2-0.2,0.4-0.5,0.7-0.7c0.1,1.1,0.5,2.2,1,3.2c-1.4-1-2.5-2.4-3.6-3.8c0.7,1.9,2,3.4,3.4,4.7
			c-0.4,0.4-0.6,0.9-1,1.3C42.9,56.7,41.4,54.3,41.1,51.6z"/>
		<path class="st8" d="M44.4,70c0.1-2.7,1.3-5.3,3.1-7.3c0.3,0.5,0.8,0.9,1.2,1.3c-0.5,0.7-0.8,1.4-1.4,2c0-0.4,0-0.7-0.1-1.1
			c-0.8,1.3-0.9,2.9-1.1,4.4c-0.3-0.5-0.2-1.2-0.3-1.8c-0.3,0.7-0.3,1.4-0.5,2.1c-0.2,0.3-0.3,0.7-0.2,1c0,0.8-0.1,1.6,0.2,2.3
			c0.2,1,0.2,1.9,0.4,2.9c-1.4-1.2-2.7-2.9-2.7-4.9c0-0.6,0.1-1.3,0.5-1.9c-0.1,1.5,0.5,2.9,1.3,4.2C44.6,72.3,44.3,71.1,44.4,70z"
			/>
	</g>
	<g>
		<path class="st9" d="M68.2,30.5c0.8,0,1.6,0.1,2.4,0.3c0.6,0.2,1.1,0.8,1.7,1.2c1.2,1.1,2.4,2.1,3.4,3.4c-0.1,0-0.3,0-0.3,0
			c-1.7-2-3.9-3.6-6.4-4.4C68.6,30.9,68.2,30.9,68.2,30.5z"/>
	</g>
	<g>
		<path class="st10" d="M41.9,35.7c2.8-1.8,6-2.7,9.2-3c-0.1,0.1-0.3,0.2-0.3,0.3c-2.1,0.6-4.2,1.6-5.9,3.1
			c-1.8,1.4-3.1,3.4-3.8,5.5c-0.2,0-0.4-0.1-0.6-0.2c0,0.2,0,0.5-0.1,0.7c-0.3-0.3-0.8-0.4-1.2-0.5c0.3-0.1,0.6-0.2,0.8-0.2
			c-1.2-0.1-2.4-0.1-3.6,0c0.2,0.1,0.4,0.2,0.7,0.2c-1.4,0.1-2.7,0-4.1,0c-6.3,0-12.5,0-18.8,0c-0.3,0-0.5,0.1-0.7,0.2
			c-0.1,0-0.2-0.1-0.3-0.1c1-1.8,2.2-3.5,3.5-5.1c0.7-0.8,1.3-1.6,2.1-2.3c0.1,0.2,0.2,0.4,0.2,0.6c0.1-0.1,0.3-0.2,0.4-0.4
			c0.1,0.2,0.3,0.4,0.4,0.6c0.1-0.2,0.3-0.5,0.5-0.7c0.4,0.1,0.6,0.5,1.1,0.5c4.5,0,9,0,13.6,0c0.3,0,0.6,0,1-0.1
			c0-0.1,0.1-0.2,0.2-0.3c0.2,1.4-0.2,2.9,0.3,4.3c0.1,0.3,0.1,0.7,0.2,1c0,0,0.1,0,0.2,0c0.3,0,0.6-0.3,0.4-0.6
			C38.5,37.7,40.1,36.6,41.9,35.7z"/>
	</g>
	<g>
		<path class="st11" d="M75.3,35.3c0.1,0,0.3,0,0.3,0l0.1,0c2.5,2.8,4.6,5.8,6.1,9.2c0.1,0.3,0.2,0.8-0.3,0.9c0-0.3,0.1-0.5,0-0.8
			c-0.2-0.3-0.6-0.3-1-0.3c-0.4,0.3-0.7,0.7-0.9,1.1c-0.1-0.3-0.1-0.7-0.5-0.8c0-0.3-0.1-0.6-0.1-1c-0.1,0.1-0.1,0.3-0.2,0.3
			C78.7,40.9,77.4,37.8,75.3,35.3z"/>
	</g>
	<g>
		<path class="st12" d="M36.7,39.8c0.1-0.2,0.2-0.4,0.4-0.6C37.3,39.5,37.1,39.9,36.7,39.8z"/>
	</g>
	<g>
		<path class="st13" d="M45.2,46.3c1.4-2.5,3.6-4.6,6.4-5.4c-0.3,0.5-0.6,0.9-0.9,1.5c-0.1,0-0.3,0-0.4,0.1c-2,1-3.7,2.7-4.8,4.6
			C45.5,46.7,45.3,46.5,45.2,46.3z"/>
	</g>
	<g>
		<path class="st14" d="M70.1,41.3c0.6,0.3,1.1,0.8,1.6,1.3c1.8,1.7,3.2,3.9,4.1,6.2c0.1,0.7-0.3,1.2-0.5,1.8
			c-0.6,0.2-0.6-0.6-0.8-1c-0.1,0.4-0.2,0.7-0.2,1.1c-0.5,0-1,0.4-1.5,0.2c-0.2-0.4,0.3-0.6,0.6-0.7c0,0-0.1-0.2-0.1-0.2
			c-0.4-0.1-0.9-0.1-1.2,0.2c0.1,0.1,0.2,0.2,0.2,0.3c-0.4,0-0.7-0.1-1.1-0.2c-0.1,0.1-0.1,0.2-0.2,0.4c-0.5-1.2-0.9-2.4-1.3-3.6
			c-0.1-0.3-0.1-0.7,0-1C70,44.5,70.1,42.9,70.1,41.3z"/>
	</g>
	<g>
		<path class="st15" d="M36.4,41.5c1.2-0.1,2.4-0.1,3.6,0c-0.3,0.1-0.6,0.1-0.8,0.2c0.4,0.1,0.9,0.2,1.2,0.5c0-0.2,0-0.5,0.1-0.7
			c0.2,0,0.4,0.1,0.6,0.2c-0.5,1.6-0.6,3.3-0.4,5c-0.6,1.4-1,2.8-1,4.4c-0.3-0.4-0.8-0.6-1.1-0.9c-1-0.8-2.2-1.4-3.3-1.9
			c0.9-0.5,1.9,0.3,2.8,0.1c0.1,0,0.2,0,0.3,0c-0.7-0.6-1.5-1-2.4-1.2c0.1,0,0.4,0,0.5-0.1c-0.7-0.4-1.4-0.3-2.1-0.3
			c-0.4,0-0.9,0-1.3,0.3c0.1,0,0.3,0,0.4,0.1c-0.2,0-0.4,0.1-0.6,0.2c-1.6-0.6-3.3-0.7-4.9-0.9c-4-0.2-8.1,0.8-11.5,2.9
			c-0.6-0.2-1.1,0.3-1.6,0.6c-0.7,0.4-1.1,1.1-1.8,1.5c0-0.2,0-0.3,0-0.5c-0.4,0-0.5,0.4-0.6,0.7c-0.3-0.3-0.6-0.3-1-0.2
			c0,0.1-0.1,0.3-0.1,0.4c-0.1-0.1-0.2-0.1-0.3-0.2c-0.5,0.1-1-0.3-1.4,0.1c0.3,0.3,0.6,0.7,0.5,1.1c-0.2-0.2-0.4-1-0.8-0.6
			c0-0.4,0.1-0.8,0.1-1.3c0.1-1.2,0.8-2.2,0.7-3.4c0.7-2.1,1.7-4,2.8-5.9l0.1,0c0.1,0,0.2,0.1,0.3,0.1c0.2-0.1,0.5-0.2,0.7-0.2
			c6.3,0,12.5,0,18.8,0c1.4,0,2.7,0,4.1,0C36.9,41.7,36.7,41.6,36.4,41.5z"/>
	</g>
	<g>
		<path class="st16" d="M50.4,42.3c0.1,0,0.3,0,0.4-0.1c-0.7,1.8-0.9,3.7-0.9,5.6c0,0.1-0.1,0.2-0.1,0.2c0.1-1.3-0.2-2.7,0.3-4
			c0.1-0.4-0.1-0.8-0.1-1.2C50.1,42.7,50.2,42.5,50.4,42.3z"/>
	</g>
	<g>
		<path class="st17" d="M48,47.8c0.3-1.8,1.2-3.4,2-5c0,0.4,0.2,0.8,0.1,1.2c-0.4,1.3-0.2,2.7-0.3,4c-0.2,0.3-0.4,0.6-0.7,0.9
			c0,0.1-0.1,0.2-0.2,0.3l0,0.1c-0.3,0.6-0.5,1.3-0.7,1.9c-0.1,0.2-0.3,0.3-0.4,0.5c0-1-0.1-2,0.1-3C48.1,48.5,48.1,48.2,48,47.8z"
			/>
	</g>
	<g>
		<path class="st18" d="M79.1,43.8c0,0.3,0.1,0.6,0.1,1c0.4,0.1,0.4,0.4,0.5,0.8c0.2-0.4,0.5-0.9,0.9-1.1c0.3,0,0.7,0.1,1,0.3
			c0.1,0.3,0,0.5,0,0.8c0.5-0.1,0.4-0.6,0.3-0.9c0.9,1.7,1.6,3.6,2.2,5.5c-0.1,0.4-0.2,0.9-0.5,1.2c-0.7,0.2-1.5,0.4-2.1,0
			c-0.7,0.4-1.6,0.2-2.4,0.2c-0.1-0.4-0.1-0.9-0.6-0.9c0,0.3-0.1,0.5-0.1,0.8c-0.2-0.2-0.4-0.4-0.7-0.6c1.1-2,1.5-4.3,1.4-6.5
			C79,44.1,79.1,43.9,79.1,43.8z"/>
	</g>
	<g>
		<path class="st19" d="M45.9,49.3c0.2-1.6,1-3,2-4.3c-0.3,1-0.7,1.9-0.9,3c-0.5,1.7-0.4,3.6-0.3,5.3C45.9,52.1,45.7,50.6,45.9,49.3
			z"/>
	</g>
	<g>
		<path class="st20" d="M53.6,48.2c-0.1-1.1,0.3-2.2,0.6-3.2c0.1,0.2,0.3,0.3,0.5,0.3C54.2,46.3,53.9,47.3,53.6,48.2z"/>
	</g>
	<g>
		<path class="st21" d="M45.2,46.3c0.1,0.2,0.2,0.5,0.4,0.7c-0.7,1.2-1,2.6-0.9,4c-0.4-0.5-0.6-1.1-0.9-1.7
			C44.2,48.2,44.6,47.2,45.2,46.3z"/>
	</g>
	<g>
		<g>
			<path class="st22" d="M16.5,49.4c3.4-2.1,7.5-3.1,11.5-2.9c1.7,0.2,3.3,0.3,4.9,0.9c-0.1,0-0.2,0.1-0.3,0.1
				c-1.9-0.8-4.3-0.5-5.8,1c1.6-0.6,3.3-0.8,5-0.6c-0.2,0.2-0.4,0.3-0.6,0.5c0.5-0.1,0.9-0.3,1.4-0.4c0.5,0.1,1,0.3,1.4,0.4
				c-0.2-0.2-0.4-0.4-0.7-0.5c0.3,0,0.6,0,0.9,0c0.3,0.1,0.6,0.3,0.9,0.4c1.2,0.5,2.3,1.2,3.3,1.9c0.4,0.3,0.8,0.5,1.1,0.9
				c0,1.4,0.5,2.8,1,4c-0.1,0-0.3,0-0.4,0.1c-3.2,0.2-6.3,0.5-9.4,0.8c0.7,0.2,1.4,0.2,2.1,0.3c1,0.1,2,0.2,3,0.2
				c0.6,0.2,1.3,0,1.8,0.3c-1.7,0.7-3.1,1.9-4.1,3.4c-2.1-1.6-5.1-1.8-7.5-0.9c-2.7-1.1-6-0.7-8.1,1.4c2.2-0.9,4.6-1.1,7-0.8
				c-0.3,0.3-0.6,0.5-0.9,0.8c0.7-0.2,1.3-0.5,2.1-0.6c0.7,0.1,1.4,0.4,2,0.6c-0.3-0.3-0.6-0.5-1-0.8c2.1-0.2,4.2-0.1,6.2,0.5
				c-0.6,0.9-1,2-1.4,3c1.8-1.2,4-1.9,6.2-1.6c-1.3,1.6-2.1,3.7-2,5.8c0.1,2.2,1.2,4.3,2.8,5.9c0.2,0.1,0.2,0.3,0.1,0.5
				c-0.9,0-1.8,0.1-2.7,0.2c-1.7,0.2-3.5,0.5-5.1,1.3c-1.3,0.6-2.5,1.2-3.7,1.9c-5.5,0-11,0-16.5,0c-0.5-0.7-0.7-1.6-1.1-2.4
				c-1.6-4.3-2.5-9-2.4-13.6c0.1-0.9-0.4-1.8-0.1-2.7c0.2,0.4,0,0.9,0.1,1.4C8.1,60,8,59.7,8,59.5l0.1,0l0.1,0
				C9.6,55.3,12.7,51.7,16.5,49.4z M11.7,55.4c1.6-0.5,3.2-0.7,4.9-0.5c-0.2,0.2-0.4,0.4-0.5,0.5c0.5-0.1,0.9-0.3,1.4-0.4
				c0.5,0.1,0.9,0.3,1.4,0.4c-0.2-0.2-0.4-0.3-0.6-0.5c1.6-0.2,3.3,0,4.9,0.5c-1.4-1.5-3.8-1.7-5.7-1C15.6,53.7,13.2,53.9,11.7,55.4
				z"/>
		</g>
		<path class="st22" d="M59.9,70.8c0.4-0.1,0.9-0.1,1.3-0.1c0.2,0.1,0.4,0.2,0.6,0.4c-0.1,0-0.3-0.1-0.4-0.2
			C61,70.6,60.4,70.9,59.9,70.8z"/>
	</g>
	<g>
		<path class="st23" d="M33.1,47.1c0.3-0.3,0.8-0.2,1.3-0.3c0.7,0,1.5-0.1,2.1,0.3c-0.1,0-0.4,0-0.5,0.1c-0.8-0.2-1.7-0.1-2.5,0
			C33.4,47.1,33.2,47.1,33.1,47.1z"/>
	</g>
	<g>
		<path class="st24" d="M26.9,48.4c1.5-1.5,3.9-1.8,5.8-1c0.1,0,0.2-0.1,0.3-0.1c0.2-0.1,0.4-0.1,0.6-0.2c0.8-0.2,1.7-0.2,2.5,0
			c0.9,0.2,1.7,0.6,2.4,1.2c-0.1,0-0.2,0-0.3,0c-1.2-0.4-2.5-0.6-3.7-0.5c-0.3,0-0.6,0-0.9,0c0.2,0.2,0.4,0.3,0.7,0.5
			c-0.5-0.1-0.9-0.3-1.4-0.4c-0.5,0-1,0.3-1.4,0.4c0.2-0.2,0.4-0.4,0.6-0.5C30.2,47.6,28.5,47.8,26.9,48.4z"/>
	</g>
	<g>
		<path class="st25" d="M9,51.7c0.4-1.3,0.7-2.7,1.3-4c0,1.2-0.6,2.2-0.7,3.4c0,0.4,0,0.8-0.1,1.3c0.4-0.4,0.6,0.3,0.8,0.6
			c0.1-0.5-0.2-0.8-0.5-1.1c0.4-0.4,0.9,0,1.4-0.1c0.1,0.1,0.2,0.1,0.3,0.2c0-0.1,0.1-0.3,0.1-0.4c0.4-0.1,0.7,0,1,0.2
			c0.1-0.3,0.2-0.7,0.6-0.7c0,0.2,0,0.3,0,0.5c0.7-0.3,1.1-1.1,1.8-1.5c0.5-0.3,0.9-0.8,1.6-0.6c-3.8,2.3-6.9,5.9-8.4,10.2l-0.1,0
			c-0.2-0.1-0.2-0.3-0.2-0.5C8,56.5,8.4,54.1,9,51.7z"/>
	</g>
	<g>
		<path class="st26" d="M34.4,47.8c1.3-0.1,2.5,0.1,3.7,0.5c-1,0.2-1.9-0.6-2.8-0.1C35,48.1,34.7,47.9,34.4,47.8z"/>
		<path class="st26" d="M47.8,53.2c-0.3-1.8-0.3-3.6,0.2-5.3c0,0.3,0,0.6,0,1c-0.2,1-0.2,2-0.1,3c0.1-0.2,0.3-0.3,0.4-0.5
			c-0.1,0.5-0.1,1-0.3,1.4C47.9,52.9,47.9,53,47.8,53.2z"/>
		<path class="st26" d="M61.7,54.2c0.9,0.3,1.9,0.1,2.7-0.3c-0.1,0.1-0.2,0.2-0.2,0.3C63.4,54.5,62.4,54.8,61.7,54.2z"/>
		<path class="st26" d="M31,55.9c3.1-0.3,6.3-0.6,9.4-0.8c-1.6,0.5-3.2,0.2-4.9,0.5c-0.8,0.2-1.5,0.1-2.3,0.3c0.3,0.1,0.7,0.1,1,0.2
			c-0.4,0-0.8,0-1.1,0C32.4,56.1,31.7,56.1,31,55.9z"/>
	</g>
	<g>
		<path class="st27" d="M75.8,48.8c0.4,1.1,0.6,2.3,0.8,3.5c0.3-0.5,0.7-1,1-1.6c0.2,0.2,0.4,0.4,0.7,0.6c0-0.3,0.1-0.5,0.1-0.8
			c0.5,0,0.6,0.5,0.6,0.9c0.8,0,1.7,0.2,2.4-0.2c0.6,0.4,1.4,0.2,2.1,0c0.3-0.3,0.4-0.8,0.5-1.2c0.9,2.7,1.4,5.4,1.6,8.2
			c-0.1-0.1-0.3-0.2-0.4-0.3c-0.1-0.4-0.1-0.9-0.2-1.3c-0.2,0.2-0.3,0.3-0.5,0.5c-0.2-0.2-0.4-0.3-0.7-0.5C83.6,56.8,83.3,57,83,57
			c-2.3,0-4.6,0-6.9,0c0-0.1-0.1-0.2-0.1-0.3c-0.5,0.1-1,0.4-1.6,0.2c-0.1-0.2-0.1-0.4-0.2-0.5c-0.1,0-0.2,0-0.3,0
			c0,0.1-0.1,0.3-0.2,0.5c-1-2-1.9-4.1-2.8-6.1c0.1-0.1,0.1-0.3,0.2-0.4c0.3,0.1,0.7,0.2,1.1,0.2c-0.1-0.1-0.2-0.2-0.2-0.3
			c0.4-0.3,0.8-0.3,1.2-0.2c0,0,0.1,0.2,0.1,0.2c-0.3,0.2-0.8,0.3-0.6,0.7c0.5,0.2,1-0.2,1.5-0.2c0-0.4,0.1-0.8,0.2-1.1
			c0.2,0.4,0.2,1.1,0.8,1C75.4,50,75.9,49.5,75.8,48.8z"/>
	</g>
	<g>
		<path class="st28" d="M49,49.3c0-0.1,0.1-0.2,0.2-0.3l0.1,0.1C49.2,49.1,49.1,49.2,49,49.3z"/>
	</g>
	<g>
		<path class="st29" d="M48.9,54.1c-0.1-1.6,0.2-3.3,1.2-4.7c0.1,0.7,0.3,1.5,0.5,2.2c-0.3,0.8-0.7,1.5-0.9,2.3
			C49.4,54,49.1,54,48.9,54.1z"/>
	</g>
	<g>
		<path class="st30" d="M47.8,53.2c0-0.2,0.1-0.3,0.2-0.4c0.1,0.2,0.1,0.5,0,0.7C47.9,53.4,47.9,53.3,47.8,53.2z"/>
	</g>
	<g>
		<path class="st31" d="M64.4,53.9c0.2-0.2,0.4-0.4,0.7-0.5c0.9,2.3,1.9,4.6,2.8,6.9c-0.1,0.1-0.2,0.2-0.2,0.3c0,0-0.1-0.1-0.2-0.1
			c-0.1,0-0.1,0.1-0.2,0.1c-0.1-0.2-0.3-0.4-0.4-0.6c-0.1,0.2-0.2,0.5-0.3,0.7c0-0.2-0.1-0.3-0.1-0.5c-0.3,0-0.6,0-0.9-0.2
			c-0.4,0.1-0.8,0.2-1.1,0.4C62.9,57.9,60,56.2,57,56c0.1-0.5,0-1.1,0.2-1.6c1-0.6,2.2-1,3.3-1c0.4,0.2,0.8,0.6,1.2,0.8
			c0.7,0.6,1.7,0.3,2.5,0C64.3,54.1,64.4,53.9,64.4,53.9z"/>
	</g>
	<g>
		<path class="st32" d="M11.7,55.4c1.5-1.5,3.9-1.7,5.8-1c1.9-0.8,4.3-0.5,5.7,1c-1.6-0.6-3.2-0.7-4.9-0.5c0.2,0.2,0.4,0.3,0.6,0.5
			c-0.5-0.1-0.9-0.3-1.4-0.4c-0.5,0-1,0.2-1.4,0.4c0.2-0.2,0.4-0.4,0.5-0.5C15,54.7,13.3,54.9,11.7,55.4z"/>
	</g>
	<g>
		<path class="st33" d="M67.8,55.1c0.4-0.1,0.9-0.2,1.3-0.2c2.4,5,5.2,9.9,8.2,14.7c-0.6,0.4-1.3,0.7-2,1.1c0.8,0,1.6-0.4,2.4-0.3
			c1.1,1.6,2,3.2,3.1,4.8c-0.6,0.4-1.2,0.7-1.8,1c0.7-0.1,1.4-0.3,2.2-0.4c0.5,0.5,0.8,1.2,1.2,1.8c0,0.2-0.2,0.4-0.2,0.7
			c-0.7,1.4-1.4,2.8-2.3,4.2c-0.5-0.8-0.8-1.6-1.2-2.4C74.7,71.7,71,63.5,67.8,55.1z"/>
	</g>
	<g>
		<path class="st34" d="M40.4,55.1c0.1,0,0.3,0,0.4-0.1c0.1,0.2,0.2,0.3,0.3,0.5c-0.1,0.1-0.2,0.2-0.3,0.3c-0.9,0-1.7,0.2-2.5,0.4
			c-0.7,0.2-1.5-0.1-2.2,0.1c-1,0-2-0.1-3-0.2c0.4,0,0.8,0,1.1,0c-0.3,0-0.7-0.1-1-0.2c0.8-0.2,1.5-0.1,2.3-0.3
			C37.2,55.4,38.8,55.6,40.4,55.1z"/>
	</g>
	<g>
		<path class="st35" d="M40.8,55.9c0.1-0.1,0.2-0.2,0.3-0.3c0.1,0.2,0.2,0.3,0.2,0.5c0,0-0.1,0-0.1,0.1c-0.9,0-1.8,0.1-2.6,0.4
			c-0.2,0.1-0.5,0.2-0.7,0.3c-0.5-0.3-1.2-0.1-1.8-0.3c0.8-0.1,1.5,0.2,2.2-0.1C39.1,56.1,40,55.9,40.8,55.9z"/>
	</g>
	<g>
		<path class="st36" d="M38.6,56.5c0.8-0.3,1.7-0.4,2.6-0.4C40.4,56.5,39.5,56.4,38.6,56.5z"/>
	</g>
	<g>
		<path class="st37" d="M73.9,56.4c0.1,0,0.2,0,0.3,0c0.1,0.2,0.1,0.4,0.2,0.5c0.5,0.2,1.1-0.1,1.6-0.2c0,0.1,0.1,0.2,0.1,0.3
			c2.3,0,4.6,0,6.9,0c0.3,0,0.6-0.2,0.9-0.3c0.2,0.2,0.4,0.3,0.7,0.5c0.2-0.2,0.3-0.3,0.5-0.5c0.1,0.4,0.2,0.8,0.2,1.3
			c0.1,0.1,0.3,0.2,0.4,0.3c0,2.2,0.1,4.4,0,6.6c-0.1,0.3-0.2,0.6-0.3,0.9c0,0-0.1-0.1-0.2-0.2c-0.3,0.5-0.8,0.3-1.2,0.3
			c-0.9-0.1-1.8,0-2.6-0.1c0.1-0.1,0.2-0.2,0.2-0.2c0.9-0.1,1.8,0.1,2.7-0.1c-0.9-0.1-1.9-0.1-2.9-0.1c-0.4-0.1-0.5,0.3-0.7,0.6
			c-0.2-0.1-0.5-0.1-0.7-0.2c-0.1,0.1-0.2,0.2-0.3,0.4c-0.2-0.2-0.3-0.3-0.4-0.5c-0.1,0.2-0.2,0.3-0.3,0.5c-1.7-3.1-3.4-6.2-5-9.4
			C73.8,56.7,73.9,56.5,73.9,56.4z"/>
	</g>
	<g>
		<path class="st38" d="M52.6,56.5c0.3-0.2,0.3,0.2,0.1,0.3C52.4,56.9,52.4,56.6,52.6,56.5z"/>
	</g>
	<g>
		<path class="st39" d="M56.9,56.8c2.1,0,4.1,1,5.6,2.5c1,1,1.8,2.2,2.3,3.5c-0.5-0.3-1-0.8-1.5-1.1c-1.9-1.1-4.2-1.4-6.4-1.1
			c0-0.4,0-0.8,0-1.2c1.4-0.4,2.9-0.4,4.2,0c-1.2-0.8-2.8-1.1-4.2-1C56.8,57.9,56.8,57.3,56.9,56.8z"/>
		<path class="st39" d="M34.4,60.8c1.7-2.3,4.4-3.8,7.2-3.7c-0.5,0.4-1.1,0.4-1.6,0.7c-0.8,0.3-1.5,0.7-2.2,1.2
			c1.5-0.4,3.2-0.6,4.7-0.1c-0.1,0.2-0.4,0.2-0.5,0.3c-0.8,0.2-1.6,0.7-2.4,1.1c-0.3,0.2-0.7,0-1.1,0.1
			C37.2,60.2,35.8,60.6,34.4,60.8z"/>
		<path class="st39" d="M49.4,64.5c0.3,0,0.6,0.1,0.9,0.2c0,2.4,0.2,4.9,1.4,7c0-0.7-0.3-1.3-0.4-2.1c-0.1-1-0.3-2.1,0.3-3
			c0.3-0.4,0.8-0.6,1.3-0.6c-0.3,2.2-0.2,4.5,0.8,6.6c0.4,1,1.1,1.8,1.8,2.6C53.3,74.5,51.2,73,50,71C48.8,69,48.7,66.6,49.4,64.5z"
			/>
	</g>
	<g>
		<path class="st40" d="M64.6,60.4c0.3-0.2,0.7-0.3,1.1-0.4c0.3,0.2,0.6,0.2,0.9,0.2c0,0.2,0.1,0.3,0.1,0.5c0.1-0.2,0.2-0.5,0.3-0.7
			c0.2,0.2,0.3,0.4,0.4,0.6c0.1,0,0.1-0.1,0.2-0.1c0,0,0.1,0.1,0.2,0.1c0.1-0.1,0.2-0.2,0.2-0.3c0.6,1.5,1.3,3,1.9,4.6
			c0,0.3-0.1,0.5-0.1,0.8c-0.7,0-1.3,0.4-2,0.4c-1.1,0-2.3,0-3.4,0c-0.1-0.2-0.1-0.3-0.2-0.5c-0.5,0.1-0.9,0.1-1.4,0.2
			c-0.3,0.2-0.4,0.5-0.6,0.6l-0.2,0c-0.6-0.5-1.4-0.9-2-1.4c-0.5-1.1-1.1-2.2-1.8-3.2c2.4-0.1,4.8,0.8,6.6,2.3
			c0.4,0.3,0.8,0.8,1.2,1.1C66,63.3,65.5,61.7,64.6,60.4z"/>
	</g>
	<g>
		<path class="st41" d="M40.7,69.4c0.9-2.3,2.5-4.2,4.4-5.7c-1.1,1.4-2.2,2.9-2.6,4.6c-0.5,1.8-0.4,3.7,0.4,5.3
			c-1.2,0.1-2.3,0-3.5,0.2c0-1.4,0.4-2.8,1.1-4.1c0.5,0.2,1,0.2,1.5,0.2c0.3-0.1,0.3-0.7,0-0.8C41.5,69.3,41.1,69.4,40.7,69.4z"/>
	</g>
	<g>
		<path class="st42" d="M69.9,64.8c1.1,2.4,2.1,4.8,3.2,7.2c-3.8-1.7-7.4-3.6-11-5.8l0.1-0.1c0.3-0.2,0.4-0.5,0.6-0.6
			c0.4-0.1,0.9,0,1.4-0.2c0.1,0.2,0.1,0.3,0.2,0.5c1.1,0.1,2.3,0,3.4,0c0.7,0,1.3-0.3,2-0.4C69.8,65.3,69.8,65,69.9,64.8z"/>
	</g>
	<g>
		<path class="st43" d="M85.2,65.8c0.1-0.3,0.2-0.6,0.3-0.9c0.1,0.9-0.2,1.8-0.2,2.7c-0.2,1.6-0.6,3.1-1,4.6
			c-0.7-0.2-1.5-0.2-2.2-0.2c-0.1-0.1-0.1-0.2-0.2-0.3c0.7,0.4,1.5,0.2,2.3,0.2c0.2-0.8,0.4-1.5,0.6-2.2c0.2-0.6,0.1-1.2,0.2-1.7
			C85.2,67.2,85.3,66.5,85.2,65.8z"/>
	</g>
	<g>
		<path class="st44" d="M80.5,66c0.2-0.3,0.3-0.7,0.7-0.6c0.9,0,1.9-0.1,2.9,0.1c-0.9,0.3-1.8,0-2.7,0.1c-0.1,0.1-0.2,0.2-0.2,0.2
			c0.9,0.1,1.8,0,2.6,0.1c0.4,0,1,0.2,1.2-0.3c0,0,0.1,0.1,0.2,0.2c0,0.7,0,1.4-0.2,2.1c-0.2,0.6-0.1,1.1-0.2,1.7
			c-0.2,0.7-0.4,1.5-0.6,2.2c-0.8,0-1.6,0.2-2.3-0.2c-1.1-1.8-2.1-3.6-3.2-5.4c0.1-0.2,0.2-0.3,0.3-0.5c0.2,0.2,0.3,0.3,0.4,0.5
			c0.1-0.1,0.2-0.3,0.3-0.4C80,65.9,80.3,66,80.5,66z"/>
	</g>
	<g>
		<path class="st45" d="M47.4,69.3c0.2-0.3,0.3-0.6,0.6-0.8c0,1.6,0.8,3,1.6,4.2c-1,0.1-2,0.4-3,0.5C46.5,71.9,46.7,70.5,47.4,69.3z
			"/>
	</g>
	<g>
		<path class="st46" d="M40.7,69.4c0.4-0.1,0.8-0.1,1.3-0.2c0.3,0.1,0.3,0.7,0,0.8c-0.5,0.1-1,0-1.5-0.2
			C40.5,69.8,40.6,69.5,40.7,69.4z"/>
	</g>
	<g>
		<path class="st47" d="M62.3,70c0.1-0.3,0.5-0.8,0.8-0.5c3.2,1.8,6.6,3.2,9.9,4.7c-0.2,0.4-0.4,0.8-0.6,1.2c0.4-0.3,0.7-0.7,1-1
			c0.3,0.1,0.8,0.2,1,0.6c0.5,1.1,1,2.2,1.5,3.2c-0.4-0.1-0.7-0.3-1.1-0.6c-2.8-1.6-5.7-3.3-8.4-5C65,71.7,63.6,70.9,62.3,70z"/>
	</g>
	<g>
		<path class="st48" d="M45.2,70.7c0-0.4,0.1-0.7,0.2-1c0,1.1,0,2.2,0,3.3C45.1,72.3,45.2,71.5,45.2,70.7z"/>
	</g>
	<g>
		<path class="st49" d="M60,69.9c0.4,0.3,0.8,0.5,1.2,0.8c-0.4,0-0.9,0.1-1.3,0.1c0.5,0,1.1-0.2,1.5,0.1c-0.5,0.1-1,0-1.5,0
			C59.9,70.6,59.9,70.3,60,69.9z"/>
	</g>
	<g>
		<path class="st50" d="M23.9,77.7c1.5,0,2.9,0.1,4.4-0.1c5.9,0,11.9,0,17.9,0c0.5,0,0.9,0.3,1.3,0.5c0-0.1,0-0.4,0-0.5
			c4.7,0,9.4,0,14.2,0c3.5,0,7.1,0,10.6,0c-0.8,0.8-1.8,1.4-2.7,2.2c-2.8-0.1-5.6,0-8.4,0c-16.3,0-32.6,0-48.9,0
			c-0.3-0.6-0.7-1.2-0.9-1.8c0-0.1,0-0.2,0.1-0.2C15.6,77.7,19.8,77.7,23.9,77.7z"/>
	</g>
	<g>
		<g>
			<path class="st0" d="M12.3,79.7c16.3,0,32.6,0,48.9,0c2.8,0,5.6,0,8.4,0c-0.4,0.3-0.9,0.7-1.4,0.9c-0.9,0.5-1.9,0.6-2.9,0.9
				c-2.7,0.6-5.6,0.8-8.1,2.1c-2.5,1.2-4.5,3.4-6.2,5.5c-1.2,1.4-2.6,2.7-4.1,3.7c-2.2,1.5-4.8,2.4-7.5,3c-1.9,0.5-4,0.9-5.4,2.5
				C24.7,95.1,16.9,88.4,12.3,79.7z M38.8,82.5c-0.4-0.1-0.8-0.3-1.3-0.3l0.1,0.2c-0.8-0.4-1.7-0.8-2.4-1.3
				c-1.4,1.5-3.1,2.6-4.9,3.5C28,85.6,25.5,86.4,23,87c4.2-0.3,8.3-1.4,12.2-3.1c0.6-0.3,1.2,0.2,1.8,0.3c5.3,1.7,11,2.4,16.5,1.5
				c-0.3-0.1-0.7-0.1-1-0.1c-4.4,0.1-8.8-0.8-12.9-2.4l0.2,0c-0.1-0.1-0.2-0.2-0.3-0.3c0.8-0.1,1.7,0.1,2.4-0.2l0-0.2
				c0.6-0.1,1.1-0.3,1.7-0.5c2.5,1.3,5.3,2.1,8.1,2.2c-0.4,0-0.8-0.1-1.1,0.2c1.4,0.1,2.8,0.1,4.1,0l-0.1-0.2c0.2,0,0.3-0.1,0.4-0.1
				c-4-0.2-8-1.4-11.2-3.8C42.4,81.4,40.6,82,38.8,82.5z M26.8,81.9c-3.1,1.8-6.6,2.6-10.1,3.1c2,0.4,4,0.4,5.9,0.3
				c1.8-0.1,3.5-0.5,5.2-0.9c-0.1,0-0.3,0-0.4,0c-0.1-0.3-0.5-0.2-0.7-0.2c-0.9,0.2-1.7,0.3-2.6,0.2c0-0.1-0.1-0.2-0.2-0.3
				c1.2-0.4,2.4-1,3.6-1.5c1.8,0.1,3.8,0.2,5.5-0.6c-1.6,0.1-3.5,0-4.7-1.2C27.7,81.2,27.3,81.6,26.8,81.9z M27.1,87.3
				c0.1,0,0.2,0,0.3,0c0,0,0.2,0.1,0.2,0.1c1,0.1,2,0,3,0c0.4,0,0.7-0.1,1.1-0.2c-0.4-0.1-0.7-0.1-1.1-0.1c1.6-0.1,3.2-0.4,4.7-1
				c-0.6,0-1.1,0.1-1.7,0c0.5-0.5,1.2-0.8,1.7-1.4C32.7,86.2,29.8,86.8,27.1,87.3z M19.3,85.4c0.6,0.2,1.2,0.1,1.8,0.1
				c0.6,0,1.3,0.1,1.9-0.2C21.8,85.4,20.6,85.3,19.3,85.4z M31.6,91.4c-0.7,0.1-1.4,0-2,0.2c3.8,0.5,7.7-0.2,11.2-1.9
				c0.2-0.1,0.4-0.2,0.6-0.1c1.5,0.4,3,0.8,4.5,0.5c-1.8-0.4-3.5-1.1-5-2.2C38.2,89.9,34.9,91,31.6,91.4z"/>
		</g>
	</g>
	<g>
		<path class="st51" d="M38.8,82.5c1.8-0.5,3.6-1.1,5-2.2C47,82.6,51,83.8,55,84c-0.2,0.1-0.3,0.1-0.4,0.1c-1,0.1-1.9,0.1-2.8,0
			c-2.8-0.2-5.6-0.9-8.1-2.2c-0.6,0.1-1.1,0.3-1.7,0.5C40.9,82.6,39.8,82.6,38.8,82.5z"/>
	</g>
	<g>
		<path class="st52" d="M26.8,81.9c0.5-0.3,1-0.7,1.5-1c1.3,1.2,3.1,1.3,4.7,1.2c-1.7,0.7-3.6,0.7-5.5,0.6c-1.2,0.5-2.4,1.1-3.6,1.5
			c-0.5,0.2-0.9,0.3-1.4,0.4c1.6,0.1,3.3,0,4.9-0.2c0.1,0,0.3,0,0.4,0c-1.7,0.4-3.4,0.8-5.2,0.9c-2,0.1-4,0.1-5.9-0.3
			C20.2,84.5,23.7,83.7,26.8,81.9z"/>
	</g>
	<g>
		<path class="st53" d="M30.3,84.5c1.8-0.9,3.5-2,4.9-3.5c0.8,0.5,1.6,0.9,2.4,1.3c0.6,0.3,1.3,0.6,2,0.9c4.1,1.6,8.5,2.5,12.9,2.4
			c0.3,0,0.7-0.1,1,0.1C48,86.6,42.3,85.8,37,84.2c-0.6-0.1-1.2-0.6-1.8-0.3c-3.9,1.7-8,2.7-12.2,3.1C25.5,86.4,28,85.6,30.3,84.5z"
			/>
	</g>
	<g>
		<path class="st54" d="M37.5,82.1c0.4,0.1,0.8,0.3,1.3,0.3c1,0.1,2.1,0.1,3.1-0.1l0,0.2c-0.8,0.3-1.6,0.2-2.4,0.2
			c0.1,0.1,0.2,0.2,0.3,0.3l-0.2,0c-0.7-0.2-1.3-0.5-2-0.9L37.5,82.1z"/>
	</g>
	<g>
		<path class="st55" d="M22.5,84.5c0.5-0.1,0.9-0.2,1.4-0.4c0,0.1,0.1,0.2,0.2,0.3c0.9,0.1,1.8,0,2.6-0.2c0.2,0,0.6-0.2,0.7,0.2
			C25.8,84.5,24.1,84.6,22.5,84.5z"/>
	</g>
	<g>
		<path class="st56" d="M50.5,84.3c0.3-0.2,0.8-0.1,1.1-0.2c1,0,1.9,0,2.8,0l0.1,0.2C53.3,84.4,51.9,84.4,50.5,84.3z"/>
	</g>
	<g>
		<path class="st57" d="M27.1,87.3c2.8-0.5,5.6-1.1,8.1-2.4c-0.4,0.6-1.2,0.9-1.7,1.4c0.6,0,1.1,0,1.7,0c-1.5,0.6-3.1,0.9-4.7,1
			c-1,0.1-2.1,0.1-3.2,0.1C27.3,87.3,27.1,87.3,27.1,87.3z"/>
	</g>
	<g>
		<path class="st58" d="M19.3,85.4c1.2-0.1,2.4,0,3.7,0c-0.6,0.2-1.3,0.1-1.9,0.2C20.5,85.5,19.9,85.6,19.3,85.4z"/>
	</g>
	<g>
		<path class="st59" d="M27.3,87.3c1.1,0,2.1,0,3.2-0.1c0.4,0,0.7,0.1,1.1,0.1c-0.3,0.1-0.7,0.2-1.1,0.2c-1,0-2,0.1-3,0
			C27.5,87.4,27.4,87.3,27.3,87.3z"/>
	</g>
	<g>
		<path class="st60" d="M31.6,91.4c3.3-0.4,6.6-1.6,9.2-3.6c1.5,1.1,3.2,1.8,5,2.2c-1.5,0.4-3.1,0-4.5-0.5c-0.2-0.1-0.4,0-0.6,0.1
			c-3.4,1.7-7.4,2.4-11.2,1.9C30.2,91.5,30.9,91.5,31.6,91.4z"/>
	</g>
</g>
</svg>
