<?xml version="1.0" encoding="utf-8"?>
<!-- Generator: Adobe Illustrator 24.3.0, SVG Export Plug-In . SVG Version: 6.00 Build 0)  -->
<svg version="1.1" xmlns="http://www.w3.org/2000/svg" xmlns:xlink="http://www.w3.org/1999/xlink" x="0px" y="0px"
	 viewBox="0 0 16 16" style="enable-background:new 0 0 16 16;" xml:space="preserve">
<style type="text/css">
	.st0{fill:#0083B0;}
	.st1{fill:#FFFFFF;}
</style>
<g id="BACKGROUND">
</g>
<g id="OBJECTS">
</g>
<g id="DESIGNED_BY_FREEPIK">
	<path class="st0" d="M12.2,15.8H3.8c-1.8,0-3.3-1.5-3.3-3.3V3.5c0-1.8,1.5-3.3,3.3-3.3h8.4c1.8,0,3.3,1.5,3.3,3.3v9.1
		C15.5,14.4,14,15.8,12.2,15.8z"/>
	<g>
		<g>
			<g>
				<path class="st1" d="M7.4,11.1v-0.5c1.4-0.2,3.1-0.4,4.5-0.7C10.7,8,9.2,6.1,7.4,4.2V3.4c0,0,0-0.1-0.1-0.1c0,0-0.1,0-0.1,0.1
					v1.1c-0.8,2.3-2.3,4.6-4,6.8c1.3-0.2,2.7-0.4,4-0.6v0.4l-3.8,0.5c-0.6,0.1-1.1,0.3-1.5,0.7c-0.2,0.2-0.1,0.4,0.2,0.4h6.7
					c0.8,0,1.5-0.2,2.2-0.5l4.3-2.1L7.4,11.1z M7.4,10.3c0-0.1,0-0.3,0-0.4V5.8c0-0.3,0-0.7,0-1V4.5C7.8,6.5,7.7,8.5,7.4,10.3
					L7.4,10.3z"/>
			</g>
		</g>
		<path class="st1" d="M2.9,7.3c-0.1,0-0.2,0-0.3,0c0,0,0,0,0,0c0.1-0.2-0.1-0.2-0.3,0c0,0,0,0,0,0C2.2,7.1,2,7.1,1.7,7.1
			c-0.6,0.1-1.1,0.5-1,0.6c0.1,0,0.5-0.3,1-0.2c0.3,0,0.4,0.1,0.5,0.1c0,0.1-0.1,0.2-0.1,0.3c0,0.2,0,0.3,0,0.3s0.2-0.2,0.3-0.5
			c0.1,0,0.3-0.1,0.5,0c0.5,0,0.8,0.5,1,0.5C3.9,8.1,3.6,7.4,2.9,7.3z"/>
		<path class="st1" d="M13.3,3.6c-0.1,0-0.1,0-0.2,0.1c-0.2,0.2-0.5,0.4-0.6,0.5c-0.2,0.1-0.3,0.2-0.4,0.3c-0.1-0.1-0.1-0.1-0.2-0.1
			c0,0-0.1,0.1,0,0.2c-0.1,0-0.3,0.1-0.4,0.2c-0.3,0.2-0.9,0.1-0.8,0.2c0.1,0.1,0.5,0.2,0.9,0.1c0.3-0.1,0.6,0,0.7,0
			c0,0,0.1,0,0.1,0.1c0.1,0.2,0.1,0.4,0.2,0.2c0.1,0,0.1,0,0.1-0.2c0-0.1-0.1-0.1-0.2-0.2c0.1-0.1,0.2-0.3,0.3-0.5
			c0.2-0.1,0.6-0.6,0.7-0.9C13.4,3.6,13.4,3.6,13.3,3.6z"/>
	</g>
</g>
</svg>
